<?xml version="1.0" encoding="utf-8"?>
<!-- Generator: Adobe Illustrator 26.0.1, SVG Export Plug-In . SVG Version: 6.00 Build 0)  -->
<svg version="1.1" id="Layer_1" xmlns="http://www.w3.org/2000/svg" xmlns:xlink="http://www.w3.org/1999/xlink" x="0px" y="0px"
	 viewBox="0 0 50 50" style="enable-background:new 0 0 50 50;" xml:space="preserve">
<style type="text/css">
	.st0{fill:#231F20;}
</style>
<g>
	<path class="st0" d="M14.1,11.9c1.2,0,2.2-1,2.2-2.2V7.5h6.6v19.7h-2.2c-1.2,0-2.2,1-2.2,2.2c0,1.2,1,2.2,2.2,2.2h8.7
		c1.2,0,2.2-1,2.2-2.2c0-1.2-1-2.2-2.2-2.2h-2.2V7.5h6.6v2.2c0,1.2,1,2.2,2.2,2.2s2.2-1,2.2-2.2V5.3c0-1.2-1-2.2-2.2-2.2H14.1
		c-1.2,0-2.2,1-2.2,2.2v4.4C11.9,10.9,12.9,11.9,14.1,11.9z"/>
	<path class="st0" d="M48.4,36.6L41.9,30c-0.9-0.8-2.3-0.8-3.1,0.1c-0.8,0.8-0.8,2.2,0,3l2.8,2.8H8.4l2.8-2.8
		c0.8-0.9,0.8-2.3-0.1-3.1c-0.8-0.8-2.2-0.8-3,0l-6.6,6.6c-0.9,0.9-0.9,2.2,0,3.1l6.6,6.6c0.8,0.9,2.2,0.9,3.1,0.1
		c0.9-0.8,0.9-2.2,0.1-3.1c0,0,0,0-0.1-0.1l-2.8-2.8h33.2l-2.8,2.8c-0.9,0.8-0.9,2.2-0.1,3.1s2.2,0.9,3.1,0.1c0,0,0,0,0.1-0.1
		l6.6-6.6C49.3,38.8,49.3,37.4,48.4,36.6z"/>
</g>
</svg>
