<svg xmlns="http://www.w3.org/2000/svg" width="48" height="48" viewBox="0 0 48 48" fill="none">
    <path
        d="M24 48C37.2548 48 48 37.2548 48 24C48 10.7452 37.2548 0 24 0C10.7452 0 0 10.7452 0 24C0 37.2548 10.7452 48 24 48Z"
        fill="white" />
    <path
        d="M46.0022 24.0724C46.0022 28.4099 44.7159 32.6499 42.3062 36.2564C39.8964 39.8629 36.4713 42.6739 32.4639 44.3337C28.4566 45.9936 24.0471 46.4279 19.7929 45.5817C15.5388 44.7355 11.6311 42.6468 8.56401 39.5798C5.49693 36.5127 3.40823 32.605 2.56203 28.3508C1.71582 24.0967 2.15013 19.6871 3.81001 15.6798C5.4699 11.6725 8.28082 8.24738 11.8873 5.8376C15.4938 3.42782 19.7339 2.1416 24.0714 2.1416C29.8876 2.1423 35.4654 4.45308 39.578 8.56574C43.6907 12.6784 46.0015 18.2562 46.0022 24.0724ZM5.69525 24.0724C5.69525 27.7068 6.773 31.2597 8.79219 34.2816C10.8114 37.3035 13.6814 39.6589 17.0392 41.0497C20.397 42.4406 24.0918 42.8045 27.6564 42.0954C31.221 41.3864 34.4953 39.6362 37.0653 37.0663C39.6352 34.4963 41.3854 31.222 42.0945 27.6574C42.8035 24.0928 42.4396 20.3979 41.0487 17.0401C39.6579 13.6823 37.3026 10.8124 34.2806 8.79316C31.2587 6.77396 27.7059 5.69622 24.0714 5.69622C21.658 5.69565 19.2682 6.17057 17.0385 7.09385C14.8087 8.01714 12.7827 9.37069 11.0762 11.0772C9.36973 12.7837 8.01617 14.8097 7.09289 17.0394C6.1696 19.2692 5.69468 21.659 5.69525 24.0724ZM41.0617 24.0724C41.0617 27.4327 40.0652 30.7176 38.1983 33.5116C36.3314 36.3057 33.6779 38.4834 30.5733 39.7693C27.4687 41.0553 24.0526 41.3917 20.7568 40.7362C17.461 40.0806 14.4336 38.4624 12.0575 36.0863C9.68134 33.7102 8.06318 30.6828 7.40761 27.387C6.75204 24.0912 7.0885 20.675 8.37445 17.5705C9.6604 14.4659 11.8381 11.8124 14.6321 9.94549C17.4262 8.07857 20.711 7.08211 24.0714 7.08211C26.3035 7.07924 28.5143 7.51673 30.5771 8.36952C32.6399 9.22231 34.5142 10.4736 36.0927 12.0519C37.6711 13.6301 38.9228 15.5042 39.7759 17.5669C40.629 19.6295 41.0668 21.8402 41.0643 24.0724H41.0617ZM35.519 17.9266C35.4772 17.7476 35.4001 17.5788 35.2922 17.4299C35.1844 17.2811 35.0479 17.1553 34.8908 17.0599C34.7337 16.9644 34.5591 16.9013 34.3773 16.8742C34.1955 16.8471 34.0101 16.8566 33.832 16.902C25.2793 18.8901 22.8662 18.8901 14.3108 16.902C14.1305 16.8518 13.942 16.8384 13.7564 16.8625C13.5709 16.8866 13.392 16.9477 13.2306 17.0423C13.0691 17.1369 12.9283 17.2629 12.8165 17.413C12.7047 17.5631 12.6242 17.7341 12.5798 17.9159C12.5354 18.0976 12.5279 18.2865 12.558 18.4712C12.588 18.6559 12.6548 18.8327 12.7545 18.9911C12.8542 19.1494 12.9847 19.2862 13.1382 19.3931C13.2918 19.5 13.4653 19.575 13.6484 19.6136C16.0446 20.2385 18.48 20.7015 20.9383 20.9995C20.8781 29.9161 19.8535 31.9086 18.7094 34.7362C18.5575 35.1277 18.5674 35.5635 18.7369 35.9478C18.9064 36.332 19.2216 36.6331 19.6131 36.7849C20.0046 36.9368 20.4404 36.9269 20.8246 36.7574C21.2088 36.5879 21.51 36.2728 21.6618 35.8812C22.6411 33.6745 23.3101 31.3429 23.6499 28.9527H24.4938C24.8159 31.3466 25.4857 33.6807 26.4819 35.8812C26.5571 36.0751 26.6697 36.2523 26.8133 36.4026C26.957 36.5529 27.1288 36.6735 27.3191 36.7574C27.5093 36.8413 27.7142 36.8869 27.9221 36.8917C28.13 36.8964 28.3367 36.8601 28.5306 36.7849C28.7245 36.7098 28.9016 36.5971 29.0519 36.4535C29.2023 36.3098 29.3228 36.138 29.4068 35.9478C29.4907 35.7575 29.5363 35.5526 29.541 35.3447C29.5458 35.1369 29.5095 34.9301 29.4343 34.7362C28.2893 31.844 27.3258 29.9161 27.2054 20.9995C29.6619 20.6905 32.0967 20.2276 34.4953 19.6136C34.6749 19.573 34.8445 19.4967 34.994 19.3891C35.1435 19.2815 35.2698 19.145 35.3654 18.9875C35.4609 18.8301 35.5237 18.655 35.5501 18.4727C35.5765 18.2904 35.5659 18.1047 35.519 17.9266ZM20.8781 14.1913C20.8781 14.8229 21.0654 15.4403 21.4163 15.9655C21.7671 16.4906 22.2659 16.8999 22.8494 17.1416C23.4329 17.3833 24.0749 17.4465 24.6944 17.3233C25.3138 17.2001 25.8828 16.8959 26.3294 16.4494C26.776 16.0028 27.0801 15.4338 27.2034 14.8143C27.3266 14.1949 27.2633 13.5528 27.0216 12.9693C26.7799 12.3858 26.3706 11.8871 25.8455 11.5362C25.3204 11.1853 24.703 10.998 24.0714 10.998C23.6514 10.9957 23.2351 11.0767 22.8466 11.2364C22.4582 11.3961 22.1052 11.6312 21.8082 11.9282C21.5112 12.2252 21.2761 12.5781 21.1165 12.9666C20.9568 13.3551 20.8758 13.7713 20.8781 14.1913Z"
        fill="#0F1E8C" />
</svg>