<?xml version="1.0" encoding="utf-8"?>
<!-- Generator: Adobe Illustrator 26.0.1, SVG Export Plug-In . SVG Version: 6.00 Build 0)  -->
<svg version="1.1" id="Layer_1" xmlns="http://www.w3.org/2000/svg" xmlns:xlink="http://www.w3.org/1999/xlink" x="0px" y="0px"
	 viewBox="0 0 50 50" style="enable-background:new 0 0 50 50;" xml:space="preserve">
<style type="text/css">
	.st0{fill:#231F20;}
</style>
<g>
	<path class="st0" d="M20.5,32.2h-9l-2.2,8.4H1.9l9.6-31.1h9.3l8.1,25.7l5.3-16.9H41l7.1,22.4h-5.6l-1.8-6.1h-6.5l-1.6,6.1l-9.6,0
		L20.5,32.2z M12.5,27.1h6.9l-2-6.6l-0.8-3l-0.8-3h-0.1l-0.7,3l-0.7,3.1L12.5,27.1z M34.9,30.8H40L38.5,26l-0.6-2.2l-0.6-2.2h-0.1
		l-0.5,2.2L36.3,26L34.9,30.8z M31.5,9.5h11.7l-5.8,5.8L31.5,9.5z"/>
</g>
</svg>
