<?xml version="1.0" encoding="utf-8"?>
<!-- Generator: Adobe Illustrator 26.0.1, SVG Export Plug-In . SVG Version: 6.00 Build 0)  -->
<svg version="1.1" id="Layer_1" xmlns="http://www.w3.org/2000/svg" xmlns:xlink="http://www.w3.org/1999/xlink" x="0px" y="0px"
	 viewBox="0 0 50 50" style="enable-background:new 0 0 50 50;" xml:space="preserve">
<style type="text/css">
	.st0{fill:#231F20;}
</style>
<g>
	<path class="st0" d="M27.2,33.4H27c-1.3,0-2.7-0.3-3.9-0.8c-0.2-0.1-0.5,0-0.7,0.1l-4.6,4.6c-1.4,1.4-3.7,1.4-5.2,0
		c-1.4-1.4-1.4-3.7,0-5.2l7.8-7.8c1.4-1.4,3.7-1.4,5.2,0c1,0.9,2.5,0.9,3.4,0c0.4-0.4,0.7-1,0.7-1.5c0-0.7-0.2-1.4-0.7-1.9
		c-0.4-0.4-0.9-0.8-1.4-1.2c-1.4-0.9-3-1.3-4.6-1.3c-2.3,0-4.4,0.9-6,2.5l-7.8,7.8c-1.6,1.6-2.5,3.8-2.5,6c0,4.7,3.8,8.5,8.5,8.5
		c2.3,0,4.4-0.9,6-2.5l6.4-6.4c0.1-0.1,0.2-0.3,0.2-0.4C27.9,33.6,27.6,33.4,27.2,33.4z"/>
	<path class="st0" d="M40.8,9.2c-3.3-3.3-8.7-3.3-12.1,0l-6.4,6.4c-0.2,0.2-0.2,0.4-0.1,0.7c0.1,0.2,0.3,0.4,0.6,0.4H23
		c1.3,0,2.7,0.3,3.9,0.8c0.2,0.1,0.5,0,0.7-0.1l4.6-4.6c1.4-1.4,3.7-1.4,5.2,0c1.4,1.4,1.4,3.7,0,5.2l-5.7,5.7l0,0.1l-2,2
		c-1.4,1.4-3.7,1.4-5.2,0c-1-0.9-2.5-0.9-3.4,0c-0.4,0.4-0.7,1-0.7,1.6c0,0.7,0.2,1.4,0.7,1.9c0.7,0.7,1.5,1.3,2.4,1.7
		c0.1,0.1,0.3,0.1,0.4,0.2c0.1,0.1,0.3,0.1,0.4,0.1c0.1,0,0.3,0.1,0.4,0.1l0.4,0.1c0.2,0.1,0.5,0.1,0.7,0.2c0.3,0,0.6,0.1,0.9,0.1
		H27h0l0.4,0c0.1,0,0.3,0,0.4,0H28l0.4-0.1l0.2,0l0.4-0.1h0.1c1.5-0.4,2.9-1.2,4-2.2l7.8-7.8C44.1,17.9,44.1,12.5,40.8,9.2z"/>
</g>
</svg>
