<svg width="28" height="20" viewBox="0 0 28 20" fill="none" xmlns="http://www.w3.org/2000/svg">
<g id="line">
<g id="Group">
<path id="Vector" d="M16.1695 8.46302C17.3179 7.7397 18.0814 6.46235 18.0814 5.00889C18.0814 2.75668 16.2498 0.925 13.9975 0.925C11.7453 0.925 9.91366 2.75668 9.91366 5.00889C9.91366 6.46235 10.6772 7.7397 11.8256 8.46302C9.66558 9.22389 7.90269 11.1636 7.77662 14.2764L7.77656 14.2764V14.2794V17.9248C7.77656 18.5607 8.2916 19.0757 8.92748 19.0757H19.0676C19.7035 19.0757 20.2185 18.5607 20.2185 17.9248V14.2794H20.2186L20.2185 14.2764C20.0924 11.1636 18.3295 9.22389 16.1695 8.46302ZM10.948 5.00889C10.948 3.33081 12.3146 1.96423 13.9926 1.96423C15.6707 1.96423 17.0373 3.33081 17.0373 5.00889C17.0373 6.68712 15.6755 8.05355 13.9975 8.05355C12.3193 8.05355 10.948 6.68681 10.948 5.00889ZM19.1842 17.9248C19.1842 17.9878 19.133 18.0414 19.0676 18.0414H8.92748C8.86447 18.0414 8.81088 17.9902 8.81088 17.9248V14.2794C8.81088 11.4174 11.1355 9.09278 13.9975 9.09278C16.8596 9.09278 19.1842 11.4174 19.1842 14.2794V17.9248Z" fill="white" stroke="#90C6E9" stroke-width="0.15"/>
<path id="Vector_2" d="M5.45907 8.76699H5.4591H5.45913H5.45917H5.4592H5.45923H5.45926H5.45929H5.45932H5.45935H5.45938C6.80368 8.75731 7.89511 7.6656 7.89511 6.31678C7.89511 4.96276 6.79854 3.86166 5.4449 3.86166C4.09107 3.86166 2.98978 4.96295 2.98978 6.31678C2.98978 7.66569 4.08619 8.76215 5.4303 8.76699H5.45907ZM5.45907 8.76699H5.45904M5.45907 8.76699H5.45904M5.45904 8.76699H5.45901M5.45904 8.76699H5.45901M5.45901 8.76699H5.45898M5.45901 8.76699H5.45898M5.45898 8.76699H5.45895M5.45898 8.76699H5.45895M5.45895 8.76699H5.45892M5.45895 8.76699H5.45892M5.45892 8.76699H5.45889M5.45892 8.76699H5.45889M5.45889 8.76699H5.45885M5.45889 8.76699H5.45885M5.45885 8.76699H5.45882M5.45885 8.76699H5.45882M5.45882 8.76699H5.45879M5.45882 8.76699H5.45879M5.45879 8.76699H5.45876M5.45879 8.76699H5.45876M5.45876 8.76699H5.45873M5.45876 8.76699H5.45873M5.45873 8.76699H5.4587M5.45873 8.76699H5.4587M5.4587 8.76699H5.45866M5.4587 8.76699H5.45866M5.45866 8.76699H5.45863M5.45866 8.76699H5.45863M5.45863 8.76699H5.4586M5.45863 8.76699H5.4586M5.4586 8.76699H5.45857M5.4586 8.76699H5.45857M5.45857 8.76699H5.45853M5.45857 8.76699H5.45853M5.45853 8.76699H5.4585M5.45853 8.76699H5.4585M5.4585 8.76699H5.45847M5.4585 8.76699H5.45847M5.45847 8.76699H5.45844M5.45847 8.76699H5.45844M5.45844 8.76699H5.4584M5.45844 8.76699H5.4584M5.4584 8.76699H5.45837M5.4584 8.76699H5.45837M5.45837 8.76699H5.45834M5.45837 8.76699H5.45834M5.45834 8.76699H5.4583M5.45834 8.76699H5.4583M5.4583 8.76699H5.45827M5.4583 8.76699H5.45827M5.45827 8.76699H5.45824M5.45827 8.76699H5.45824M5.45824 8.76699H5.4582M5.45824 8.76699H5.4582M5.4582 8.76699H5.45817M5.4582 8.76699H5.45817M5.45817 8.76699H5.45814M5.45817 8.76699H5.45814M5.45814 8.76699H5.4581M5.45814 8.76699H5.4581M5.4581 8.76699H5.45807M5.4581 8.76699H5.45807M5.45807 8.76699H5.45804M5.45807 8.76699H5.45804M5.45804 8.76699H5.458M5.45804 8.76699H5.458M5.458 8.76699H5.45797M5.458 8.76699H5.45797M5.45797 8.76699H5.45793M5.45797 8.76699H5.45793M5.45793 8.76699H5.4579M5.45793 8.76699H5.4579M5.4579 8.76699H5.45786M5.4579 8.76699H5.45786M5.45786 8.76699H5.45783M5.45786 8.76699H5.45783M5.45783 8.76699H5.4578M5.45783 8.76699H5.4578M5.4578 8.76699H5.45776M5.4578 8.76699H5.45776M5.45776 8.76699H5.45773M5.45776 8.76699H5.45773M5.45773 8.76699H5.45769M5.45773 8.76699H5.45769M5.45769 8.76699H5.45766M5.45769 8.76699H5.45766M5.45766 8.76699H5.45762M5.45766 8.76699H5.45762M5.45762 8.76699H5.45759M5.45762 8.76699H5.45759M5.45759 8.76699H5.45755M5.45759 8.76699H5.45755M5.45755 8.76699H5.45752M5.45755 8.76699H5.45752M5.45752 8.76699H5.45748M5.45752 8.76699H5.45748M5.45748 8.76699H5.45745M5.45748 8.76699H5.45745M5.45745 8.76699H5.45741M5.45745 8.76699H5.45741M5.45741 8.76699H5.45737M5.45741 8.76699H5.45737M5.45737 8.76699H5.45734M5.45737 8.76699H5.45734M5.45734 8.76699H5.4573M5.45734 8.76699H5.4573M5.4573 8.76699H5.45727M5.4573 8.76699H5.45727M5.45727 8.76699H5.45723M5.45727 8.76699H5.45723M5.45723 8.76699H5.4572M5.45723 8.76699H5.4572M5.4572 8.76699H5.45716M5.4572 8.76699H5.45716M5.45716 8.76699H5.45712M5.45716 8.76699H5.45712M5.45712 8.76699H5.45709M5.45712 8.76699H5.45709M5.45709 8.76699H5.45705M5.45709 8.76699H5.45705M5.45705 8.76699H5.45701M5.45705 8.76699H5.45701M5.45701 8.76699H5.45698M5.45701 8.76699H5.45698M5.45698 8.76699H5.45694M5.45698 8.76699H5.45694M5.45694 8.76699H5.45691M5.45694 8.76699H5.45691M5.45691 8.76699H5.45687M5.45691 8.76699H5.45687M5.45687 8.76699H5.45683M5.45687 8.76699H5.45683M5.45683 8.76699H5.4568M5.45683 8.76699H5.4568M5.4568 8.76699H5.45676M5.4568 8.76699H5.45676M5.45676 8.76699H5.45672M5.45676 8.76699H5.45672M5.45672 8.76699H5.45668M5.45672 8.76699H5.45668M5.45668 8.76699H5.45665M5.45668 8.76699H5.45665M5.45665 8.76699H5.45661M5.45665 8.76699H5.45661M5.45661 8.76699H5.45657M5.45661 8.76699H5.45657M5.45657 8.76699H5.45654M5.45657 8.76699H5.45654M5.45654 8.76699H5.4565M5.45654 8.76699H5.4565M5.4565 8.76699H5.45646M5.4565 8.76699H5.45646M5.45646 8.76699H5.45642M5.45646 8.76699H5.45642M5.45642 8.76699H5.45639M5.45642 8.76699H5.45639M5.45639 8.76699H5.45635M5.45639 8.76699H5.45635M5.45635 8.76699H5.45631M5.45635 8.76699H5.45631M5.45631 8.76699H5.45627M5.45631 8.76699H5.45627M5.45627 8.76699H5.45623M5.45627 8.76699H5.45623M5.45623 8.76699H5.4562M5.45623 8.76699H5.4562M5.4562 8.76699H5.45616M5.4562 8.76699H5.45616M5.45616 8.76699H5.45612M5.45616 8.76699H5.45612M5.45612 8.76699H5.45608M5.45612 8.76699H5.45608M5.45608 8.76699H5.45604M5.45608 8.76699H5.45604M5.45604 8.76699H5.45601M5.45604 8.76699H5.45601M5.45601 8.76699H5.45597M5.45601 8.76699H5.45597M5.45597 8.76699H5.45593M5.45597 8.76699H5.45593M5.45593 8.76699H5.45589M5.45593 8.76699H5.45589M5.45589 8.76699H5.45585M5.45589 8.76699H5.45585M5.45585 8.76699H5.45581M5.45585 8.76699H5.45581M5.45581 8.76699H5.45577M5.45581 8.76699H5.45577M5.45577 8.76699H5.45574M5.45577 8.76699H5.45574M5.45574 8.76699H5.4557M5.45574 8.76699H5.4557M5.4557 8.76699H5.45566M5.4557 8.76699H5.45566M5.45566 8.76699H5.45562M5.45566 8.76699H5.45562M5.45562 8.76699H5.45558M5.45562 8.76699H5.45558M5.45558 8.76699H5.45554M5.45558 8.76699H5.45554M5.45554 8.76699H5.4555M5.45554 8.76699H5.4555M5.4555 8.76699H5.45546M5.4555 8.76699H5.45546M5.45546 8.76699H5.45542M5.45546 8.76699H5.45542M5.45542 8.76699H5.45538M5.45542 8.76699H5.45538M5.45538 8.76699H5.45535M5.45538 8.76699H5.45535M5.45535 8.76699H5.45531M5.45535 8.76699H5.45531M5.45531 8.76699H5.45527M5.45531 8.76699H5.45527M5.45527 8.76699H5.45523M5.45527 8.76699H5.45523M5.45523 8.76699H5.45519M5.45523 8.76699H5.45519M5.45519 8.76699H5.45515M5.45519 8.76699H5.45515M5.45515 8.76699H5.45511M5.45515 8.76699H5.45511M5.45511 8.76699H5.45507M5.45511 8.76699H5.45507M5.45507 8.76699H5.45503M5.45507 8.76699H5.45503M5.45503 8.76699H5.45499M5.45503 8.76699H5.45499M5.45499 8.76699H5.45495M5.45499 8.76699H5.45495M5.45495 8.76699H5.45491M5.45495 8.76699H5.45491M5.45491 8.76699H5.45487M5.45491 8.76699H5.45487M5.45487 8.76699H5.45483M5.45487 8.76699H5.45483M5.45483 8.76699H5.45479M5.45483 8.76699H5.45479M5.45479 8.76699H5.45475M5.45479 8.76699H5.45475M5.45475 8.76699H5.45471M5.45475 8.76699H5.45471M5.45471 8.76699H5.45467M5.45471 8.76699H5.45467M5.45467 8.76699H5.45463M5.45467 8.76699H5.45463M5.45463 8.76699H5.45459M5.45463 8.76699H5.45459M5.45459 8.76699H5.45455M5.45459 8.76699H5.45455M5.45455 8.76699H5.45451M5.45455 8.76699H5.45451M5.45451 8.76699H5.45447M5.45451 8.76699H5.45447M5.45447 8.76699H5.45443M5.45447 8.76699H5.45443M5.45443 8.76699H5.45439M5.45443 8.76699H5.45439M5.45439 8.76699H5.45434M5.45439 8.76699H5.45434M5.45434 8.76699H5.4543M5.45434 8.76699H5.4543M5.4543 8.76699H5.45426M5.4543 8.76699H5.45426M5.45426 8.76699H5.45422M5.45426 8.76699H5.45422M5.45422 8.76699H5.45418M5.45422 8.76699H5.45418M5.45418 8.76699H5.45414M5.45418 8.76699H5.45414M5.45414 8.76699H5.4541M5.45414 8.76699H5.4541M5.4541 8.76699H5.45406M5.4541 8.76699H5.45406M5.45406 8.76699H5.45402M5.45406 8.76699H5.45402M5.45402 8.76699H5.45398M5.45402 8.76699H5.45398M5.45398 8.76699H5.45394M5.45398 8.76699H5.45394M5.45394 8.76699H5.45389M5.45394 8.76699H5.45389M5.45389 8.76699H5.45385M5.45389 8.76699H5.45385M5.45385 8.76699H5.45381M5.45385 8.76699H5.45381M5.45381 8.76699H5.45377M5.45381 8.76699H5.45377M5.45377 8.76699H5.45373M5.45377 8.76699H5.45373M5.45373 8.76699H5.45369M5.45373 8.76699H5.45369M5.45369 8.76699H5.45365M5.45369 8.76699H5.45365M5.45365 8.76699H5.45361M5.45365 8.76699H5.45361M5.45361 8.76699H5.45356M5.45361 8.76699H5.45356M5.45356 8.76699H5.45352M5.45356 8.76699H5.45352M5.45352 8.76699H5.45348M5.45352 8.76699H5.45348M5.45348 8.76699H5.45344M5.45348 8.76699H5.45344M5.45344 8.76699H5.4534M5.45344 8.76699H5.4534M5.4534 8.76699H5.45336M5.4534 8.76699H5.45336M5.45336 8.76699H5.45331M5.45336 8.76699H5.45331M5.45331 8.76699H5.45327M5.45331 8.76699H5.45327M5.45327 8.76699H5.45323M5.45327 8.76699H5.45323M5.45323 8.76699H5.45319M5.45323 8.76699H5.45319M5.45319 8.76699H5.45315M5.45319 8.76699H5.45315M5.45315 8.76699H5.45311M5.45315 8.76699H5.45311M5.45311 8.76699H5.45306M5.45311 8.76699H5.45306M5.45306 8.76699H5.45302M5.45306 8.76699H5.45302M5.45302 8.76699H5.45298M5.45302 8.76699H5.45298M5.45298 8.76699H5.45294M5.45298 8.76699H5.45294M5.45294 8.76699H5.4529M5.45294 8.76699H5.4529M5.4529 8.76699H5.45285M5.4529 8.76699H5.45285M5.45285 8.76699H5.45281M5.45285 8.76699H5.45281M5.45281 8.76699H5.45277M5.45281 8.76699H5.45277M5.45277 8.76699H5.45273M5.45277 8.76699H5.45273M5.45273 8.76699H5.45269M5.45273 8.76699H5.45269M5.45269 8.76699H5.45264M5.45269 8.76699H5.45264M5.45264 8.76699H5.4526M5.45264 8.76699H5.4526M5.4526 8.76699H5.45256M5.4526 8.76699H5.45256M5.45256 8.76699H5.45252M5.45256 8.76699H5.45252M5.45252 8.76699H5.45247M5.45252 8.76699H5.45247M5.45247 8.76699H5.45243M5.45247 8.76699H5.45243M5.45243 8.76699H5.45239M5.45243 8.76699H5.45239M5.45239 8.76699H5.45235M5.45239 8.76699H5.45235M5.45235 8.76699H5.4523M5.45235 8.76699H5.4523M5.4523 8.76699H5.45226M5.4523 8.76699H5.45226M5.45226 8.76699H5.45222M5.45226 8.76699H5.45222M5.45222 8.76699H5.45218M5.45222 8.76699H5.45218M5.45218 8.76699H5.45213M5.45218 8.76699H5.45213M5.45213 8.76699H5.45209M5.45213 8.76699H5.45209M5.45209 8.76699H5.45205M5.45209 8.76699H5.45205M5.45205 8.76699H5.45201M5.45205 8.76699H5.45201M5.45201 8.76699H5.45196M5.45201 8.76699H5.45196M5.45196 8.76699H5.45192M5.45196 8.76699H5.45192M5.45192 8.76699H5.45188M5.45192 8.76699H5.45188M5.45188 8.76699H5.45184M5.45188 8.76699H5.45184M5.45184 8.76699H5.45179M5.45184 8.76699H5.45179M5.45179 8.76699H5.45175M5.45179 8.76699H5.45175M5.45175 8.76699H5.45171M5.45175 8.76699H5.45171M5.45171 8.76699H5.45167M5.45171 8.76699H5.45167M5.45167 8.76699H5.45162M5.45167 8.76699H5.45162M5.45162 8.76699H5.45158M5.45162 8.76699H5.45158M5.45158 8.76699H5.45154M5.45158 8.76699H5.45154M5.45154 8.76699H5.45149M5.45154 8.76699H5.45149M5.45149 8.76699H5.45145M5.45149 8.76699H5.45145M5.45145 8.76699H5.45141M5.45145 8.76699H5.45141M5.45141 8.76699H5.45137M5.45141 8.76699H5.45137M5.45137 8.76699H5.45132M5.45137 8.76699H5.45132M5.45132 8.76699H5.45128M5.45132 8.76699H5.45128M5.45128 8.76699H5.45124M5.45128 8.76699H5.45124M5.45124 8.76699H5.45119M5.45124 8.76699H5.45119M5.45119 8.76699H5.45115M5.45119 8.76699H5.45115M5.45115 8.76699H5.45111M5.45115 8.76699H5.45111M5.45111 8.76699H5.45106M5.45111 8.76699H5.45106M5.45106 8.76699H5.45102M5.45106 8.76699H5.45102M5.45102 8.76699H5.45098M5.45102 8.76699H5.45098M5.45098 8.76699H5.45094M5.45098 8.76699H5.45094M5.45094 8.76699H5.45089M5.45094 8.76699H5.45089M5.45089 8.76699H5.45085M5.45089 8.76699H5.45085M5.45085 8.76699H5.45081M5.45085 8.76699H5.45081M5.45081 8.76699H5.45076M5.45081 8.76699H5.45076M5.45076 8.76699H5.45072M5.45076 8.76699H5.45072M5.45072 8.76699H5.45068M5.45072 8.76699H5.45068M5.45068 8.76699H5.45063M5.45068 8.76699H5.45063M5.45063 8.76699H5.45059M5.45063 8.76699H5.45059M5.45059 8.76699H5.45055M5.45059 8.76699H5.45055M5.45055 8.76699H5.4505M5.45055 8.76699H5.4505M5.4505 8.76699H5.45046M5.4505 8.76699H5.45046M5.45046 8.76699H5.45042M5.45046 8.76699H5.45042M5.45042 8.76699H5.45038M5.45042 8.76699H5.45038M5.45038 8.76699H5.45033M5.45038 8.76699H5.45033M5.45033 8.76699H5.45029M5.45033 8.76699H5.45029M5.45029 8.76699H5.45025M5.45029 8.76699H5.45025M5.45025 8.76699H5.4502M5.45025 8.76699H5.4502M5.4502 8.76699H5.45016M5.4502 8.76699H5.45016M5.45016 8.76699H5.45012M5.45016 8.76699H5.45012M5.45012 8.76699H5.45007M5.45012 8.76699H5.45007M5.45007 8.76699H5.45003M5.45007 8.76699H5.45003M5.45003 8.76699H5.44999M5.45003 8.76699H5.44999M5.44999 8.76699H5.44994M5.44999 8.76699H5.44994M5.44994 8.76699H5.4499M5.44994 8.76699H5.4499M5.4499 8.76699H5.44986M5.4499 8.76699H5.44986M5.44986 8.76699H5.44981M5.44986 8.76699H5.44981M5.44981 8.76699H5.44977M5.44981 8.76699H5.44977M5.44977 8.76699H5.44973M5.44977 8.76699H5.44973M5.44973 8.76699H5.44968M5.44973 8.76699H5.44968M5.44968 8.76699H5.44964M5.44968 8.76699H5.44964M5.44964 8.76699H5.4496M5.44964 8.76699H5.4496M5.4496 8.76699H5.44956M5.4496 8.76699H5.44956M5.44956 8.76699H5.44951M5.44956 8.76699H5.44951M5.44951 8.76699H5.44947M5.44951 8.76699H5.44947M5.44947 8.76699H5.44943M5.44947 8.76699H5.44943M5.44943 8.76699H5.44938M5.44943 8.76699H5.44938M5.44938 8.76699H5.44934M5.44938 8.76699H5.44934M5.44934 8.76699H5.4493M5.44934 8.76699H5.4493M5.4493 8.76699H5.44925M5.4493 8.76699H5.44925M5.44925 8.76699H5.44921M5.44925 8.76699H5.44921M5.44921 8.76699H5.44917M5.44921 8.76699H5.44917M5.44917 8.76699H5.44912M5.44917 8.76699H5.44912M5.44912 8.76699H5.44908M5.44912 8.76699H5.44908M5.44908 8.76699H5.44904M5.44908 8.76699H5.44904M5.44904 8.76699H5.44899M5.44904 8.76699H5.44899M5.44899 8.76699H5.44895M5.44899 8.76699H5.44895M5.44895 8.76699H5.44891M5.44895 8.76699H5.44891M5.44891 8.76699H5.44886M5.44891 8.76699H5.44886M5.44886 8.76699H5.44882M5.44886 8.76699H5.44882M5.44882 8.76699H5.44878M5.44882 8.76699H5.44878M5.44878 8.76699H5.44874M5.44878 8.76699H5.44874M5.44874 8.76699H5.44869M5.44874 8.76699H5.44869M5.44869 8.76699H5.44865M5.44869 8.76699H5.44865M5.44865 8.76699H5.44861M5.44865 8.76699H5.44861M5.44861 8.76699H5.44856M5.44861 8.76699H5.44856M5.44856 8.76699H5.44852M5.44856 8.76699H5.44852M5.44852 8.76699H5.44848M5.44852 8.76699H5.44848M5.44848 8.76699H5.44843M5.44848 8.76699H5.44843M5.44843 8.76699H5.44839M5.44843 8.76699H5.44839M5.44839 8.76699H5.44835M5.44839 8.76699H5.44835M5.44835 8.76699H5.44831M5.44835 8.76699H5.44831M5.44831 8.76699H5.44826M5.44831 8.76699H5.44826M5.44826 8.76699H5.44822M5.44826 8.76699H5.44822M5.44822 8.76699H5.44818M5.44822 8.76699H5.44818M5.44818 8.76699H5.44813M5.44818 8.76699H5.44813M5.44813 8.76699H5.44809M5.44813 8.76699H5.44809M5.44809 8.76699H5.44805M5.44809 8.76699H5.44805M5.44805 8.76699H5.44801M5.44805 8.76699H5.44801M5.44801 8.76699H5.44796M5.44801 8.76699H5.44796M5.44796 8.76699H5.44792M5.44796 8.76699H5.44792M5.44792 8.76699H5.44788M5.44792 8.76699H5.44788M5.44788 8.76699H5.44783M5.44788 8.76699H5.44783M5.44783 8.76699H5.44779M5.44783 8.76699H5.44779M5.44779 8.76699H5.44775M5.44779 8.76699H5.44775M5.44775 8.76699H5.44771M5.44775 8.76699H5.44771M5.44771 8.76699H5.44766M5.44771 8.76699H5.44766M5.44766 8.76699H5.44762M5.44766 8.76699H5.44762M5.44762 8.76699H5.44758M5.44762 8.76699H5.44758M5.44758 8.76699H5.44754M5.44758 8.76699H5.44754M5.44754 8.76699H5.44749M5.44754 8.76699H5.44749M5.44749 8.76699H5.44745M5.44749 8.76699H5.44745M5.44745 8.76699H5.44741M5.44745 8.76699H5.44741M5.44741 8.76699H5.44737M5.44741 8.76699H5.44737M5.44737 8.76699H5.44732M5.44737 8.76699H5.44732M5.44732 8.76699H5.44728M5.44732 8.76699H5.44728M5.44728 8.76699H5.44724M5.44728 8.76699H5.44724M5.44724 8.76699H5.4472M5.44724 8.76699H5.4472M5.4472 8.76699H5.44715M5.4472 8.76699H5.44715M5.44715 8.76699H5.44711M5.44715 8.76699H5.44711M5.44711 8.76699H5.44707M5.44711 8.76699H5.44707M5.44707 8.76699H5.44703M5.44707 8.76699H5.44703M5.44703 8.76699H5.44699M5.44703 8.76699H5.44699M5.44699 8.76699H5.44694M5.44699 8.76699H5.44694M5.44694 8.76699H5.4469M5.44694 8.76699H5.4469M5.4469 8.76699H5.44686M5.4469 8.76699H5.44686M5.44686 8.76699H5.44682M5.44686 8.76699H5.44682M5.44682 8.76699H5.44677M5.44682 8.76699H5.44677M5.44677 8.76699H5.44673M5.44677 8.76699H5.44673M5.44673 8.76699H5.44669M5.44673 8.76699H5.44669M5.44669 8.76699H5.44665M5.44669 8.76699H5.44665M5.44665 8.76699H5.44661M5.44665 8.76699H5.44661M5.44661 8.76699H5.44656M5.44661 8.76699H5.44656M5.44656 8.76699H5.44652M5.44656 8.76699H5.44652M5.44652 8.76699H5.44648M5.44652 8.76699H5.44648M5.44648 8.76699H5.44644M5.44648 8.76699H5.44644M5.44644 8.76699H5.4464M5.44644 8.76699H5.4464M5.4464 8.76699H5.44636M5.4464 8.76699H5.44636M5.44636 8.76699H5.44631M5.44636 8.76699H5.44631M5.44631 8.76699H5.44627M5.44631 8.76699H5.44627M5.44627 8.76699H5.44623M5.44627 8.76699H5.44623M5.44623 8.76699H5.44619M5.44623 8.76699H5.44619M5.44619 8.76699H5.44615M5.44619 8.76699H5.44615M5.44615 8.76699H5.44611M5.44615 8.76699H5.44611M5.44611 8.76699H5.44606M5.44611 8.76699H5.44606M5.44606 8.76699H5.44602M5.44606 8.76699H5.44602M5.44602 8.76699H5.44598M5.44602 8.76699H5.44598M5.44598 8.76699H5.44594M5.44598 8.76699H5.44594M5.44594 8.76699H5.4459M5.44594 8.76699H5.4459M5.4459 8.76699H5.44586M5.4459 8.76699H5.44586M5.44586 8.76699H5.44582M5.44586 8.76699H5.44582M5.44582 8.76699H5.44578M5.44582 8.76699H5.44578M5.44578 8.76699H5.44573M5.44578 8.76699H5.44573M5.44573 8.76699H5.44569M5.44573 8.76699H5.44569M5.44569 8.76699H5.44565M5.44569 8.76699H5.44565M5.44565 8.76699H5.44561M5.44565 8.76699H5.44561M5.44561 8.76699H5.44557M5.44561 8.76699H5.44557M5.44557 8.76699H5.44553M5.44557 8.76699H5.44553M5.44553 8.76699H5.44549M5.44553 8.76699H5.44549M5.44549 8.76699H5.44545M5.44549 8.76699H5.44545M5.44545 8.76699H5.44541M5.44545 8.76699H5.44541M5.44541 8.76699H5.44537M5.44541 8.76699H5.44537M5.44537 8.76699H5.44532M5.44537 8.76699H5.44532M5.44532 8.76699H5.44528M5.44532 8.76699H5.44528M5.44528 8.76699H5.44524M5.44528 8.76699H5.44524M5.44524 8.76699H5.4452M5.44524 8.76699H5.4452M5.4452 8.76699H5.44516M5.4452 8.76699H5.44516M5.44516 8.76699H5.44512M5.44516 8.76699H5.44512M5.44512 8.76699H5.44508M5.44512 8.76699H5.44508M5.44508 8.76699H5.44504M5.44508 8.76699H5.44504M5.44504 8.76699H5.445M5.44504 8.76699H5.445M5.445 8.76699H5.44496M5.445 8.76699H5.44496M5.44496 8.76699H5.44492M5.44496 8.76699H5.44492M5.44492 8.76699H5.44488M5.44492 8.76699H5.44488M5.44488 8.76699H5.44484M5.44488 8.76699H5.44484M5.44484 8.76699H5.4448M5.44484 8.76699H5.4448M5.4448 8.76699H5.44476M5.4448 8.76699H5.44476M5.44476 8.76699H5.44472M5.44476 8.76699H5.44472M5.44472 8.76699H5.44468M5.44472 8.76699H5.44468M5.44468 8.76699H5.44464M5.44468 8.76699H5.44464M5.44464 8.76699H5.4446M5.44464 8.76699H5.4446M5.4446 8.76699H5.44456M5.4446 8.76699H5.44456M5.44456 8.76699H5.44452M5.44456 8.76699H5.44452M5.44452 8.76699H5.44448M5.44452 8.76699H5.44448M5.44448 8.76699H5.44444M5.44448 8.76699H5.44444M5.44444 8.76699H5.4444M5.44444 8.76699H5.4444M5.4444 8.76699H5.44436M5.4444 8.76699H5.44436M5.44436 8.76699H5.44432M5.44436 8.76699H5.44432M5.44432 8.76699H5.44428M5.44432 8.76699H5.44428M5.44428 8.76699H5.44424M5.44428 8.76699H5.44424M5.44424 8.76699H5.4442M5.44424 8.76699H5.4442M5.4442 8.76699H5.44417M5.4442 8.76699H5.44417M5.44417 8.76699H5.44413M5.44417 8.76699H5.44413M5.44413 8.76699H5.44409M5.44413 8.76699H5.44409M5.44409 8.76699H5.44405M5.44409 8.76699H5.44405M5.44405 8.76699H5.44401M5.44405 8.76699H5.44401M5.44401 8.76699H5.44397M5.44401 8.76699H5.44397M5.44397 8.76699H5.44393M5.44397 8.76699H5.44393M5.44393 8.76699H5.44389M5.44393 8.76699H5.44389M5.44389 8.76699H5.44385M5.44389 8.76699H5.44385M5.44385 8.76699H5.44382M5.44385 8.76699H5.44382M5.44382 8.76699H5.44378M5.44382 8.76699H5.44378M5.44378 8.76699H5.44374M5.44378 8.76699H5.44374M5.44374 8.76699H5.4437M5.44374 8.76699H5.4437M5.4437 8.76699H5.44366M5.4437 8.76699H5.44366M5.44366 8.76699H5.44362M5.44366 8.76699H5.44362M5.44362 8.76699H5.44358M5.44362 8.76699H5.44358M5.44358 8.76699H5.44355M5.44358 8.76699H5.44355M5.44355 8.76699H5.44351M5.44355 8.76699H5.44351M5.44351 8.76699H5.44347M5.44351 8.76699H5.44347M5.44347 8.76699H5.44343M5.44347 8.76699H5.44343M5.44343 8.76699H5.44339M5.44343 8.76699H5.44339M5.44339 8.76699H5.44336M5.44339 8.76699H5.44336M5.44336 8.76699H5.44332M5.44336 8.76699H5.44332M5.44332 8.76699H5.44328M5.44332 8.76699H5.44328M5.44328 8.76699H5.44324M5.44328 8.76699H5.44324M5.44324 8.76699H5.44321M5.44324 8.76699H5.44321M5.44321 8.76699H5.44317M5.44321 8.76699H5.44317M5.44317 8.76699H5.44313M5.44317 8.76699H5.44313M5.44313 8.76699H5.44309M5.44313 8.76699H5.44309M5.44309 8.76699H5.44306M5.44309 8.76699H5.44306M5.44306 8.76699H5.44302M5.44306 8.76699H5.44302M5.44302 8.76699H5.44298M5.44302 8.76699H5.44298M5.44298 8.76699H5.44294M5.44298 8.76699H5.44294M5.44294 8.76699H5.44291M5.44294 8.76699H5.44291M5.44291 8.76699H5.44287M5.44291 8.76699H5.44287M5.44287 8.76699H5.44283M5.44287 8.76699H5.44283M5.44283 8.76699H5.4428M5.44283 8.76699H5.4428M5.4428 8.76699H5.44276M5.4428 8.76699H5.44276M5.44276 8.76699H5.44272M5.44276 8.76699H5.44272M5.44272 8.76699H5.44269M5.44272 8.76699H5.44269M5.44269 8.76699H5.44265M5.44269 8.76699H5.44265M5.44265 8.76699H5.44261M5.44265 8.76699H5.44261M5.44261 8.76699H5.44258M5.44261 8.76699H5.44258M5.44258 8.76699H5.44254M5.44258 8.76699H5.44254M5.44254 8.76699H5.4425M5.44254 8.76699H5.4425M5.4425 8.76699H5.44247M5.4425 8.76699H5.44247M5.44247 8.76699H5.44243M5.44247 8.76699H5.44243M5.44243 8.76699H5.4424M5.44243 8.76699H5.4424M5.4424 8.76699H5.44236M5.4424 8.76699H5.44236M5.44236 8.76699H5.44233M5.44236 8.76699H5.44233M5.44233 8.76699H5.44229M5.44233 8.76699H5.44229M5.44229 8.76699H5.44225M5.44229 8.76699H5.44225M5.44225 8.76699H5.44222M5.44225 8.76699H5.44222M5.44222 8.76699H5.44218M5.44222 8.76699H5.44218M5.44218 8.76699H5.44215M5.44218 8.76699H5.44215M5.44215 8.76699H5.44211M5.44215 8.76699H5.44211M5.44211 8.76699H5.44208M5.44211 8.76699H5.44208M5.44208 8.76699H5.44204M5.44208 8.76699H5.44204M5.44204 8.76699H5.44201M5.44204 8.76699H5.44201M5.44201 8.76699H5.44197M5.44201 8.76699H5.44197M5.44197 8.76699H5.44194M5.44197 8.76699H5.44194M5.44194 8.76699H5.4419M5.44194 8.76699H5.4419M5.4419 8.76699H5.44187M5.4419 8.76699H5.44187M5.44187 8.76699H5.44183M5.44187 8.76699H5.44183M5.44183 8.76699H5.4418M5.44183 8.76699H5.4418M5.4418 8.76699H5.44176M5.4418 8.76699H5.44176M5.44176 8.76699H5.44173M5.44176 8.76699H5.44173M5.44173 8.76699H5.4417M5.44173 8.76699H5.4417M5.4417 8.76699H5.44166M5.4417 8.76699H5.44166M5.44166 8.76699H5.44163M5.44166 8.76699H5.44163M5.44163 8.76699H5.44159M5.44163 8.76699H5.44159M5.44159 8.76699H5.44156M5.44159 8.76699H5.44156M5.44156 8.76699H5.44153M5.44156 8.76699H5.44153M5.44153 8.76699H5.44149M5.44153 8.76699H5.44149M5.44149 8.76699H5.44146M5.44149 8.76699H5.44146M5.44146 8.76699H5.44142M5.44146 8.76699H5.44142M5.44142 8.76699H5.44139M5.44142 8.76699H5.44139M5.44139 8.76699H5.44136M5.44139 8.76699H5.44136M5.44136 8.76699H5.44132M5.44136 8.76699H5.44132M5.44132 8.76699H5.44129M5.44132 8.76699H5.44129M5.44129 8.76699H5.44126M5.44129 8.76699H5.44126M5.44126 8.76699H5.44123M5.44126 8.76699H5.44123M5.44123 8.76699H5.44119M5.44123 8.76699H5.44119M5.44119 8.76699H5.44116M5.44119 8.76699H5.44116M5.44116 8.76699H5.44113M5.44116 8.76699H5.44113M5.44113 8.76699H5.44109M5.44113 8.76699H5.44109M5.44109 8.76699H5.44106M5.44109 8.76699H5.44106M5.44106 8.76699H5.44103M5.44106 8.76699H5.44103M5.44103 8.76699H5.441M5.44103 8.76699H5.441M5.441 8.76699H5.44097M5.441 8.76699H5.44097M5.44097 8.76699H5.44093M5.44097 8.76699H5.44093M5.44093 8.76699H5.4409M5.44093 8.76699H5.4409M5.4409 8.76699H5.44087M5.4409 8.76699H5.44087M5.44087 8.76699H5.44084M5.44087 8.76699H5.44084M5.44084 8.76699H5.44081M5.44084 8.76699H5.44081M5.44081 8.76699H5.44077M5.44081 8.76699H5.44077M5.44077 8.76699H5.44074M5.44077 8.76699H5.44074M5.44074 8.76699H5.44071M5.44074 8.76699H5.44071M5.44071 8.76699H5.44068M5.44071 8.76699H5.44068M5.44068 8.76699H5.44065M5.44068 8.76699H5.44065M5.44065 8.76699H5.44062M5.44065 8.76699H5.44062M5.44062 8.76699H5.44059M5.44062 8.76699H5.44059M5.44059 8.76699H5.44056M5.44059 8.76699H5.44056M5.44056 8.76699H5.44052M5.44056 8.76699H5.44052M5.44052 8.76699H5.44049M5.44052 8.76699H5.44049M5.44049 8.76699H5.44046M5.44049 8.76699H5.44046M5.44046 8.76699H5.44043M5.44046 8.76699H5.44043M5.44043 8.76699H5.4404M5.44043 8.76699H5.4404M5.4404 8.76699H5.44037M5.4404 8.76699H5.44037M5.44037 8.76699H5.44034M5.44037 8.76699H5.44034M5.44034 8.76699H5.44031M5.44034 8.76699H5.44031M5.44031 8.76699H5.44028M5.44031 8.76699H5.44028M5.44028 8.76699H5.44025M5.44028 8.76699H5.44025M5.44025 8.76699H5.44022M5.44025 8.76699H5.44022M5.44022 8.76699H5.44019M5.44022 8.76699H5.44019M5.44019 8.76699H5.44016M5.44019 8.76699H5.44016M5.44016 8.76699H5.44013M5.44016 8.76699H5.44013M5.44013 8.76699H5.4401M5.44013 8.76699H5.4401M5.4401 8.76699H5.44008M5.4401 8.76699H5.44008M5.44008 8.76699H5.44005M5.44008 8.76699H5.44005M5.44005 8.76699H5.44002M5.44005 8.76699H5.44002M5.44002 8.76699H5.43999M5.44002 8.76699H5.43999M5.43999 8.76699H5.43996M5.43999 8.76699H5.43996M5.43996 8.76699H5.43993M5.43996 8.76699H5.43993M5.43993 8.76699H5.4399M5.43993 8.76699H5.4399M5.4399 8.76699H5.43987M5.4399 8.76699H5.43987M5.43987 8.76699H5.43984M5.43987 8.76699H5.43984M5.43984 8.76699H5.43982M5.43984 8.76699H5.43982M5.43982 8.76699H5.43979M5.43982 8.76699H5.43979M5.43979 8.76699H5.43976M5.43979 8.76699H5.43976M5.43976 8.76699H5.43973M5.43976 8.76699H5.43973M5.43973 8.76699H5.4397M5.43973 8.76699H5.4397M5.4397 8.76699H5.43967M5.4397 8.76699H5.43967M5.43967 8.76699H5.43964M5.43967 8.76699H5.43964M5.43964 8.76699H5.43961M5.43964 8.76699H5.43961M5.43961 8.76699H5.43959M5.43961 8.76699H5.43959M5.43959 8.76699H5.43956M5.43959 8.76699H5.43956M5.43956 8.76699H5.43953M5.43956 8.76699H5.43953M5.43953 8.76699H5.4395M5.43953 8.76699H5.4395M5.4395 8.76699H5.43947M5.4395 8.76699H5.43947M5.43947 8.76699H5.43944M5.43947 8.76699H5.43944M5.43944 8.76699H5.43941M5.43944 8.76699H5.43941M5.43941 8.76699H5.43938M5.43941 8.76699H5.43938M5.43938 8.76699H5.43936M5.43938 8.76699H5.43936M5.43936 8.76699H5.43933M5.43936 8.76699H5.43933M5.43933 8.76699H5.4393M5.43933 8.76699H5.4393M5.4393 8.76699H5.43927M5.4393 8.76699H5.43927M5.43927 8.76699H5.43924M5.43927 8.76699H5.43924M5.43924 8.76699H5.43921M5.43924 8.76699H5.43921M5.43921 8.76699H5.43918M5.43921 8.76699H5.43918M5.43918 8.76699H5.43915M5.43918 8.76699H5.43915M5.43915 8.76699H5.43913M5.43915 8.76699H5.43913M5.43913 8.76699H5.4391M5.43913 8.76699H5.4391M5.4391 8.76699H5.43907M5.4391 8.76699H5.43907M5.43907 8.76699H5.43904M5.43907 8.76699H5.43904M5.43904 8.76699H5.43901M5.43904 8.76699H5.43901M5.43901 8.76699H5.43898M5.43901 8.76699H5.43898M5.43898 8.76699H5.43895M5.43898 8.76699H5.43895M5.43895 8.76699H5.43893M5.43895 8.76699H5.43893M5.43893 8.76699H5.4389M5.43893 8.76699H5.4389M5.4389 8.76699H5.43887M5.4389 8.76699H5.43887M5.43887 8.76699H5.43884M5.43887 8.76699H5.43884M5.43884 8.76699H5.43881M5.43884 8.76699H5.43881M5.43881 8.76699H5.43878M5.43881 8.76699H5.43878M5.43878 8.76699H5.43875M5.43878 8.76699H5.43875M5.43875 8.76699H5.43872M5.43875 8.76699H5.43872M5.43872 8.76699H5.4387M5.43872 8.76699H5.4387M5.4387 8.76699H5.43867M5.4387 8.76699H5.43867M5.43867 8.76699H5.43864M5.43867 8.76699H5.43864M5.43864 8.76699H5.43861M5.43864 8.76699H5.43861M5.43861 8.76699H5.43858M5.43861 8.76699H5.43858M5.43858 8.76699H5.43855M5.43858 8.76699H5.43855M5.43855 8.76699H5.43853M5.43855 8.76699H5.43853M5.43853 8.76699H5.4385M5.43853 8.76699H5.4385M5.4385 8.76699H5.43847M5.4385 8.76699H5.43847M5.43847 8.76699H5.43844M5.43847 8.76699H5.43844M5.43844 8.76699H5.43841M5.43844 8.76699H5.43841M5.43841 8.76699H5.43838M5.43841 8.76699H5.43838M5.43838 8.76699H5.43835M5.43838 8.76699H5.43835M5.43835 8.76699H5.43833M5.43835 8.76699H5.43833M5.43833 8.76699H5.4383M5.43833 8.76699H5.4383M5.4383 8.76699H5.43827M5.4383 8.76699H5.43827M5.43827 8.76699H5.43824M5.43827 8.76699H5.43824M5.43824 8.76699H5.43821M5.43824 8.76699H5.43821M5.43821 8.76699H5.43818M5.43821 8.76699H5.43818M5.43818 8.76699H5.43816M5.43818 8.76699H5.43816M5.43816 8.76699H5.43813M5.43816 8.76699H5.43813M5.43813 8.76699H5.4381M5.43813 8.76699H5.4381M5.4381 8.76699H5.43807M5.4381 8.76699H5.43807M5.43807 8.76699H5.43804M5.43807 8.76699H5.43804M5.43804 8.76699H5.43801M5.43804 8.76699H5.43801M5.43801 8.76699H5.43799M5.43801 8.76699H5.43799M5.43799 8.76699H5.43796M5.43799 8.76699H5.43796M5.43796 8.76699H5.43793M5.43796 8.76699H5.43793M5.43793 8.76699H5.4379M5.43793 8.76699H5.4379M5.4379 8.76699H5.43787M5.4379 8.76699H5.43787M5.43787 8.76699H5.43785M5.43787 8.76699H5.43785M5.43785 8.76699H5.43782M5.43785 8.76699H5.43782M5.43782 8.76699H5.43779M5.43782 8.76699H5.43779M5.43779 8.76699H5.43776M5.43779 8.76699H5.43776M5.43776 8.76699H5.43773M5.43776 8.76699H5.43773M5.43773 8.76699H5.4377M5.43773 8.76699H5.4377M5.4377 8.76699H5.43768M5.4377 8.76699H5.43768M5.43768 8.76699H5.43765M5.43768 8.76699H5.43765M5.43765 8.76699H5.43762M5.43765 8.76699H5.43762M5.43762 8.76699H5.43759M5.43762 8.76699H5.43759M5.43759 8.76699H5.43756M5.43759 8.76699H5.43756M5.43756 8.76699H5.43754M5.43756 8.76699H5.43754M5.43754 8.76699H5.43751M5.43754 8.76699H5.43751M5.43751 8.76699H5.43748M5.43751 8.76699H5.43748M5.43748 8.76699H5.43745M5.43748 8.76699H5.43745M5.43745 8.76699H5.43742M5.43745 8.76699H5.43742M5.43742 8.76699H5.4374M5.43742 8.76699H5.4374M5.4374 8.76699H5.43737M5.4374 8.76699H5.43737M5.43737 8.76699H5.43734M5.43737 8.76699H5.43734M5.43734 8.76699H5.43731M5.43734 8.76699H5.43731M5.43731 8.76699H5.43729M5.43731 8.76699H5.43729M5.43729 8.76699H5.43726M5.43729 8.76699H5.43726M5.43726 8.76699H5.43723M5.43726 8.76699H5.43723M5.43723 8.76699H5.4372M5.43723 8.76699H5.4372M5.4372 8.76699H5.43717M5.4372 8.76699H5.43717M5.43717 8.76699H5.43715M5.43717 8.76699H5.43715M5.43715 8.76699H5.43712M5.43715 8.76699H5.43712M5.43712 8.76699H5.43709M5.43712 8.76699H5.43709M5.43709 8.76699H5.43706M5.43709 8.76699H5.43706M5.43706 8.76699H5.43704M5.43706 8.76699H5.43704M5.43704 8.76699H5.43701M5.43704 8.76699H5.43701M5.43701 8.76699H5.43698M5.43701 8.76699H5.43698M5.43698 8.76699H5.43695M5.43698 8.76699H5.43695M5.43695 8.76699H5.43693M5.43695 8.76699H5.43693M5.43693 8.76699H5.4369M5.43693 8.76699H5.4369M5.4369 8.76699H5.43687M5.4369 8.76699H5.43687M5.43687 8.76699H5.43684M5.43687 8.76699H5.43684M5.43684 8.76699H5.43682M5.43684 8.76699H5.43682M5.43682 8.76699H5.43679M5.43682 8.76699H5.43679M5.43679 8.76699H5.43676M5.43679 8.76699H5.43676M5.43676 8.76699H5.43673M5.43676 8.76699H5.43673M5.43673 8.76699H5.43671M5.43673 8.76699H5.43671M5.43671 8.76699H5.43668M5.43671 8.76699H5.43668M5.43668 8.76699H5.43665M5.43668 8.76699H5.43665M5.43665 8.76699H5.43663M5.43665 8.76699H5.43663M5.43663 8.76699H5.4366M5.43663 8.76699H5.4366M5.4366 8.76699H5.43657M5.4366 8.76699H5.43657M5.43657 8.76699H5.43654M5.43657 8.76699H5.43654M5.43654 8.76699H5.43652M5.43654 8.76699H5.43652M5.43652 8.76699H5.43649M5.43652 8.76699H5.43649M5.43649 8.76699H5.43646M5.43649 8.76699H5.43646M5.43646 8.76699H5.43643M5.43646 8.76699H5.43643M5.43643 8.76699H5.43641M5.43643 8.76699H5.43641M5.43641 8.76699H5.43638M5.43641 8.76699H5.43638M5.43638 8.76699H5.43635M5.43638 8.76699H5.43635M5.43635 8.76699H5.43633M5.43635 8.76699H5.43633M5.43633 8.76699H5.4363M5.43633 8.76699H5.4363M5.4363 8.76699H5.43627M5.4363 8.76699H5.43627M5.43627 8.76699H5.43625M5.43627 8.76699H5.43625M5.43625 8.76699H5.43622M5.43625 8.76699H5.43622M5.43622 8.76699H5.43619M5.43622 8.76699H5.43619M5.43619 8.76699H5.43617M5.43619 8.76699H5.43617M5.43617 8.76699H5.43614M5.43617 8.76699H5.43614M5.43614 8.76699H5.43611M5.43614 8.76699H5.43611M5.43611 8.76699H5.43609M5.43611 8.76699H5.43609M5.43609 8.76699H5.43606M5.43609 8.76699H5.43606M5.43606 8.76699H5.43603M5.43606 8.76699H5.43603M5.43603 8.76699H5.43601M5.43603 8.76699H5.43601M5.43601 8.76699H5.43598M5.43601 8.76699H5.43598M5.43598 8.76699H5.43595M5.43598 8.76699H5.43595M5.43595 8.76699H5.43593M5.43595 8.76699H5.43593M5.43593 8.76699H5.4359M5.43593 8.76699H5.4359M5.4359 8.76699H5.43587M5.4359 8.76699H5.43587M5.43587 8.76699H5.43585M5.43587 8.76699H5.43585M5.43585 8.76699H5.43582M5.43585 8.76699H5.43582M5.43582 8.76699H5.43579M5.43582 8.76699H5.43579M5.43579 8.76699H5.43577M5.43579 8.76699H5.43577M5.43577 8.76699H5.43574M5.43577 8.76699H5.43574M5.43574 8.76699H5.43572M5.43574 8.76699H5.43572M5.43572 8.76699H5.43569M5.43572 8.76699H5.43569M5.43569 8.76699H5.43566M5.43569 8.76699H5.43566M5.43566 8.76699H5.43564M5.43566 8.76699H5.43564M5.43564 8.76699H5.43561M5.43564 8.76699H5.43561M5.43561 8.76699H5.43559M5.43561 8.76699H5.43559M5.43559 8.76699H5.43556M5.43559 8.76699H5.43556M5.43556 8.76699H5.43553M5.43556 8.76699H5.43553M5.43553 8.76699H5.43551M5.43553 8.76699H5.43551M5.43551 8.76699H5.43548M5.43551 8.76699H5.43548M5.43548 8.76699H5.43546M5.43548 8.76699H5.43546M5.43546 8.76699H5.43543M5.43546 8.76699H5.43543M5.43543 8.76699H5.4354M5.43543 8.76699H5.4354M5.4354 8.76699H5.43538M5.4354 8.76699H5.43538M5.43538 8.76699H5.43535M5.43538 8.76699H5.43535M5.43535 8.76699H5.43533M5.43535 8.76699H5.43533M5.43533 8.76699H5.4353M5.43533 8.76699H5.4353M5.4353 8.76699H5.43528M5.4353 8.76699H5.43528M5.43528 8.76699H5.43525M5.43528 8.76699H5.43525M5.43525 8.76699H5.43522M5.43525 8.76699H5.43522M5.43522 8.76699H5.4352M5.43522 8.76699H5.4352M5.4352 8.76699H5.43517M5.4352 8.76699H5.43517M5.43517 8.76699H5.43515M5.43517 8.76699H5.43515M5.43515 8.76699H5.43512M5.43515 8.76699H5.43512M5.43512 8.76699H5.4351M5.43512 8.76699H5.4351M5.4351 8.76699H5.43507M5.4351 8.76699H5.43507M5.43507 8.76699H5.43505M5.43507 8.76699H5.43505M5.43505 8.76699H5.43502M5.43505 8.76699H5.43502M5.43502 8.76699H5.435M5.43502 8.76699H5.435M5.435 8.76699H5.43497M5.435 8.76699H5.43497M5.43497 8.76699H5.43495M5.43497 8.76699H5.43495M5.43495 8.76699H5.43492M5.43495 8.76699H5.43492M5.43492 8.76699H5.4349M5.43492 8.76699H5.4349M5.4349 8.76699H5.43487M5.4349 8.76699H5.43487M5.43487 8.76699H5.43484M5.43487 8.76699H5.43484M5.43484 8.76699H5.43482M5.43484 8.76699H5.43482M5.43482 8.76699H5.4348M5.43482 8.76699H5.4348M5.4348 8.76699H5.43477M5.4348 8.76699H5.43477M5.43477 8.76699H5.43475M5.43477 8.76699H5.43475M5.43475 8.76699H5.43472M5.43475 8.76699H5.43472M5.43472 8.76699H5.4347M5.43472 8.76699H5.4347M5.4347 8.76699H5.43467M5.4347 8.76699H5.43467M5.43467 8.76699H5.43465M5.43467 8.76699H5.43465M5.43465 8.76699H5.43462M5.43465 8.76699H5.43462M5.43462 8.76699H5.4346M5.43462 8.76699H5.4346M5.4346 8.76699H5.43457M5.4346 8.76699H5.43457M5.43457 8.76699H5.43455M5.43457 8.76699H5.43455M5.43455 8.76699H5.43452M5.43455 8.76699H5.43452M5.43452 8.76699H5.4345M5.43452 8.76699H5.4345M5.4345 8.76699H5.43448M5.4345 8.76699H5.43448M5.43448 8.76699H5.43445M5.43448 8.76699H5.43445M5.43445 8.76699H5.43443M5.43445 8.76699H5.43443M5.43443 8.76699H5.4344M5.43443 8.76699H5.4344M5.4344 8.76699H5.43438M5.4344 8.76699H5.43438M5.43438 8.76699H5.43435M5.43438 8.76699H5.43435M5.43435 8.76699H5.43433M5.43435 8.76699H5.43433M5.43433 8.76699H5.43431M5.43433 8.76699H5.43431M5.43431 8.76699H5.43428M5.43431 8.76699H5.43428M5.43428 8.76699H5.43426M5.43428 8.76699H5.43426M5.43426 8.76699H5.43424M5.43426 8.76699H5.43424M5.43424 8.76699H5.43421M5.43424 8.76699H5.43421M5.43421 8.76699H5.43419M5.43421 8.76699H5.43419M5.43419 8.76699H5.43416M5.43419 8.76699H5.43416M5.43416 8.76699H5.43414M5.43416 8.76699H5.43414M5.43414 8.76699H5.43412M5.43414 8.76699H5.43412M5.43412 8.76699H5.43409M5.43412 8.76699H5.43409M5.43409 8.76699H5.43407M5.43409 8.76699H5.43407M5.43407 8.76699H5.43405M5.43407 8.76699H5.43405M5.43405 8.76699H5.43402M5.43405 8.76699H5.43402M5.43402 8.76699H5.434M5.43402 8.76699H5.434M5.434 8.76699H5.43398M5.434 8.76699H5.43398M5.43398 8.76699H5.43395M5.43398 8.76699H5.43395M5.43395 8.76699H5.43393M5.43395 8.76699H5.43393M5.43393 8.76699H5.43391M5.43393 8.76699H5.43391M5.43391 8.76699H5.43388M5.43391 8.76699H5.43388M5.43388 8.76699H5.43386M5.43388 8.76699H5.43386M5.43386 8.76699H5.43384M5.43386 8.76699H5.43384M5.43384 8.76699H5.43381M5.43384 8.76699H5.43381M5.43381 8.76699H5.43379M5.43381 8.76699H5.43379M5.43379 8.76699H5.43377M5.43379 8.76699H5.43377M5.43377 8.76699H5.43374M5.43377 8.76699H5.43374M5.43374 8.76699H5.43372M5.43374 8.76699H5.43372M5.43372 8.76699H5.4337M5.43372 8.76699H5.4337M5.4337 8.76699H5.43368M5.4337 8.76699H5.43368M5.43368 8.76699H5.43365M5.43368 8.76699H5.43365M5.43365 8.76699H5.43363M5.43365 8.76699H5.43363M5.43363 8.76699H5.43361M5.43363 8.76699H5.43361M5.43361 8.76699H5.43359M5.43361 8.76699H5.43359M5.43359 8.76699H5.43356M5.43359 8.76699H5.43356M5.43356 8.76699H5.43354M5.43356 8.76699H5.43354M5.43354 8.76699H5.43352M5.43354 8.76699H5.43352M5.43352 8.76699H5.4335M5.43352 8.76699H5.4335M5.4335 8.76699H5.43347M5.4335 8.76699H5.43347M5.43347 8.76699H5.43345M5.43347 8.76699H5.43345M5.43345 8.76699H5.43343M5.43345 8.76699H5.43343M5.43343 8.76699H5.43341M5.43343 8.76699H5.43341M5.43341 8.76699H5.43339M5.43341 8.76699H5.43339M5.43339 8.76699H5.43336M5.43339 8.76699H5.43336M5.43336 8.76699H5.43334M5.43336 8.76699H5.43334M5.43334 8.76699H5.43332M5.43334 8.76699H5.43332M5.43332 8.76699H5.4333M5.43332 8.76699H5.4333M5.4333 8.76699H5.43328M5.4333 8.76699H5.43328M5.43328 8.76699H5.43326M5.43328 8.76699H5.43326M5.43326 8.76699H5.43323M5.43326 8.76699H5.43323M5.43323 8.76699H5.43321M5.43323 8.76699H5.43321M5.43321 8.76699H5.43319M5.43321 8.76699H5.43319M5.43319 8.76699H5.43317M5.43319 8.76699H5.43317M5.43317 8.76699H5.43315M5.43317 8.76699H5.43315M5.43315 8.76699H5.43313M5.43315 8.76699H5.43313M5.43313 8.76699H5.4331M5.43313 8.76699H5.4331M5.4331 8.76699H5.43308M5.4331 8.76699H5.43308M5.43308 8.76699H5.43306M5.43308 8.76699H5.43306M5.43306 8.76699H5.43304M5.43306 8.76699H5.43304M5.43304 8.76699H5.43302M5.43304 8.76699H5.43302M5.43302 8.76699H5.433M5.43302 8.76699H5.433M5.433 8.76699H5.43298M5.433 8.76699H5.43298M5.43298 8.76699H5.43296M5.43298 8.76699H5.43296M5.43296 8.76699H5.43294M5.43296 8.76699H5.43294M5.43294 8.76699H5.43292M5.43294 8.76699H5.43292M5.43292 8.76699H5.4329M5.43292 8.76699H5.4329M5.4329 8.76699H5.43288M5.4329 8.76699H5.43288M5.43288 8.76699H5.43285M5.43288 8.76699H5.43285M5.43285 8.76699H5.43283M5.43285 8.76699H5.43283M5.43283 8.76699H5.43281M5.43283 8.76699H5.43281M5.43281 8.76699H5.43279M5.43281 8.76699H5.43279M5.43279 8.76699H5.43277M5.43279 8.76699H5.43277M5.43277 8.76699H5.43275M5.43277 8.76699H5.43275M5.43275 8.76699H5.43273M5.43275 8.76699H5.43273M5.43273 8.76699H5.43271M5.43273 8.76699H5.43271M5.43271 8.76699H5.43269M5.43271 8.76699H5.43269M5.43269 8.76699H5.43267M5.43269 8.76699H5.43267M5.43267 8.76699H5.43265M5.43267 8.76699H5.43265M5.43265 8.76699H5.43263M5.43265 8.76699H5.43263M5.43263 8.76699H5.43261M5.43263 8.76699H5.43261M5.43261 8.76699H5.43259M5.43261 8.76699H5.43259M5.43259 8.76699H5.43257M5.43259 8.76699H5.43257M5.43257 8.76699H5.43255M5.43257 8.76699H5.43255M5.43255 8.76699H5.43253M5.43255 8.76699H5.43253M5.43253 8.76699H5.43251M5.43253 8.76699H5.43251M5.43251 8.76699H5.43249M5.43251 8.76699H5.43249M5.43249 8.76699H5.43248M5.43249 8.76699H5.43248M5.43248 8.76699H5.43246M5.43248 8.76699H5.43246M5.43246 8.76699H5.43244M5.43246 8.76699H5.43244M5.43244 8.76699H5.43242M5.43244 8.76699H5.43242M5.43242 8.76699H5.4324M5.43242 8.76699H5.4324M5.4324 8.76699H5.43238M5.4324 8.76699H5.43238M5.43238 8.76699H5.43236M5.43238 8.76699H5.43236M5.43236 8.76699H5.43234M5.43236 8.76699H5.43234M5.43234 8.76699H5.43232M5.43234 8.76699H5.43232M5.43232 8.76699H5.4323M5.43232 8.76699H5.4323M5.4323 8.76699H5.43228M5.4323 8.76699H5.43228M5.43228 8.76699H5.43227M5.43228 8.76699H5.43227M5.43227 8.76699H5.43225M5.43227 8.76699H5.43225M5.43225 8.76699H5.43223M5.43225 8.76699H5.43223M5.43223 8.76699H5.43221M5.43223 8.76699H5.43221M5.43221 8.76699H5.43219M5.43221 8.76699H5.43219M5.43219 8.76699H5.43217M5.43219 8.76699H5.43217M5.43217 8.76699H5.43216M5.43217 8.76699H5.43216M5.43216 8.76699H5.43214M5.43216 8.76699H5.43214M5.43214 8.76699H5.43212M5.43214 8.76699H5.43212M5.43212 8.76699H5.4321M5.43212 8.76699H5.4321M5.4321 8.76699H5.43208M5.4321 8.76699H5.43208M5.43208 8.76699H5.43207M5.43208 8.76699H5.43207M5.43207 8.76699H5.43205M5.43207 8.76699H5.43205M5.43205 8.76699H5.43203M5.43205 8.76699H5.43203M5.43203 8.76699H5.43201M5.43203 8.76699H5.43201M5.43201 8.76699H5.43199M5.43201 8.76699H5.43199M5.43199 8.76699H5.43198M5.43199 8.76699H5.43198M5.43198 8.76699H5.43196M5.43198 8.76699H5.43196M5.43196 8.76699H5.43194M5.43196 8.76699H5.43194M5.43194 8.76699H5.43192M5.43194 8.76699H5.43192M5.43192 8.76699H5.43191M5.43192 8.76699H5.43191M5.43191 8.76699H5.43189M5.43191 8.76699H5.43189M5.43189 8.76699H5.43187M5.43189 8.76699H5.43187M5.43187 8.76699H5.43186M5.43187 8.76699H5.43186M5.43186 8.76699H5.43184M5.43186 8.76699H5.43184M5.43184 8.76699H5.43182M5.43184 8.76699H5.43182M5.43182 8.76699H5.43181M5.43182 8.76699H5.43181M5.43181 8.76699H5.43179M5.43181 8.76699H5.43179M5.43179 8.76699H5.43177M5.43179 8.76699H5.43177M5.43177 8.76699H5.43175M5.43177 8.76699H5.43175M5.43175 8.76699H5.43174M5.43175 8.76699H5.43174M5.43174 8.76699H5.43172M5.43174 8.76699H5.43172M5.43172 8.76699H5.43171M5.43172 8.76699H5.43171M5.43171 8.76699H5.43169M5.43171 8.76699H5.43169M5.43169 8.76699H5.43167M5.43169 8.76699H5.43167M5.43167 8.76699H5.43166M5.43167 8.76699H5.43166M5.43166 8.76699H5.43164M5.43166 8.76699H5.43164M5.43164 8.76699H5.43162M5.43164 8.76699H5.43162M5.43162 8.76699H5.43161M5.43162 8.76699H5.43161M5.43161 8.76699H5.43159M5.43161 8.76699H5.43159M5.43159 8.76699H5.43158M5.43159 8.76699H5.43158M5.43158 8.76699H5.43156M5.43158 8.76699H5.43156M5.43156 8.76699H5.43155M5.43156 8.76699H5.43155M5.43155 8.76699H5.43153M5.43155 8.76699H5.43153M5.43153 8.76699H5.43151M5.43153 8.76699H5.43151M5.43151 8.76699H5.4315M5.43151 8.76699H5.4315M5.4315 8.76699H5.43148M5.4315 8.76699H5.43148M5.43148 8.76699H5.43147M5.43148 8.76699H5.43147M5.43147 8.76699H5.43145M5.43147 8.76699H5.43145M5.43145 8.76699H5.43144M5.43145 8.76699H5.43144M5.43144 8.76699H5.43142M5.43144 8.76699H5.43142M5.43142 8.76699H5.43141M5.43142 8.76699H5.43141M5.43141 8.76699H5.43139M5.43141 8.76699H5.43139M5.43139 8.76699H5.43138M5.43139 8.76699H5.43138M5.43138 8.76699H5.43136M5.43138 8.76699H5.43136M5.43136 8.76699H5.43135M5.43136 8.76699H5.43135M5.43135 8.76699H5.43133M5.43135 8.76699H5.43133M5.43133 8.76699H5.43132M5.43133 8.76699H5.43132M5.43132 8.76699H5.4313M5.43132 8.76699H5.4313M5.4313 8.76699H5.43129M5.4313 8.76699H5.43129M5.43129 8.76699H5.43128M5.43129 8.76699H5.43128M5.43128 8.76699H5.43126M5.43128 8.76699H5.43126M5.43126 8.76699H5.43125M5.43126 8.76699H5.43125M5.43125 8.76699H5.43123M5.43125 8.76699H5.43123M5.43123 8.76699H5.43122M5.43123 8.76699H5.43122M5.43122 8.76699H5.43121M5.43122 8.76699H5.43121M5.43121 8.76699H5.43119M5.43121 8.76699H5.43119M5.43119 8.76699H5.43118M5.43119 8.76699H5.43118M5.43118 8.76699H5.43116M5.43118 8.76699H5.43116M5.43116 8.76699H5.43115M5.43116 8.76699H5.43115M5.43115 8.76699H5.43114M5.43115 8.76699H5.43114M5.43114 8.76699H5.43112M5.43114 8.76699H5.43112M5.43112 8.76699H5.43111M5.43112 8.76699H5.43111M5.43111 8.76699H5.4311M5.43111 8.76699H5.4311M5.4311 8.76699H5.43108M5.4311 8.76699H5.43108M5.43108 8.76699H5.43107M5.43108 8.76699H5.43107M5.43107 8.76699H5.43106M5.43107 8.76699H5.43106M5.43106 8.76699H5.43105M5.43106 8.76699H5.43105M5.43105 8.76699H5.43103M5.43105 8.76699H5.43103M5.43103 8.76699H5.43102M5.43103 8.76699H5.43102M5.43102 8.76699H5.43101M5.43102 8.76699H5.43101M5.43101 8.76699H5.43099M5.43101 8.76699H5.43099M5.43099 8.76699H5.43098M5.43099 8.76699H5.43098M5.43098 8.76699H5.43097M5.43098 8.76699H5.43097M5.43097 8.76699H5.43096M5.43097 8.76699H5.43096M5.43096 8.76699H5.43095M5.43096 8.76699H5.43095M5.43095 8.76699H5.43093M5.43095 8.76699H5.43093M5.43093 8.76699H5.43092M5.43093 8.76699H5.43092M5.43092 8.76699H5.43091M5.43092 8.76699H5.43091M5.43091 8.76699H5.4309M5.43091 8.76699H5.4309M5.4309 8.76699H5.43089M5.4309 8.76699H5.43089M5.43089 8.76699H5.43087M5.43089 8.76699H5.43087M5.43087 8.76699H5.43086M5.43087 8.76699H5.43086M5.43086 8.76699H5.43085M5.43086 8.76699H5.43085M5.43085 8.76699H5.43084M5.43085 8.76699H5.43084M5.43084 8.76699H5.43083M5.43084 8.76699H5.43083M5.43083 8.76699H5.43082M5.43083 8.76699H5.43082M5.43082 8.76699H5.43081M5.43082 8.76699H5.43081M5.43081 8.76699H5.43079M5.43081 8.76699H5.43079M5.43079 8.76699H5.43078M5.43079 8.76699H5.43078M5.43078 8.76699H5.43077M5.43078 8.76699H5.43077M5.43077 8.76699H5.43076M5.43077 8.76699H5.43076M5.43076 8.76699H5.43075M5.43076 8.76699H5.43075M5.43075 8.76699H5.43074M5.43075 8.76699H5.43074M5.43074 8.76699H5.43073M5.43074 8.76699H5.43073M5.43073 8.76699H5.43072M5.43073 8.76699H5.43072M5.43072 8.76699H5.43071M5.43072 8.76699H5.43071M5.43071 8.76699H5.4307M5.43071 8.76699H5.4307M5.4307 8.76699H5.43069M5.4307 8.76699H5.43069M5.43069 8.76699H5.43068M5.43069 8.76699H5.43068M5.43068 8.76699H5.43067M5.43068 8.76699H5.43067M5.43067 8.76699H5.43066M5.43067 8.76699H5.43066M5.43066 8.76699H5.43065M5.43066 8.76699H5.43065M5.43065 8.76699H5.43064M5.43065 8.76699H5.43064M5.43064 8.76699H5.43063M5.43064 8.76699H5.43063M5.43063 8.76699H5.43062M5.43063 8.76699H5.43062M5.43062 8.76699H5.43061M5.43062 8.76699H5.43061M5.43061 8.76699H5.4306M5.43061 8.76699H5.4306M5.4306 8.76699H5.43059M5.4306 8.76699H5.43059M5.43059 8.76699H5.43058M5.43059 8.76699H5.43058M5.43058 8.76699H5.43057M5.43058 8.76699H5.43057M5.43057 8.76699H5.43056M5.43057 8.76699H5.43056M5.43056 8.76699H5.43056M5.43056 8.76699H5.43056M5.43056 8.76699H5.43055M5.43056 8.76699H5.43055M5.43055 8.76699H5.43054M5.43055 8.76699H5.43054M5.43054 8.76699H5.43053M5.43054 8.76699H5.43053M5.43053 8.76699H5.43052M5.43053 8.76699H5.43052M5.43052 8.76699H5.43051M5.43052 8.76699H5.43051M5.43051 8.76699H5.4305M5.43051 8.76699H5.4305M5.4305 8.76699H5.4305M5.4305 8.76699H5.4305M5.4305 8.76699H5.43049M5.4305 8.76699H5.43049M5.43049 8.76699H5.43048M5.43049 8.76699H5.43048M5.43048 8.76699H5.43047M5.43048 8.76699H5.43047M5.43047 8.76699H5.43046M5.43047 8.76699H5.43046M5.43046 8.76699H5.43046M5.43046 8.76699H5.43046M5.43046 8.76699H5.43045M5.43046 8.76699H5.43045M5.43045 8.76699H5.43044M5.43045 8.76699H5.43044M5.43044 8.76699H5.43043M5.43044 8.76699H5.43043M5.43043 8.76699H5.43043H5.43043ZM8.17351 10.1159L8.17361 10.116L8.17538 10.1123C8.23087 9.99574 8.24463 9.88255 8.21937 9.77508C8.19437 9.66876 8.13286 9.57503 8.04984 9.49301C7.91185 9.35669 7.70579 9.24425 7.47295 9.1515C8.3545 8.51929 8.93434 7.48493 8.93434 6.31678C8.93434 4.39373 7.36795 2.82734 5.4449 2.82734C3.52186 2.82734 1.95547 4.39373 1.95547 6.31678C1.95547 7.49583 2.54579 8.53613 3.44275 9.16847C1.52005 9.95937 0.167187 11.8423 0.167187 14.0447V17.0808C0.167187 17.6578 0.63801 18.1286 1.21493 18.1286H6.3243C6.49018 18.1286 6.61979 18.0642 6.707 17.9639C6.7929 17.865 6.83409 17.7357 6.83409 17.609C6.83409 17.4823 6.7929 17.3529 6.707 17.2541C6.61979 17.1538 6.49018 17.0894 6.3243 17.0894H1.21493C1.21496 17.0894 1.21495 17.0894 1.21492 17.0894C1.21463 17.0893 1.2124 17.0889 1.20963 17.0862C1.20685 17.0834 1.20647 17.0812 1.20642 17.0809C1.20642 17.0808 1.20641 17.0808 1.20641 17.0808V14.0447C1.20641 11.713 3.09399 9.81593 5.42053 9.80621C5.42057 9.80621 5.42061 9.80621 5.42065 9.80621L5.43999 9.80621H5.45442C6.15473 9.81108 6.84986 9.98498 7.4674 10.3227L7.46747 10.3227C7.71978 10.4604 8.03565 10.3687 8.17351 10.1159Z" fill="white" stroke="white" stroke-width="0.15"/>
<path id="Vector_3" d="M27.8346 16.9562L27.8377 16.9546V17.0759C27.8377 17.6529 27.3669 18.1237 26.7899 18.1237H21.6806H21.6799C21.5144 18.1223 21.385 18.0576 21.2979 17.9576C21.2121 17.859 21.1708 17.7303 21.1708 17.6041C21.1708 17.4779 21.2121 17.3491 21.2979 17.2505C21.385 17.1505 21.5144 17.0859 21.6799 17.0845L21.6806 17.0844L26.7899 17.0845C26.7897 17.0845 26.7921 17.0844 26.7952 17.0812C26.798 17.0785 26.7984 17.0762 26.7985 17.076C26.7985 17.0759 26.7985 17.0759 26.7985 17.0759V14.0398C26.7985 12.9052 26.3544 11.8385 25.5578 11.0419L25.5571 11.0413C24.2693 9.71963 22.1398 9.42005 20.5331 10.3175L20.5326 10.3177C20.3867 10.3977 20.2418 10.4041 20.1168 10.3587C19.9936 10.3139 19.895 10.2208 19.834 10.1101C19.773 9.99928 19.7471 9.86625 19.7753 9.73838C19.8039 9.60878 19.887 9.49026 20.0325 9.4103M27.8346 16.9562L20.6136 9.21023C20.4306 9.2861 20.248 9.37354 20.0692 9.47575L20.0331 9.40998C20.0329 9.41008 20.0327 9.41019 20.0325 9.4103M27.8346 16.9562C27.8345 16.9529 27.8345 16.9496 27.8344 16.9462C27.8335 16.8639 27.8327 16.7459 27.832 16.604C27.8306 16.3202 27.8297 15.9412 27.8291 15.562C27.8285 15.1829 27.8282 14.8035 27.828 14.519L27.8279 14.1751L27.8279 14.0788L27.8279 14.0534L27.8279 14.0469V14.0454C27.8714 11.7881 26.4196 9.96761 24.5385 9.18433C25.4496 8.55542 26.0445 7.50528 26.0445 6.31678C26.0445 4.39373 24.4781 2.82734 22.5551 2.82734C20.632 2.82734 19.0656 4.39373 19.0656 6.31678C19.0656 7.49155 19.6474 8.52771 20.5402 9.15968C20.3698 9.23212 20.1997 9.31481 20.0325 9.4103M27.8346 16.9562L20.0325 9.4103M25.0102 6.31665C25.0053 7.66085 23.9185 8.75247 22.5792 8.76699H22.5792H22.5791H22.579H22.5789H22.5789H22.5788H22.5787H22.5786H22.5785H22.5784H22.5783H22.5783H22.5782H22.5781H22.578H22.5779H22.5778H22.5778H22.5777H22.5776H22.5775H22.5774H22.5773H22.5772H22.5772H22.5771H22.577H22.5769H22.5768H22.5767H22.5767H22.5766H22.5765H22.5764H22.5763H22.5763H22.5762H22.5761H22.576H22.5759H22.5758H22.5758H22.5757H22.5756H22.5755H22.5754H22.5754H22.5753H22.5752H22.5751H22.575H22.575H22.5749H22.5748H22.5747H22.5746H22.5745H22.5745H22.5744H22.5743H22.5742H22.5741H22.5741H22.574H22.5739H22.5738H22.5737H22.5737H22.5736H22.5735H22.5734H22.5734H22.5733H22.5732H22.5731H22.573H22.573H22.5729H22.5728H22.5727H22.5726H22.5726H22.5725H22.5724H22.5723H22.5723H22.5722H22.5721H22.572H22.5719H22.5719H22.5718H22.5717H22.5716H22.5716H22.5715H22.5714H22.5713H22.5712H22.5712H22.5711H22.571H22.5709H22.5709H22.5708H22.5707H22.5706H22.5706H22.5705H22.5704H22.5703H22.5702H22.5702H22.5701H22.57H22.5699H22.5699H22.5698H22.5697H22.5696H22.5696H22.5695H22.5694H22.5693H22.5693H22.5692H22.5691H22.569H22.569H22.5689H22.5688H22.5687H22.5687H22.5686H22.5685H22.5684H22.5684H22.5683H22.5682H22.5681H22.5681H22.568H22.5679H22.5678H22.5678H22.5677H22.5676H22.5675H22.5675H22.5674H22.5673H22.5672H22.5672H22.5671H22.567H22.5669H22.5669H22.5668H22.5667H22.5666H22.5666H22.5665H22.5664H22.5664H22.5663H22.5662H22.5661H22.5661H22.566H22.5659H22.5658H22.5658H22.5657H22.5656H22.5655H22.5655H22.5654H22.5653H22.5653H22.5652H22.5651H22.565H22.565H22.5649H22.5648H22.5647H22.5647H22.5646H22.5645H22.5645H22.5644H22.5643H22.5642H22.5642H22.5641H22.564H22.5639H22.5639H22.5638H22.5637H22.5637H22.5636H22.5635H22.5634H22.5634H22.5633H22.5632H22.5631H22.5631H22.563H22.5629H22.5629H22.5628H22.5627H22.5626H22.5626H22.5625H22.5624H22.5623H22.5623H22.5622H22.5621H22.5621H22.562H22.5619H22.5618H22.5618H22.5617H22.5616H22.5616H22.5615H22.5614H22.5613H22.5613H22.5612H22.5611H22.5611H22.561H22.5609H22.5608H22.5608H22.5607H22.5606H22.5605H22.5605H22.5604H22.5603H22.5603H22.5602H22.5601H22.56H22.56H22.5599H22.5598H22.5598H22.5597H22.5596H22.5595H22.5595H22.5594H22.5593H22.5593H22.5592H22.5591H22.559H22.559H22.5589H22.5588H22.5587H22.5587H22.5586H22.5585H22.5585H22.5584H22.5583H22.5582H22.5582H22.5581H22.558H22.558H22.5579H22.5578H22.5577H22.5577H22.5576H22.5575H22.5574H22.5574H22.5573H22.5572H22.5572H22.5571H22.557H22.5569H22.5569H22.5568H22.5567H22.5567H22.5566H22.5565H22.5564H22.5564H22.5563H22.5562H22.5561H22.5561H22.556H22.5559H22.5559H22.5558H22.5557H22.5556H22.5556H22.5555H22.5554H22.5553H22.5553H22.5552H22.5551H22.5551H22.555H22.5549H22.5548H22.5548H22.5547H22.5546H22.5545H22.5545H22.5544H22.5543H22.5543H22.5542H22.5541H22.554H22.554H22.5539H22.5538H22.5537H22.5537H22.5536H22.5535H22.5534H22.5534H22.5533H22.5532H22.5531H22.5531H22.553H22.5529H22.5529H22.5528H22.5527H22.5526H22.5526H22.5525H22.5524H22.5523H22.5523H22.5522H22.5521H22.552H22.552H22.5519H22.5518H22.5517H22.5517H22.5516H22.5515H22.5514H22.5514H22.5513H22.5512H22.5511H22.5511H22.551H22.5509H22.5508H22.5508H22.5507H22.5506H22.5505H22.5505H22.5504H22.5503H22.5502H22.5502H22.5501H22.55H22.5499H22.5498H22.5498H22.5497H22.5496H22.5495H22.5495H22.5494H22.5493H22.5492H22.5492H22.5491H22.549H22.5489H22.5489H22.5488H22.5487H22.5486H22.5485H22.5485H22.5484H22.5483H22.5482H22.5482H22.5481H22.548H22.5479H22.5478H22.5478H22.5477H22.5476H22.5475H22.5475H22.5474H22.5473H22.5472H22.5471H22.5471H22.547H22.5469H22.5468H22.5467H22.5467H22.5466H22.5465H22.5464H22.5464H22.5463H22.5462H22.5461H22.546H22.546H22.5459H22.5458H22.5457H22.5456H22.5456H22.5455H22.5454H22.5453H22.5452H22.5452H22.5451H22.545H22.5449H22.5448H22.5447H22.5447H22.5446H22.5445H22.5444H22.5443H22.5443H22.5442H22.5441H22.544H22.5439H22.5439H22.5438H22.5437H22.5436H22.5435H22.5434H22.5434H22.5433H22.5432H22.5431H22.543H22.5429H22.5429H22.5428H22.5427H22.5426H22.5425H22.5424H22.5424H22.5423H22.5422H22.5421H22.542H22.5419H22.5419H22.5418H22.5417H22.5416H22.5415H22.5414H22.5413H22.5413H22.5412H22.5411H22.541H22.5409H22.5408H22.5408H22.5407H22.5406C21.1964 8.75731 20.1049 7.66078 20.1049 6.31678C20.1049 4.96285 21.2062 3.86166 22.5551 3.86166C23.9088 3.86166 25.0101 4.96288 25.0102 6.31665Z" fill="white" stroke="white" stroke-width="0.15"/>
</g>
</g>
</svg>
