<svg width="27" height="19" viewBox="0 0 27 19" fill="none" xmlns="http://www.w3.org/2000/svg">
<g id="Clip path group">
<g id="g19">
<g id="g25">
<path id="path27" d="M16.6958 9.28491C16.6958 11.1425 15.1899 12.6484 13.3323 12.6484C11.4747 12.6484 9.96875 11.1425 9.96875 9.28491C9.96875 7.4273 11.4747 5.92139 13.3323 5.92139C15.1899 5.92139 16.6958 7.4273 16.6958 9.28491Z" stroke="white" stroke-width="1.4" stroke-miterlimit="10"/>
</g>
<g id="g29">
<path id="path31" d="M4.61628 18C2.38309 15.7668 1 12.6836 1 9.28337C1 5.88321 2.38309 2.79993 4.61628 0.566749" stroke="white" stroke-width="1.4" stroke-miterlimit="10"/>
</g>
<g id="g41">
<path id="path43" d="M22.0469 0.566749C24.2801 2.79993 25.6632 5.88321 25.6632 9.28337C25.6632 12.6836 24.2801 15.7668 22.0469 18" stroke="white" stroke-width="1.4" stroke-miterlimit="10"/>
</g>
<g id="g45">
<path id="path47" d="M18.8789 14.8281C20.3 13.407 21.1802 11.4449 21.1802 9.28117C21.1802 7.11742 20.3 5.15534 18.8789 3.73421" stroke="white" stroke-width="1.4" stroke-miterlimit="10"/>
</g>
<g id="g49">
<path id="path51" d="M7.78567 3.73421C6.36454 5.15534 5.48438 7.11735 5.48438 9.28117C5.48438 11.4449 6.36454 13.4069 7.78567 14.8281" stroke="white" stroke-width="1.4" stroke-miterlimit="10"/>
</g>
</g>
</g>
</svg>
