<svg width="25" height="26" viewBox="0 0 25 26" fill="none" xmlns="http://www.w3.org/2000/svg">
<g clip-path="url(#clip0_3_67)">
<path d="M12.5067 9.06153C10.3032 9.06153 8.505 10.8597 8.505 13.0632C8.505 15.2667 10.3032 17.0649 12.5067 17.0649C14.7102 17.0649 16.5084 15.2667 16.5084 13.0632C16.5084 10.8597 14.7102 9.06153 12.5067 9.06153ZM24.5088 13.0632C24.5088 11.4061 24.5238 9.764 24.4308 8.10989C24.3377 6.18859 23.8994 4.48344 22.4944 3.07849C21.0865 1.67053 19.3843 1.23524 17.463 1.14218C15.8059 1.04912 14.1638 1.06413 12.5097 1.06413C10.8526 1.06413 9.21047 1.04912 7.55636 1.14218C5.63506 1.23524 3.92991 1.67354 2.52496 3.07849C1.11701 4.48644 0.681713 6.18859 0.58865 8.10989C0.495587 9.767 0.510598 11.4091 0.510598 13.0632C0.510598 14.7174 0.495587 16.3625 0.58865 18.0166C0.681713 19.9379 1.12001 21.643 2.52496 23.048C3.93291 24.4559 5.63506 24.8912 7.55636 24.9843C9.21348 25.0773 10.8556 25.0623 12.5097 25.0623C14.1668 25.0623 15.8089 25.0773 17.463 24.9843C19.3843 24.8912 21.0895 24.4529 22.4944 23.048C23.9024 21.64 24.3377 19.9379 24.4308 18.0166C24.5268 16.3625 24.5088 14.7204 24.5088 13.0632ZM12.5067 19.2204C9.0994 19.2204 6.34954 16.4705 6.34954 13.0632C6.34954 9.65593 9.0994 6.90607 12.5067 6.90607C15.914 6.90607 18.6639 9.65593 18.6639 13.0632C18.6639 16.4705 15.914 19.2204 12.5067 19.2204ZM18.916 8.09187C18.1205 8.09187 17.4781 7.44944 17.4781 6.6539C17.4781 5.85836 18.1205 5.21593 18.916 5.21593C19.7116 5.21593 20.354 5.85836 20.354 6.6539C20.3542 6.84281 20.3172 7.0299 20.245 7.20447C20.1728 7.37904 20.0669 7.53765 19.9334 7.67123C19.7998 7.80481 19.6412 7.91072 19.4666 7.9829C19.292 8.05508 19.1049 8.09211 18.916 8.09187Z" fill="#0F1E8C"/>
</g>
<defs>
<clipPath id="clip0_3_67">
<rect width="24" height="25" fill="white" transform="translate(0.235291 0.214294)"/>
</clipPath>
</defs>
</svg>
