<svg width="9" height="16" viewBox="0 0 9 16" fill="none" xmlns="http://www.w3.org/2000/svg">
<path fill-rule="evenodd" clip-rule="evenodd" d="M8.53033 7.46967L8 8L8.53033 8.53033C8.82322 8.23744 8.82322 7.76256 8.53033 7.46967ZM6.93934 8L0.46967 14.4697C0.176777 14.7626 0.176777 15.2374 0.46967 15.5303C0.762564 15.8232 1.23744 15.8232 1.53033 15.5303L8.53033 8.53033C8.53036 8.5303 8.53033 8.53033 8 8C8.53033 7.46967 8.53036 7.4697 8.53033 7.46967L1.53033 0.469671C1.23744 0.176777 0.762563 0.176777 0.46967 0.469671C0.176776 0.762563 0.176776 1.23744 0.46967 1.53033L6.93934 8Z" fill="white"/>
</svg>
