<svg width="19" height="13" viewBox="0 0 19 13" fill="none" xmlns="http://www.w3.org/2000/svg">
<path d="M18.9997 1.44057C19.0058 1.15975 18.9244 0.883991 18.7667 0.65162C18.6089 0.419248 18.3825 0.241813 18.1192 0.143985C17.8559 0.0461573 17.5687 0.0327966 17.2974 0.10576C17.0262 0.178724 16.7845 0.334386 16.6059 0.551106L9.52185 8.8202L2.44033 0.551105C2.33015 0.401189 2.19026 0.275638 2.02931 0.182315C1.86835 0.088991 1.68982 0.0299058 1.50497 0.00875817C1.32013 -0.0123895 1.13294 0.00485663 0.955072 0.0594162C0.777199 0.113976 0.612455 0.204673 0.47126 0.325829C0.330063 0.446986 0.215528 0.59599 0.134586 0.763512C0.0536422 0.931034 0.00818057 1.11346 0.00100702 1.29938C-0.00616462 1.48529 0.0250186 1.67068 0.0928134 1.84394C0.160608 2.0172 0.263443 2.1746 0.394884 2.30628L8.49515 11.7736C8.62203 11.9223 8.77951 12.0417 8.95699 12.1236C9.13447 12.2054 9.32765 12.2478 9.5231 12.2478C9.71855 12.2478 9.91173 12.2054 10.0892 12.1236C10.2667 12.0417 10.4243 11.9223 10.5512 11.7736L18.6593 2.30628C18.8717 2.06712 18.9925 1.76036 19 1.44057L18.9997 1.44057Z" fill="#00788A"/>
</svg>
