<svg width="19" height="10" viewBox="0 0 19 10" fill="none" xmlns="http://www.w3.org/2000/svg">
<path d="M18.9997 1.17618C19.0058 0.946907 18.9244 0.721754 18.7667 0.532029C18.6089 0.342304 18.3825 0.197434 18.1192 0.11756C17.8559 0.0376862 17.5687 0.0267775 17.2974 0.0863502C17.0262 0.145923 16.7845 0.273017 16.6059 0.449963L9.52185 7.20145L2.44033 0.449962C2.33015 0.32756 2.19026 0.225051 2.02931 0.148855C1.86835 0.0726586 1.68982 0.0244171 1.50497 0.00715066C1.32013 -0.0101158 1.13294 0.00396516 0.955072 0.0485116C0.777201 0.093058 0.612457 0.16711 0.47126 0.266031C0.330063 0.364951 0.215528 0.48661 0.134586 0.623386C0.0536441 0.760163 0.00818058 0.909113 0.00100703 1.06091C-0.00616651 1.2127 0.0250186 1.36407 0.0928134 1.50553C0.160608 1.64699 0.263443 1.7755 0.394884 1.88301L8.49515 9.61285C8.62203 9.73424 8.77951 9.83171 8.95699 9.89855C9.13447 9.96539 9.32764 10 9.5231 10C9.71855 10 9.91173 9.96539 10.0892 9.89855C10.2667 9.83171 10.4243 9.73424 10.5512 9.61285L18.6593 1.88301C18.8717 1.68774 18.9925 1.43729 19 1.17618L18.9997 1.17618Z" fill="#CC9900"/>
</svg>
