<svg width="29" height="29" viewBox="0 0 29 29" fill="none" xmlns="http://www.w3.org/2000/svg">
<circle cx="14.5" cy="14.5" r="14.5" fill="white"/>
<path d="M11.879 10.1143C11.7984 10.1376 11.246 10.6583 9.45143 12.4007C8.06 13.7504 7.10152 14.7045 7.0627 14.7743C6.9791 14.9314 6.9791 15.1699 7.0627 15.327C7.15825 15.4986 11.6819 19.8938 11.8252 19.952C12.3537 20.1644 12.8972 19.632 12.6583 19.1375C12.6195 19.059 12.0462 18.4831 10.8966 17.3632C9.95904 16.4527 9.19166 15.6964 9.19166 15.6848C9.19166 15.6731 11.7566 15.6586 14.8918 15.6557L20.5919 15.6469L20.7232 15.5597C21.1353 15.2775 21.0756 14.6696 20.6217 14.4834C20.5232 14.4456 19.8902 14.4398 14.85 14.4398C11.7386 14.4398 9.19166 14.431 9.19166 14.4194C9.19166 14.4078 9.97695 13.6311 10.9354 12.6945C12.6464 11.0248 12.6792 10.9899 12.7091 10.8474C12.8136 10.3558 12.3746 9.96889 11.879 10.1143Z" fill="#0F1E8C"/>
</svg>
