<svg xmlns="http://www.w3.org/2000/svg" width="43" height="48" viewBox="0 0 43 48" fill="none">
    <path fill-rule="evenodd" clip-rule="evenodd"
        d="M0.832891 46.6534C0.580528 46.4171 0.377201 46.1334 0.234528 45.8185C0.0918542 45.5036 0.0126306 45.1637 0.00139057 44.8181C-0.00984942 44.4726 0.0471078 44.1283 0.169012 43.8047C0.290919 43.4812 0.47538 43.1849 0.711855 42.9327L18.7625 23.6822L0.711857 4.43174C0.23452 3.9223 -0.020895 3.24411 0.0018044 2.54636C0.0245038 1.8486 0.323456 1.18844 0.832894 0.7111C1.34233 0.233764 2.02053 -0.0216494 2.71828 0.00104807C3.41604 0.0237494 4.0762 0.3227 4.55353 0.832137L24.2882 21.8824C24.7455 22.3702 25 23.0137 25 23.6822C25 24.3508 24.7455 24.9943 24.2882 25.482L4.55353 46.5323C4.31725 46.7847 4.03355 46.988 3.71865 47.1307C3.40375 47.2734 3.06382 47.3526 2.71829 47.3638C2.37276 47.3751 2.02841 47.3181 1.7049 47.1962C1.38139 47.0743 1.08508 46.8899 0.832891 46.6534Z"
        fill="#266DD3" />
    <path fill-rule="evenodd" clip-rule="evenodd"
        d="M18.8329 46.6534C18.5805 46.4171 18.3772 46.1334 18.2345 45.8185C18.0919 45.5036 18.0126 45.1637 18.0014 44.8181C17.9902 44.4726 18.0471 44.1283 18.169 43.8047C18.2909 43.4812 18.4754 43.1849 18.7119 42.9327L36.7625 23.6822L18.7119 4.43174C18.2345 3.9223 17.9791 3.24411 18.0018 2.54636C18.0245 1.8486 18.3235 1.18844 18.8329 0.7111C19.3423 0.233764 20.0205 -0.0216494 20.7183 0.00104807C21.416 0.0237494 22.0762 0.3227 22.5535 0.832137L42.2882 21.8824C42.7455 22.3702 43 23.0137 43 23.6822C43 24.3508 42.7455 24.9943 42.2882 25.482L22.5535 46.5323C22.3172 46.7847 22.0336 46.988 21.7187 47.1307C21.4038 47.2734 21.0638 47.3526 20.7183 47.3638C20.3728 47.3751 20.0284 47.3181 19.7049 47.1962C19.3814 47.0743 19.0851 46.8899 18.8329 46.6534Z"
        fill="#266DD3" />
</svg>
    