<svg width="24" height="24" viewBox="0 0 24 24" fill="none" xmlns="http://www.w3.org/2000/svg">
<g id="radix-icons:chevron-up">
<path id="Vector" fill-rule="evenodd" clip-rule="evenodd" d="M9.85279 18.9838C9.77607 18.9119 9.71425 18.8257 9.67087 18.7299C9.62749 18.6342 9.60341 18.5308 9.59999 18.4258C9.59657 18.3207 9.61389 18.216 9.65095 18.1177C9.68802 18.0193 9.7441 17.9292 9.81599 17.8526L15.304 11.9998L9.816 6.14697C9.67087 5.99208 9.59321 5.78589 9.60012 5.57375C9.60702 5.36161 9.69791 5.16089 9.8528 5.01577C10.0077 4.87064 10.2139 4.79299 10.426 4.79989C10.6382 4.80679 10.8389 4.89768 10.984 5.05257L16.984 11.4526C17.123 11.6009 17.2004 11.7965 17.2004 11.9998C17.2004 12.203 17.123 12.3987 16.984 12.547L10.984 18.947C10.9122 19.0237 10.8259 19.0855 10.7302 19.1289C10.6344 19.1723 10.5311 19.1964 10.426 19.1998C10.321 19.2032 10.2163 19.1859 10.1179 19.1488C10.0196 19.1117 9.92947 19.0557 9.85279 18.9838Z" fill="#2638C4"/>
</g>
</svg>
