<svg width="24" height="24" viewBox="0 0 24 24" fill="none" xmlns="http://www.w3.org/2000/svg">
<g id="radix-icons:chevron-up">
<path id="Vector" fill-rule="evenodd" clip-rule="evenodd" d="M9.85258 18.984C9.77585 18.9122 9.71404 18.8259 9.67066 18.7302C9.62728 18.6344 9.60319 18.5311 9.59978 18.426C9.59636 18.321 9.61368 18.2163 9.65074 18.1179C9.6878 18.0196 9.74389 17.9295 9.81578 17.8528L15.3038 12L9.81578 6.14721C9.67066 5.99233 9.593 5.78613 9.5999 5.57399C9.6068 5.36185 9.69769 5.16114 9.85258 5.01601C10.0075 4.87089 10.2137 4.79323 10.4258 4.80013C10.6379 4.80703 10.8387 4.89793 10.9838 5.05281L16.9838 11.4528C17.1228 11.6011 17.2002 11.7967 17.2002 12C17.2002 12.2033 17.1228 12.3989 16.9838 12.5472L10.9838 18.9472C10.9119 19.0239 10.8257 19.0858 10.7299 19.1291C10.6342 19.1725 10.5309 19.1966 10.4258 19.2C10.3208 19.2034 10.2161 19.1861 10.1177 19.1491C10.0193 19.112 9.92925 19.0559 9.85258 18.984Z" fill="white"/>
</g>
</svg>
