<svg width="23" height="23" viewBox="0 0 23 23" fill="none" xmlns="http://www.w3.org/2000/svg">
<path d="M11.5 1.4375C9.4039 1.43997 7.39435 2.27374 5.91218 3.75592C4.43 5.23809 3.59623 7.24764 3.59376 9.34375C3.59125 11.0567 4.15078 12.7232 5.18651 14.0875C5.18651 14.0875 5.40213 14.3714 5.43735 14.4124L11.5 21.5625L17.5655 14.4088C17.5972 14.3707 17.8135 14.0875 17.8135 14.0875L17.8142 14.0853C18.8494 12.7216 19.4087 11.0559 19.4063 9.34375C19.4038 7.24764 18.57 5.23809 17.0878 3.75592C15.6057 2.27374 13.5961 1.43997 11.5 1.4375ZM11.5 12.2188C10.9314 12.2188 10.3755 12.0501 9.90274 11.7342C9.42995 11.4183 9.06146 10.9693 8.84385 10.444C8.62625 9.91863 8.56932 9.34056 8.68025 8.78287C8.79118 8.22517 9.065 7.71289 9.46708 7.31082C9.86915 6.90874 10.3814 6.63492 10.9391 6.52399C11.4968 6.41306 12.0749 6.46999 12.6002 6.6876C13.1256 6.9052 13.5746 7.27369 13.8905 7.74649C14.2064 8.21928 14.375 8.77513 14.375 9.34375C14.3741 10.106 14.0709 10.8367 13.5319 11.3756C12.9929 11.9146 12.2622 12.2178 11.5 12.2188Z" fill="#2638C4"/>
</svg>
