<svg width="41" height="40" viewBox="0 0 41 40" fill="none" xmlns="http://www.w3.org/2000/svg">
<path d="M37.1667 20.0026C37.1667 29.2073 29.7047 36.6693 20.5 36.6693C11.2953 36.6693 3.83337 29.2073 3.83337 20.0026C3.83337 10.7979 11.2953 3.33594 20.5 3.33594C29.7047 3.33594 37.1667 10.7979 37.1667 20.0026ZM23.8839 12.4521C23.3957 11.9639 22.6044 11.9639 22.1162 12.4521L15.4495 19.1188C14.9613 19.6069 14.9613 20.3983 15.4495 20.8864L22.1162 27.5531C22.6044 28.0413 23.3957 28.0413 23.8839 27.5531C24.372 27.0649 24.372 26.2736 23.8839 25.7854L18.1012 20.0026L23.8839 14.2198C24.372 13.7317 24.372 12.9402 23.8839 12.4521Z" fill="white"/>
</svg>
