<svg width="16" height="16" viewBox="0 0 16 16" fill="none" xmlns="http://www.w3.org/2000/svg">
<path fill-rule="evenodd" clip-rule="evenodd" d="M6.56839 12.656C6.51724 12.6081 6.47602 12.5506 6.4471 12.4868C6.41819 12.4229 6.40213 12.354 6.39985 12.284C6.39757 12.214 6.40912 12.1442 6.43383 12.0786C6.45853 12.013 6.49592 11.953 6.54385 11.9019L10.2025 7.99999L6.54385 4.09813C6.4471 3.99487 6.39533 3.85741 6.39993 3.71598C6.40454 3.57455 6.46513 3.44074 6.56839 3.34399C6.67165 3.24724 6.80911 3.19547 6.95053 3.20007C7.09196 3.20467 7.22577 3.26527 7.32252 3.36853L11.3225 7.63519C11.4152 7.73405 11.4668 7.86448 11.4668 7.99999C11.4668 8.13551 11.4152 8.26594 11.3225 8.36479L7.32252 12.6315C7.27463 12.6826 7.21713 12.7238 7.1533 12.7527C7.08947 12.7817 7.02057 12.7977 6.95054 12.8C6.8805 12.8023 6.81071 12.7907 6.74513 12.766C6.67956 12.7413 6.6195 12.7039 6.56839 12.656Z" fill="#CFD1D2"/>
</svg>
