<svg width="16" height="17" viewBox="0 0 16 17" fill="none" xmlns="http://www.w3.org/2000/svg">
<path fill-rule="evenodd" clip-rule="evenodd" d="M4.1462 3.87143C4.09963 3.91787 4.06269 3.97305 4.03748 4.03379C4.01228 4.09454 3.9993 4.15966 3.9993 4.22543C3.9993 4.29119 4.01228 4.35632 4.03748 4.41706C4.06269 4.47781 4.09963 4.53298 4.1462 4.57943L7.7932 8.22543L4.1462 11.8714C4.05231 11.9653 3.99956 12.0927 3.99956 12.2254C3.99956 12.3582 4.05231 12.4855 4.14619 12.5794C4.24008 12.6733 4.36742 12.7261 4.5002 12.7261C4.63297 12.7261 4.76031 12.6733 4.8542 12.5794L8.8542 8.57943C8.90076 8.53298 8.9377 8.47781 8.96291 8.41706C8.98811 8.35632 9.00109 8.29119 9.00109 8.22543C9.00109 8.15966 8.98811 8.09454 8.96291 8.03379C8.9377 7.97305 8.90076 7.91787 8.8542 7.87143L4.8542 3.87143C4.80775 3.82486 4.75257 3.78792 4.69183 3.76271C4.63108 3.73751 4.56596 3.72453 4.5002 3.72453C4.43443 3.72453 4.36931 3.73751 4.30856 3.76271C4.24782 3.78792 4.19264 3.82486 4.1462 3.87143ZM10.8002 2.62543C10.5802 2.62543 10.4002 2.80543 10.4002 3.02543L10.4002 13.4254C10.4002 13.5315 10.4423 13.6333 10.5174 13.7083C10.5924 13.7833 10.6941 13.8254 10.8002 13.8254C10.9063 13.8254 11.008 13.7833 11.083 13.7083C11.1581 13.6333 11.2002 13.5315 11.2002 13.4254L11.2002 3.02543C11.2002 2.91934 11.1581 2.8176 11.083 2.74258C11.008 2.66757 10.9063 2.62543 10.8002 2.62543Z" fill="#2638C4"/>
</svg>
