<svg width="24" height="24" viewBox="0 0 24 24" fill="none" xmlns="http://www.w3.org/2000/svg">
<path fill-rule="evenodd" clip-rule="evenodd" d="M5.01623 9.85283C5.08807 9.7761 5.17432 9.71428 5.27006 9.6709C5.3658 9.62752 5.46915 9.60344 5.57421 9.60002C5.67926 9.5966 5.78396 9.61392 5.88231 9.65098C5.98067 9.68805 6.07076 9.74413 6.14743 9.81603L12.0002 15.304L17.853 9.81603C18.0079 9.6709 18.2141 9.59324 18.4263 9.60015C18.6384 9.60705 18.8391 9.69794 18.9842 9.85283C19.1294 10.0077 19.207 10.2139 19.2001 10.426C19.1932 10.6382 19.1023 10.8389 18.9474 10.984L12.5474 16.984C12.3991 17.1231 12.2035 17.2004 12.0002 17.2004C11.797 17.2004 11.6013 17.1231 11.453 16.984L5.05303 10.984C4.9763 10.9122 4.91449 10.8259 4.87111 10.7302C4.82773 10.6345 4.80365 10.5311 4.80023 10.4261C4.79681 10.321 4.81413 10.2163 4.85119 10.1179C4.88825 10.0196 4.94434 9.9295 5.01623 9.85283Z" fill="#CFD1D2"/>
</svg>
