<svg width="40" height="40" viewBox="0 0 40 40" fill="none" xmlns="http://www.w3.org/2000/svg">
<g clip-path="url(#clip0_6975_735)">
<circle cx="20" cy="20" r="20" fill="#12264F"/>
<path fill-rule="evenodd" clip-rule="evenodd" d="M24.2197 15.2197C24.5126 14.9268 24.9874 14.9268 25.2803 15.2197C25.5732 15.5126 25.5732 15.9874 25.2803 16.2803L21.3107 20.25L25.2803 24.2197C25.5732 24.5126 25.5732 24.9874 25.2803 25.2803C24.9874 25.5732 24.5126 25.5732 24.2197 25.2803L20.25 21.3107L16.2803 25.2803C15.9874 25.5732 15.5126 25.5732 15.2197 25.2803C14.9268 24.9874 14.9268 24.5126 15.2197 24.2197L19.1893 20.25L15.2197 16.2803C14.9268 15.9874 14.9268 15.5126 15.2197 15.2197C15.5126 14.9268 15.9874 14.9268 16.2803 15.2197L20.25 19.1893L24.2197 15.2197Z" fill="white"/>
</g>
<defs>
<clipPath id="clip0_6975_735">
<rect width="40" height="40" fill="white"/>
</clipPath>
</defs>
</svg>
