<svg width="40" height="40" viewBox="0 0 40 40" fill="none" xmlns="http://www.w3.org/2000/svg">
<circle cx="20" cy="20" r="20" fill="white"/>
<path d="M26.4449 28.3417L11.6293 13.5261C11.2576 13.1544 11.2751 12.5335 11.6684 12.1402C12.0617 11.7469 12.6826 11.7294 13.0543 12.1012L27.8699 26.9167C28.2416 27.2885 28.2241 27.9094 27.8308 28.3027C27.4375 28.696 26.8166 28.7134 26.4449 28.3417Z" fill="#3395D7"/>
<path d="M28.3427 13.5551L13.5271 28.3707C13.1554 28.7424 12.5345 28.7249 12.1412 28.3316C11.7479 27.9383 11.7304 27.3174 12.1021 26.9457L26.9177 12.1301C27.2895 11.7584 27.9103 11.7759 28.3036 12.1692C28.6969 12.5625 28.7144 13.1834 28.3427 13.5551Z" fill="#3395D7"/>
</svg>
