<svg width="46" height="46" viewBox="0 0 46 46" fill="none" xmlns="http://www.w3.org/2000/svg">
<path d="M23 46C10.3179 46 0 35.6826 0 23C0 10.3174 10.3179 0 23 0C35.6821 0 46 10.3174 46 23C46 35.6826 35.6821 46 23 46Z" fill="#00788A"/>
<path d="M24.4141 23L31.707 15.707C32.0976 15.3164 32.0976 14.6836 31.707 14.293C31.3164 13.9023 30.6836 13.9023 30.293 14.293L23 21.5859L15.707 14.293C15.3164 13.9023 14.6836 13.9023 14.293 14.293C13.9023 14.6836 13.9023 15.3164 14.293 15.707L21.5859 23L14.293 30.293C13.9023 30.6836 13.9023 31.3164 14.293 31.707C14.4883 31.9023 14.7441 32 15 32C15.2559 32 15.5117 31.9023 15.707 31.707L23 24.4141L30.293 31.707C30.4883 31.9023 30.7441 32 31 32C31.2559 32 31.5117 31.9023 31.707 31.707C32.0976 31.3164 32.0976 30.6836 31.707 30.293L24.4141 23Z" fill="white"/>
</svg>
