<svg width="42" height="42" viewBox="0 0 42 42" fill="none" xmlns="http://www.w3.org/2000/svg">
    <circle cx="21" cy="21" r="21" fill="#266DD3"/>
    <path d="M27.7751 29.7597L12.2187 14.2033C11.8284 13.813 11.8467 13.1611 12.2597 12.7481C12.6727 12.3352 13.3246 12.3168 13.7149 12.7071L29.2713 28.2635C29.6616 28.6538 29.6432 29.3057 29.2303 29.7187C28.8173 30.1316 28.1654 30.15 27.7751 29.7597Z" fill="white"/>
    <path d="M29.7675 14.2328L14.2111 29.7891C13.8208 30.1794 13.1689 30.1611 12.7559 29.7481C12.343 29.3352 12.3246 28.6832 12.7149 28.2929L28.2713 12.7365C28.6616 12.3462 29.3135 12.3646 29.7265 12.7775C30.1394 13.1905 30.1578 13.8424 29.7675 14.2328Z" fill="white"/>
</svg>
