<svg xmlns="http://www.w3.org/2000/svg" width="17" height="17" viewBox="0 0 17 17" fill="none">
    <path d="M14.4624 16.2157L0.757957 2.51134C0.4141 2.16748 0.430282 1.59316 0.794077 1.22936C1.15787 0.865565 1.7322 0.849383 2.07605 1.19324L15.7805 14.8976C16.1243 15.2415 16.1081 15.8158 15.7443 16.1796C15.3805 16.5434 14.8062 16.5596 14.4624 16.2157Z" fill="white"/>
    <path d="M16.2157 2.53764L2.51134 16.242C2.16748 16.5859 1.59316 16.5697 1.22936 16.2059C0.865565 15.8421 0.849383 15.2678 1.19324 14.9239L14.8976 1.21955C15.2415 0.875688 15.8158 0.89187 16.1796 1.25567C16.5434 1.61946 16.5596 2.19378 16.2157 2.53764Z" fill="white"/>
</svg>