<svg width="25" height="26" viewBox="0 0 25 26" fill="none" xmlns="http://www.w3.org/2000/svg">
<g id="Group 1261152046">
<path id="Vector" fill-rule="evenodd" clip-rule="evenodd" d="M0.448035 25.6092C0.312281 25.4795 0.202905 25.3238 0.126156 25.151C0.049408 24.9781 0.00679117 24.7915 0.000744881 24.6018C-0.00530236 24.4122 0.0253373 24.2231 0.0909139 24.0456C0.15649 23.868 0.255718 23.7053 0.382925 23.5669L10.0929 12.9999L0.382926 2.43287C0.126152 2.15323 -0.0112437 1.78095 0.000967147 1.39794C0.0131771 1.01493 0.173993 0.652549 0.448036 0.390529C0.722079 0.128509 1.0869 -0.0116945 1.46224 0.00076623C1.83759 0.013225 2.19271 0.177328 2.44948 0.45697L13.0654 12.0119C13.3114 12.2797 13.4483 12.6329 13.4483 12.9999C13.4483 13.3669 13.3114 13.7201 13.0654 13.9878L2.44948 25.5428C2.32238 25.6813 2.16977 25.7929 2.00037 25.8713C1.83098 25.9496 1.64812 25.9931 1.46225 25.9992C1.27638 26.0054 1.09114 25.9741 0.917115 25.9072C0.743092 25.8403 0.583694 25.7391 0.448035 25.6092Z" fill="#0F1E8C"/>
<path id="Vector_2" fill-rule="evenodd" clip-rule="evenodd" d="M11.2067 25.6092C11.0709 25.4795 10.9615 25.3238 10.8848 25.151C10.808 24.9781 10.7654 24.7915 10.7594 24.6018C10.7533 24.4122 10.784 24.2231 10.8496 24.0456C10.9151 23.868 11.0144 23.7053 11.1416 23.5669L20.8516 12.9999L11.1416 2.43287C10.8848 2.15323 10.7474 1.78095 10.7596 1.39794C10.7718 1.01493 10.9326 0.652549 11.2067 0.390529C11.4807 0.128509 11.8455 -0.0116945 12.2209 0.00076623C12.5962 0.013225 12.9513 0.177328 13.2081 0.45697L23.824 12.0119C24.07 12.2797 24.2069 12.6329 24.2069 12.9999C24.2069 13.3669 24.07 13.7201 23.824 13.9878L13.2081 25.5428C13.081 25.6813 12.9284 25.7929 12.759 25.8713C12.5896 25.9496 12.4068 25.9931 12.2209 25.9992C12.035 26.0054 11.8498 25.9741 11.6758 25.9072C11.5017 25.8403 11.3423 25.7391 11.2067 25.6092Z" fill="#0F1E8C"/>
</g>
</svg>
