<svg width="22" height="22" viewBox="0 0 22 22" fill="none" xmlns="http://www.w3.org/2000/svg">
<g id="Group">
<path id="Union" fill-rule="evenodd" clip-rule="evenodd" d="M2.6009 10.1606H8.20062C8.72394 10.1606 9.21618 9.95623 9.58523 9.58663C9.9509 9.22375 10.1606 8.71863 10.1606 8.20062V2.60063C10.1606 2.07703 9.95706 1.58478 9.58718 1.21378C9.21815 0.844185 8.72563 0.640625 8.20062 0.640625H2.6009C2.07562 0.640625 1.5831 0.844185 1.21434 1.21378C0.844465 1.5845 0.640625 2.07703 0.640625 2.60063V8.20062C0.640625 8.71891 0.850625 9.22403 1.21434 9.58467C1.58478 9.95623 2.0773 10.1606 2.6009 10.1606Z" fill="#FFFFFF"/>
<path id="Union_2" fill-rule="evenodd" clip-rule="evenodd" d="M2.6009 21.3208H8.20062C8.72394 21.3208 9.21618 21.1164 9.58523 20.7468C9.9509 20.3839 10.1606 19.8788 10.1606 19.3608V13.7608C10.1606 13.2372 9.95706 12.7449 9.58718 12.3739C9.21815 12.0043 8.72563 11.8008 8.20062 11.8008H2.6009C2.07562 11.8008 1.5831 12.0043 1.21434 12.3739C0.844465 12.7447 0.640625 13.2372 0.640625 13.7608V19.3608C0.640625 19.8791 0.850625 20.3842 1.21434 20.7448C1.58478 21.1164 2.0773 21.3208 2.6009 21.3208Z" fill="#FFFFFF"/>
<path id="Union_3" fill-rule="evenodd" clip-rule="evenodd" d="M13.8118 10.1606H19.4116C19.9349 10.1606 20.4271 9.95623 20.7962 9.58663C21.1618 9.22375 21.3716 8.71863 21.3716 8.20062V2.60063C21.3716 2.07703 21.168 1.58478 20.7981 1.21378C20.4291 0.844185 19.9366 0.640625 19.4116 0.640625H13.8118C13.2866 0.640625 12.794 0.844185 12.4253 1.21378C12.0554 1.5845 11.8516 2.07703 11.8516 2.60063V8.20062C11.8516 8.71891 12.0616 9.22403 12.4253 9.58467C12.7957 9.95623 13.2882 10.1606 13.8118 10.1606Z" fill="#FFFFFF"/>
<path id="Union_4" fill-rule="evenodd" clip-rule="evenodd" d="M13.8118 21.3208H19.4116C19.9349 21.3208 20.4271 21.1164 20.7962 20.7468C21.1618 20.3839 21.3716 19.8788 21.3716 19.3608V13.7608C21.3716 13.2372 21.168 12.7449 20.7981 12.3739C20.4291 12.0043 19.9366 11.8008 19.4116 11.8008H13.8118C13.2866 11.8008 12.794 12.0043 12.4253 12.3739C12.0554 12.7447 11.8516 13.2372 11.8516 13.7608V19.3608C11.8516 19.8791 12.0616 20.3842 12.4253 20.7448C12.7957 21.1164 13.2882 21.3208 13.8118 21.3208Z" fill="#FFFFFF"/>
</g>
</svg>
