<svg xmlns="http://www.w3.org/2000/svg" width="43" height="49" viewBox="0 0 43 49" fill="none">
    <path fill-rule="evenodd" clip-rule="evenodd"
        d="M0.832891 48.0744C0.580528 47.8359 0.377201 47.5495 0.234528 47.2316C0.0918542 46.9137 0.0126306 46.5706 0.00139057 46.2218C-0.00984942 45.873 0.0471078 45.5254 0.169012 45.1988C0.290919 44.8723 0.47538 44.5732 0.711855 44.3186L18.7625 24.8862L0.711857 5.45389C0.23452 4.93964 -0.020895 4.25504 0.0018044 3.5507C0.0245038 2.84635 0.323456 2.17995 0.832894 1.69811C1.34233 1.21626 2.02053 0.958434 2.71828 0.981345C3.41604 1.00426 4.0762 1.30604 4.55353 1.82029L24.2882 23.0694C24.7455 23.5618 25 24.2114 25 24.8862C25 25.5611 24.7455 26.2107 24.2882 26.7031L4.55353 47.9522C4.31725 48.207 4.03355 48.4122 3.71865 48.5562C3.40375 48.7002 3.06382 48.7802 2.71829 48.7916C2.37276 48.8029 2.02841 48.7454 1.7049 48.6224C1.38139 48.4993 1.08508 48.3131 0.832891 48.0744Z"
        fill="#FFCF00" />
    <path fill-rule="evenodd" clip-rule="evenodd"
        d="M18.8329 48.0744C18.5805 47.8359 18.3772 47.5495 18.2345 47.2316C18.0919 46.9137 18.0126 46.5706 18.0014 46.2218C17.9902 45.873 18.0471 45.5254 18.169 45.1988C18.2909 44.8723 18.4754 44.5732 18.7119 44.3186L36.7625 24.8862L18.7119 5.45389C18.2345 4.93964 17.9791 4.25504 18.0018 3.5507C18.0245 2.84635 18.3235 2.17995 18.8329 1.69811C19.3423 1.21626 20.0205 0.958434 20.7183 0.981345C21.416 1.00426 22.0762 1.30604 22.5535 1.82029L42.2882 23.0694C42.7455 23.5618 43 24.2114 43 24.8862C43 25.5611 42.7455 26.2107 42.2882 26.7031L22.5535 47.9522C22.3172 48.207 22.0336 48.4122 21.7187 48.5562C21.4038 48.7002 21.0638 48.7802 20.7183 48.7916C20.3728 48.8029 20.0284 48.7454 19.7049 48.6224C19.3814 48.4993 19.0851 48.3131 18.8329 48.0744Z"
        fill="#FFCF00" />
</svg>