<svg width="41" height="41" viewBox="0 0 41 41" fill="none" xmlns="http://www.w3.org/2000/svg">
<ellipse cx="20.5882" cy="20.5005" rx="20.1317" ry="19.8755" fill="#00788A"/>
<path d="M29.9178 27.7725H12.2412C11.9807 27.7725 11.731 27.8746 11.5468 28.0564C11.3626 28.2382 11.2592 28.4848 11.2592 28.742C11.2592 28.9991 11.3626 29.2457 11.5468 29.4275C11.731 29.6094 11.9807 29.7115 12.2412 29.7115H29.9178C30.1782 29.7115 30.428 29.6094 30.6122 29.4275C30.7964 29.2457 30.8998 28.9991 30.8998 28.742C30.8998 28.4848 30.7964 28.2382 30.6122 28.0564C30.428 27.8746 30.1782 27.7725 29.9178 27.7725Z" fill="white"/>
<path d="M21.0792 11.29C20.8189 11.29 20.5693 11.3921 20.3853 11.5739C20.2012 11.7557 20.0978 12.0022 20.0978 12.2592V22.5226L16.8692 19.3244C16.6844 19.1419 16.4337 19.0394 16.1724 19.0394C15.9111 19.0394 15.6604 19.1419 15.4756 19.3244C15.2908 19.5069 15.187 19.7544 15.187 20.0125C15.187 20.2706 15.2908 20.5181 15.4756 20.7006L20.3824 25.5464C20.4737 25.6372 20.5822 25.7093 20.7018 25.7585C20.8214 25.8077 20.9497 25.8331 21.0792 25.8331C21.2088 25.8331 21.337 25.8077 21.4566 25.7585C21.5762 25.7093 21.6847 25.6372 21.776 25.5464L26.6828 20.7006C26.7743 20.6102 26.8469 20.503 26.8964 20.3849C26.9459 20.2668 26.9714 20.1403 26.9714 20.0125C26.9714 19.8847 26.9459 19.7582 26.8964 19.6401C26.8469 19.522 26.7743 19.4147 26.6828 19.3244C26.5913 19.234 26.4827 19.1623 26.3631 19.1134C26.2436 19.0645 26.1154 19.0394 25.986 19.0394C25.8566 19.0394 25.7285 19.0645 25.6089 19.1134C25.4894 19.1623 25.3808 19.234 25.2893 19.3244L22.0606 22.5226V12.2592C22.0606 12.0022 21.9572 11.7557 21.7731 11.5739C21.5891 11.3921 21.3395 11.29 21.0792 11.29Z" fill="white"/>
</svg>
