<svg width="25" height="23" viewBox="0 0 25 23" fill="none" xmlns="http://www.w3.org/2000/svg">
<path d="M24.0083 17.4754V20.4553C24.0083 21.277 23.2645 21.9452 22.3499 21.9452H2.4494C1.5348 21.9452 0.791016 21.277 0.791016 20.4553V17.4754C0.791016 17.0642 1.16249 16.7305 1.62021 16.7305C2.07792 16.7305 2.4494 17.0642 2.4494 17.4754V20.4553H22.3499V17.4754C22.3499 17.0642 22.7214 16.7305 23.1791 16.7305C23.6369 16.7305 24.0083 17.0642 24.0083 17.4754Z" fill="white" stroke="white" stroke-width="0.5"/>
<path d="M5.96559 11.9726C5.63907 11.6809 5.63907 11.2093 5.96559 10.9176C6.29211 10.6259 6.81988 10.6259 7.1464 10.9176L11.5665 14.8666V1.74608C11.5665 1.33424 11.9406 1 12.4016 1C12.8626 1 13.2367 1.33424 13.2367 1.74608V14.8666L17.6568 10.9176C17.9833 10.6259 18.5111 10.6259 18.8376 10.9176C19.1641 11.2093 19.1641 11.6809 18.8376 11.9726L12.992 17.1951C12.6613 17.4913 12.131 17.4816 11.8104 17.1951L5.96559 11.9726Z" fill="white" stroke="white" stroke-width="0.5"/>
</svg>
