<svg width="24" height="24" viewBox="0 0 24 24" fill="none" xmlns="http://www.w3.org/2000/svg">
<path d="M5.7502 20.4904C5.336 20.4903 5 20.826 5 21.2402C5 21.6544 5.3356 21.9903 5.7498 21.9904L18.7498 21.9941C19.164 21.9943 19.5 21.6586 19.5 21.2444C19.5 20.8301 19.1644 20.4943 18.7502 20.4941L5.7502 20.4904ZM12.3518 2.0022L12.25 1.9953C11.8703 1.9953 11.5565 2.2775 11.5068 2.6436L11.5 2.7453L11.501 16.4303L7.7792 12.71C7.5129 12.4438 7.0962 12.4196 6.8026 12.6375L6.7185 12.7101C6.4523 12.9764 6.4281 13.3931 6.646 13.6867L6.7186 13.7708L11.7163 18.7674C11.9824 19.0335 12.3988 19.0578 12.6924 18.8402L12.7765 18.7677L17.78 13.7711C18.0731 13.4784 18.0734 13.0035 17.7807 12.7104C17.5146 12.444 17.098 12.4195 16.8042 12.6371L16.72 12.7097L13.001 16.4233L13 2.7453C13 2.3656 12.7178 2.0518 12.3518 2.0022Z" fill="white"/>
</svg>
