<svg width="24" height="24" viewBox="0 0 24 24" fill="none" xmlns="http://www.w3.org/2000/svg">
<path fill-rule="evenodd" clip-rule="evenodd" d="M5.01721 9.85258C5.08905 9.77585 5.1753 9.71404 5.27104 9.67066C5.36678 9.62728 5.47013 9.60319 5.57518 9.59978C5.68024 9.59636 5.78493 9.61368 5.88329 9.65074C5.98165 9.6878 6.07174 9.74389 6.14841 9.81578L12.0012 15.3038L17.854 9.81578C18.0089 9.67065 18.2151 9.593 18.4272 9.5999C18.6394 9.6068 18.8401 9.69769 18.9852 9.85258C19.1303 10.0075 19.208 10.2137 19.2011 10.4258C19.1942 10.6379 19.1033 10.8387 18.9484 10.9838L12.5484 16.9838C12.4001 17.1228 12.2045 17.2002 12.0012 17.2002C11.7979 17.2002 11.6023 17.1228 11.454 16.9838L5.05401 10.9838C4.97728 10.9119 4.91546 10.8257 4.87209 10.7299C4.82871 10.6342 4.80462 10.5309 4.8012 10.4258C4.79779 10.3208 4.8151 10.2161 4.85217 10.1177C4.88923 10.0193 4.94531 9.92925 5.01721 9.85258Z" fill="#2638C4"/>
</svg>
