<svg width="16" height="12" viewBox="0 0 16 12" fill="none" xmlns="http://www.w3.org/2000/svg">
<path d="M2.93823 0H13.0632C14.363 0 15.4251 1.01734 15.4969 2.29918L15.5007 2.4375V9.5625C15.5007 10.8623 14.4834 11.9244 13.2015 11.9962L13.0632 12H2.93823C1.63846 12 0.576295 10.9826 0.504587 9.7008L0.500732 9.5625V2.4375C0.500732 1.13773 1.51807 0.0755624 2.79992 0.00385487L2.93823 0ZM14.3757 4.02975L8.26271 7.24778C8.12216 7.32172 7.95806 7.3323 7.81083 7.2795L7.73876 7.24778L1.62573 4.0305V9.5625C1.62573 10.2512 2.15606 10.8159 2.83059 10.8706L2.93823 10.875H13.0632C13.7519 10.875 14.3166 10.3447 14.3714 9.67012L14.3757 9.5625V4.02975ZM13.0632 1.125H2.93823C2.2496 1.125 1.68484 1.65533 1.63008 2.32985L1.62573 2.4375V2.75925L8.00073 6.11438L14.3757 2.7585V2.4375C14.3757 1.74887 13.8454 1.18411 13.1709 1.12935L13.0632 1.125Z" fill="white"/>
</svg>
