<svg width="14" height="12" viewBox="0 0 14 12" fill="none" xmlns="http://www.w3.org/2000/svg">
<path d="M2.50065 0.667969H11.5007C12.656 0.667969 13.6001 1.57227 13.6639 2.71169L13.6673 2.83464V9.16797C13.6673 10.3233 12.763 11.2674 11.6236 11.3312L11.5007 11.3346H2.50065C1.3453 11.3346 0.401151 10.4303 0.337411 9.2909L0.333984 9.16797V2.83464C0.333984 1.67928 1.23828 0.735135 2.3777 0.671395L2.50065 0.667969ZM12.6673 4.24997L7.23352 7.11044C7.10858 7.17617 6.96272 7.18557 6.83185 7.13864L6.76778 7.11044L1.33398 4.25064V9.16797C1.33398 9.7801 1.80539 10.2821 2.40496 10.3308L2.50065 10.3346H11.5007C12.1128 10.3346 12.6148 9.86324 12.6635 9.26364L12.6673 9.16797V4.24997ZM11.5007 1.66797H2.50065C1.88854 1.66797 1.38652 2.13938 1.33785 2.73895L1.33398 2.83464V3.12064L7.00065 6.10297L12.6673 3.11997V2.83464C12.6673 2.22252 12.1959 1.72051 11.5963 1.67184L11.5007 1.66797Z" fill="#6C6C6C"/>
</svg>
