<svg width="25" height="28" viewBox="0 0 25 28" fill="none" xmlns="http://www.w3.org/2000/svg">
<g clip-path="url(#clip0_3_69)">
<path d="M21.6639 1.71429H2.80672C1.38708 1.71429 0.235291 2.86608 0.235291 4.28572V23.1429C0.235291 24.5625 1.38708 25.7143 2.80672 25.7143H21.6639C23.0835 25.7143 24.2353 24.5625 24.2353 23.1429V4.28572C24.2353 2.86608 23.0835 1.71429 21.6639 1.71429ZM7.97636 17.0893C6.096 17.0893 4.57458 15.5679 4.57458 13.6875C4.57458 11.8072 6.096 10.2857 7.97636 10.2857C9.85672 10.2857 11.3781 11.8072 11.3781 13.6875C11.3781 15.5679 9.85672 17.0893 7.97636 17.0893ZM16.4942 17.0893C14.6139 17.0893 13.0924 15.5679 13.0924 13.6875C13.0924 11.8072 14.6139 10.2857 16.4942 10.2857C18.3746 10.2857 19.896 11.8072 19.896 13.6875C19.896 15.5679 18.3746 17.0893 16.4942 17.0893Z" fill="#0F1E8C"/>
</g>
<defs>
<clipPath id="clip0_3_69">
<rect width="24" height="27.4286" fill="white" transform="translate(0.235291)"/>
</clipPath>
</defs>
</svg>
