<svg width="46" height="46" viewBox="0 0 46 46" fill="none" xmlns="http://www.w3.org/2000/svg">
<path d="M23 46C10.3179 46 0 35.6826 0 23C0 10.3174 10.3179 0 23 0C35.6821 0 46 10.3174 46 23C46 35.6826 35.6821 46 23 46Z" fill="#12264F"/>
<path d="M16.4866 32.8861C16.6293 32.9622 16.7869 33 16.9444 33C17.1184 33 17.2921 32.9538 17.445 32.8618L32.5561 23.771C32.8323 23.6049 33 23.3135 33 23.0001C33 22.6866 32.8323 22.3953 32.5561 22.2292L17.445 13.1382C17.1538 12.963 16.7868 12.9538 16.4866 13.114C16.1863 13.2742 16 13.5786 16 13.9091V32.0909C16 32.4214 16.1863 32.7258 16.4866 32.8861Z" fill="white"/>
</svg>
