<svg width="28" height="28" viewBox="0 0 28 28" fill="none" xmlns="http://www.w3.org/2000/svg">
<circle cx="14" cy="14" r="14" fill="#CC9900"/>
<path d="M20.4873 19.1211H8.19465C8.01352 19.1211 7.83982 19.193 7.71174 19.3211C7.58367 19.4492 7.51172 19.6229 7.51172 19.804C7.51172 19.9851 7.58367 20.1588 7.71174 20.2869C7.83982 20.415 8.01352 20.4869 8.19465 20.4869H20.4873C20.6685 20.4869 20.8422 20.415 20.9702 20.2869C21.0983 20.1588 21.1703 19.9851 21.1703 19.804C21.1703 19.6229 21.0983 19.4492 20.9702 19.3211C20.8422 19.193 20.6685 19.1211 20.4873 19.1211Z" fill="white"/>
<path d="M14.3407 7.51172C14.1597 7.51172 13.9861 7.58364 13.8582 7.71167C13.7302 7.83969 13.6583 8.01333 13.6583 8.19438V15.4238L11.413 13.171C11.2845 13.0424 11.1102 12.9702 10.9284 12.9702C10.7467 12.9702 10.5724 13.0424 10.4439 13.171C10.3154 13.2995 10.2432 13.4739 10.2432 13.6557C10.2432 13.8375 10.3154 14.0118 10.4439 14.1404L13.8562 17.5537C13.9196 17.6177 13.9951 17.6685 14.0783 17.7031C14.1614 17.7378 14.2506 17.7556 14.3407 17.7556C14.4308 17.7556 14.52 17.7378 14.6032 17.7031C14.6863 17.6685 14.7618 17.6177 14.8253 17.5537L18.2376 14.1404C18.3012 14.0767 18.3517 14.0012 18.3861 13.918C18.4206 13.8348 18.4383 13.7457 18.4383 13.6557C18.4383 13.5657 18.4206 13.4765 18.3861 13.3934C18.3517 13.3102 18.3012 13.2346 18.2376 13.171C18.1739 13.1073 18.0984 13.0569 18.0153 13.0224C17.9321 12.988 17.843 12.9702 17.753 12.9702C17.663 12.9702 17.5739 12.988 17.4908 13.0224C17.4077 13.0569 17.3321 13.1073 17.2685 13.171L15.0232 15.4238V8.19438C15.0232 8.01333 14.9513 7.83969 14.8233 7.71167C14.6953 7.58364 14.5217 7.51172 14.3407 7.51172Z" fill="white"/>
</svg>
