<svg width="25" height="24" viewBox="0 0 25 24" fill="none" xmlns="http://www.w3.org/2000/svg">
<path d="M3.14578 0.244263C1.38592 0.244263 0.235291 1.39987 0.235291 2.91877C0.235291 4.40411 1.35164 5.59268 3.07825 5.59268H3.11165C4.90593 5.59268 6.02258 4.40411 6.02258 2.91877C5.98903 1.39987 4.90593 0.244263 3.14578 0.244263Z" fill="#0F1E8C"/>
<path d="M0.539825 7.70593H5.68463V23.1843H0.539825V7.70593Z" fill="#0F1E8C"/>
<path d="M18.3119 7.34271C15.5365 7.34271 13.6754 9.95071 13.6754 9.95071V7.70599H8.53046V23.1844H13.6751V14.5406C13.6751 14.0779 13.7087 13.6159 13.8446 13.285C14.2165 12.361 15.0629 11.4037 16.4842 11.4037C18.3459 11.4037 19.0905 12.8231 19.0905 14.9039V23.1844H24.2349V14.3093C24.2349 9.55506 21.6966 7.34271 18.3119 7.34271Z" fill="#0F1E8C"/>
</svg>
