<svg width="25" height="21" viewBox="0 0 25 21" fill="none" xmlns="http://www.w3.org/2000/svg">
<path d="M24.2353 3.27279C23.3428 3.66429 22.3918 3.92379 21.4003 4.04979C22.4203 3.44079 23.1988 2.48379 23.5648 1.33029C22.6138 1.89729 21.5638 2.29779 20.4448 2.52129C19.5418 1.55979 18.2548 0.964294 16.8508 0.964294C14.1268 0.964294 11.9338 3.17529 11.9338 5.88579C11.9338 6.27579 11.9668 6.65079 12.0478 7.00779C7.95729 6.80829 4.33779 4.84779 1.90629 1.86129C1.48179 2.59779 1.23279 3.44079 1.23279 4.34829C1.23279 6.05229 2.11029 7.56279 3.41829 8.43729C2.62779 8.42229 1.85229 8.19279 1.19529 7.83129C1.19529 7.84629 1.19529 7.86579 1.19529 7.88529C1.19529 10.2763 2.90079 12.2623 5.13729 12.7198C4.73679 12.8293 4.30029 12.8818 3.84729 12.8818C3.53229 12.8818 3.21429 12.8638 2.91579 12.7978C3.55329 14.7463 5.36229 16.1788 7.51329 16.2253C5.83929 17.5348 3.71379 18.3238 1.41279 18.3238C1.00929 18.3238 0.62229 18.3058 0.235291 18.2563C2.41479 19.6618 4.99779 20.4643 7.78329 20.4643C16.8373 20.4643 21.7873 12.9643 21.7873 6.46329C21.7873 6.24579 21.7798 6.03579 21.7693 5.82729C22.7458 5.13429 23.5663 4.26879 24.2353 3.27279Z" fill="#0F1E8C"/>
</svg>
