<svg width="40" height="41" viewBox="0 0 40 41" fill="none" xmlns="http://www.w3.org/2000/svg">
<path d="M4 9.81836C4 9.26608 4.44772 8.81836 5 8.81836H35C35.5522 8.81836 36 9.26608 36 9.81836C36 10.3706 35.5522 10.8184 35 10.8184H5C4.44772 10.8184 4 10.3706 4 9.81836ZM4 19.8184C4 19.2661 4.44772 18.8184 5 18.8184H35C35.5522 18.8184 36 19.2661 36 19.8184C36 20.3706 35.5522 20.8184 35 20.8184H5C4.44772 20.8184 4 20.3706 4 19.8184ZM5 28.8184C4.44772 28.8184 4 29.2662 4 29.8184C4 30.3706 4.44772 30.8184 5 30.8184H35C35.5522 30.8184 36 30.3706 36 29.8184C36 29.2662 35.5522 28.8184 35 28.8184H5Z" fill="#ED0F64"/>
</svg>
