<svg width="29" height="25" viewBox="0 0 29 25" fill="none" xmlns="http://www.w3.org/2000/svg">
<g clip-path="url(#clip0_3_65)">
<path d="M25.4118 1.72272H2.82353C1.27059 1.72272 0 2.99331 0 4.54625V21.4874C0 23.0404 1.27059 24.311 2.82353 24.311H25.4118C26.9647 24.311 28.2353 23.0404 28.2353 21.4874V4.54625C28.2353 2.99331 26.9647 1.72272 25.4118 1.72272ZM24.8471 7.72272L15.6141 13.4968C14.6965 14.0757 13.5388 14.0757 12.6212 13.4968L3.38824 7.72272C3.24667 7.64325 3.12271 7.53589 3.02384 7.40712C2.92498 7.27836 2.85326 7.13087 2.81305 6.97359C2.77283 6.81631 2.76495 6.65251 2.78987 6.49209C2.81479 6.33168 2.872 6.17798 2.95804 6.04032C3.04409 5.90265 3.15716 5.78388 3.29044 5.69118C3.42371 5.59848 3.57441 5.53379 3.73341 5.50102C3.8924 5.46825 4.0564 5.46808 4.21547 5.50053C4.37453 5.53297 4.52536 5.59735 4.65882 5.68978L14.1176 11.6051L23.5765 5.68978C23.7099 5.59735 23.8608 5.53297 24.0198 5.50053C24.1789 5.46808 24.3429 5.46825 24.5019 5.50102C24.6609 5.53379 24.8116 5.59848 24.9449 5.69118C25.0781 5.78388 25.1912 5.90265 25.2773 6.04032C25.3633 6.17798 25.4205 6.33168 25.4454 6.49209C25.4704 6.65251 25.4625 6.81631 25.4222 6.97359C25.382 7.13087 25.3103 7.27836 25.2115 7.40712C25.1126 7.53589 24.9886 7.64325 24.8471 7.72272Z" fill="#0F1E8C"/>
</g>
<defs>
<clipPath id="clip0_3_65">
<rect width="28.2353" height="24" fill="white" transform="translate(0 0.714294)"/>
</clipPath>
</defs>
</svg>
