<svg width="48" height="48" viewBox="0 0 48 48" fill="none" xmlns="http://www.w3.org/2000/svg">
<rect x="19" y="7" width="11" height="34" fill="white"/>
<path d="M24 47.4375C28.6355 47.4375 33.1669 46.0629 37.0212 43.4876C40.8755 40.9122 43.8795 37.2518 45.6534 32.9692C47.4274 28.6865 47.8915 23.974 46.9872 19.4276C46.0828 14.8812 43.8506 10.705 40.5728 7.4272C37.295 4.1494 33.1189 1.9172 28.5724 1.01286C24.026 0.108514 19.3135 0.572655 15.0309 2.34658C10.7482 4.12051 7.08778 7.12456 4.51243 10.9788C1.93709 14.8331 0.5625 19.3645 0.5625 24C0.5625 30.216 3.0318 36.1774 7.42719 40.5728C11.8226 44.9682 17.784 47.4375 24 47.4375ZM24 9.34376C24.6181 9.34376 25.2223 9.52704 25.7362 9.87042C26.2501 10.2138 26.6506 10.7019 26.8871 11.2729C27.1236 11.8439 27.1855 12.4722 27.065 13.0784C26.9444 13.6846 26.6467 14.2414 26.2097 14.6785C25.7727 15.1155 25.2158 15.4131 24.6097 15.5337C24.0035 15.6543 23.3751 15.5924 22.8041 15.3559C22.2331 15.1194 21.745 14.7188 21.4017 14.2049C21.0583 13.691 20.875 13.0868 20.875 12.4688C20.875 11.64 21.2042 10.8451 21.7903 10.2591C22.3763 9.673 23.1712 9.34376 24 9.34376ZM20.875 24C20.875 23.1712 21.2042 22.3764 21.7903 21.7903C22.3763 21.2043 23.1712 20.875 24 20.875C24.8288 20.875 25.6237 21.2043 26.2097 21.7903C26.7958 22.3764 27.125 23.1712 27.125 24V36.5C27.125 37.3288 26.7958 38.1237 26.2097 38.7097C25.6237 39.2958 24.8288 39.625 24 39.625C23.1712 39.625 22.3763 39.2958 21.7903 38.7097C21.2042 38.1237 20.875 37.3288 20.875 36.5V24Z" fill="#CC9900"/>
</svg>
