<svg width="118" height="78" viewBox="0 0 118 78" fill="none" xmlns="http://www.w3.org/2000/svg">
<g id="Isolation_Mode" clip-path="url(#clip0_4895_13930)">
<path id="Vector" d="M0.831544 94.6525C10.068 103.317 22.5295 108.58 36.1994 108.426C64.2859 108.103 86.792 85.08 86.4687 57.0089C86.1455 28.9378 63.1236 6.43016 35.0372 6.75334C21.3672 6.90724 9.02889 12.4553 -0.00742342 21.3275L0.831544 94.6602L0.831544 94.6525ZM35.3143 30.5999C50.2003 30.4306 62.4463 42.3962 62.6156 57.2782C62.785 72.1602 50.8161 84.4028 35.93 84.5721C21.044 84.7414 8.79798 72.7758 8.62864 57.8938C8.45931 43.0118 20.4282 30.7692 35.3143 30.5999Z" fill="#A4659B"/>
<path id="Vector_2" d="M51.7054 15.3527L66.0103 23.6094L74.2692 9.30843L59.9643 1.05178L51.7054 15.3527Z" stroke="#FBD914" stroke-width="2" stroke-miterlimit="10"/>
<path id="Vector_3" d="M100.654 47.1414L117.495 41.2702L115.132 58.9531L100.654 47.1414Z" fill="#57C4E5"/>
</g>
<defs>
<clipPath id="clip0_4895_13930">
<rect width="117.495" height="108.429" fill="white" transform="translate(117.495 108.43) rotate(-180)"/>
</clipPath>
</defs>
</svg>
