<svg width="75" height="75" viewBox="0 0 75 75" fill="none" xmlns="http://www.w3.org/2000/svg">
<path d="M60.9819 14.0153L60.9818 14.0152C54.713 7.74668 46.3658 4.28906 37.5005 4.28906C28.6352 4.28906 20.288 7.74668 14.0192 14.0152L14.0191 14.0153C7.75059 20.2841 4.29297 28.6313 4.29297 37.4966C4.29297 46.3619 7.75059 54.7091 14.0191 60.9779L14.0192 60.978C20.288 67.2465 28.6352 70.7042 37.5005 70.7042C46.3658 70.7042 54.713 67.2465 60.9818 60.978L60.9819 60.9779C67.2504 54.7091 70.7081 46.3619 70.7081 37.4966C70.7081 28.6313 67.2504 20.2841 60.9819 14.0153Z" fill="#EAB13A" stroke="white" stroke-width="5"/>
<path d="M29.7227 49.4112L50.3475 37.4986L29.7227 25.5859V49.4112Z" fill="white"/>
</svg>
