<svg width="41" height="40" viewBox="0 0 41 40" fill="none" xmlns="http://www.w3.org/2000/svg">
<ellipse cx="20.5" cy="19.8755" rx="20.1317" ry="19.8755" fill="white"/>
<path d="M29.8295 27.1472H12.1529C11.8925 27.1472 11.6427 27.2494 11.4585 27.4312C11.2744 27.613 11.1709 27.8596 11.1709 28.1167C11.1709 28.3739 11.2744 28.6205 11.4585 28.8023C11.6427 28.9841 11.8925 29.0863 12.1529 29.0863H29.8295C30.09 29.0863 30.3398 28.9841 30.5239 28.8023C30.7081 28.6205 30.8116 28.3739 30.8116 28.1167C30.8116 27.8596 30.7081 27.613 30.5239 27.4312C30.3398 27.2494 30.09 27.1472 29.8295 27.1472Z" fill="#FFA400"/>
<path d="M20.991 10.665C20.7307 10.665 20.4811 10.7671 20.297 10.9489C20.113 11.1307 20.0096 11.3772 20.0096 11.6342V21.8976L16.7809 18.6994C16.5961 18.5169 16.3455 18.4144 16.0841 18.4144C15.8228 18.4144 15.5722 18.5169 15.3874 18.6994C15.2026 18.8819 15.0988 19.1294 15.0988 19.3875C15.0988 19.6456 15.2026 19.8931 15.3874 20.0756L20.2942 24.9214C20.3854 25.0122 20.494 25.0843 20.6135 25.1335C20.7331 25.1827 20.8614 25.2081 20.991 25.2081C21.1205 25.2081 21.2488 25.1827 21.3684 25.1335C21.488 25.0843 21.5965 25.0122 21.6877 24.9214L26.5945 20.0756C26.686 19.9852 26.7586 19.878 26.8081 19.7599C26.8577 19.6418 26.8832 19.5153 26.8832 19.3875C26.8832 19.2597 26.8577 19.1332 26.8081 19.0151C26.7586 18.897 26.686 18.7897 26.5945 18.6994C26.503 18.609 26.3944 18.5373 26.2749 18.4884C26.1553 18.4395 26.0272 18.4144 25.8978 18.4144C25.7684 18.4144 25.6402 18.4395 25.5207 18.4884C25.4011 18.5373 25.2925 18.609 25.201 18.6994L21.9723 21.8976V11.6342C21.9723 11.3772 21.8689 11.1307 21.6849 10.9489C21.5008 10.7671 21.2512 10.665 20.991 10.665Z" fill="#FFA400"/>
</svg>
