<svg width="22" height="22" viewBox="0 0 22 22" fill="none" xmlns="http://www.w3.org/2000/svg">
<g id="Group 1261152179">
<g id="Group">
<g id="Group_2">
<path id="Vector" d="M20.0665 3.26563H18.1329V2.6211C18.1329 1.55491 17.2655 0.6875 16.1993 0.6875H1.9336C0.867413 0.6875 0 1.55491 0 2.6211V12.9336C0 13.9998 0.867413 14.8672 1.9336 14.8672H3.8672V18.0899C3.8672 18.665 4.56424 18.9489 4.96746 18.5456L6.06776 17.4454H13.3542L17.0326 21.1238C17.436 21.5274 18.1328 21.2441 18.1328 20.668V17.4454H20.0664C21.1326 17.4454 22 16.578 22 15.5118V5.19923C22.0001 4.13305 21.1327 3.26563 20.0665 3.26563ZM5.15627 16.5339V14.2227C5.15627 13.8667 4.86769 13.5782 4.51173 13.5782H1.9336C1.5782 13.5782 1.28907 13.289 1.28907 12.9336V2.6211C1.28907 2.2657 1.5782 1.97657 1.9336 1.97657H16.1993C16.5547 1.97657 16.8438 2.2657 16.8438 2.6211V12.9336C16.8438 13.289 16.5547 13.5782 16.1993 13.5782H8.37893C8.20796 13.5782 8.04408 13.6461 7.9232 13.767L5.15627 16.5339ZM20.711 15.5118C20.711 15.8672 20.4219 16.1563 20.0665 16.1563H17.4883C17.1324 16.1563 16.8438 16.4449 16.8438 16.8008V19.112L14.0769 16.3451C13.956 16.2242 13.7921 16.1563 13.6211 16.1563H7.35683L8.6459 14.8672H16.1993C17.2655 14.8672 18.1329 13.9998 18.1329 12.9336V4.5547H20.0665C20.4219 4.5547 20.711 4.84384 20.711 5.19923V15.5118Z" fill="white"/>
</g>
</g>
<g id="Group_3">
<g id="Group_4">
<path id="Vector_2" d="M12.3321 4.55469H3.22266C2.8667 4.55469 2.57812 4.84327 2.57812 5.19922C2.57812 5.55517 2.8667 5.84375 3.22266 5.84375H12.3321C12.688 5.84375 12.9766 5.55517 12.9766 5.19922C12.9766 4.84327 12.688 4.55469 12.3321 4.55469Z" fill="white"/>
</g>
</g>
<g id="Group_5">
<g id="Group_6">
<path id="Vector_3" d="M14.9102 7.13281H3.22266C2.8667 7.13281 2.57812 7.42139 2.57812 7.77735C2.57812 8.1333 2.8667 8.42188 3.22266 8.42188H14.9102C15.2661 8.42188 15.5547 8.1333 15.5547 7.77735C15.5547 7.42139 15.2661 7.13281 14.9102 7.13281Z" fill="white"/>
</g>
</g>
<g id="Group_7">
<g id="Group_8">
<path id="Vector_4" d="M9.75393 9.71094H3.22266C2.8667 9.71094 2.57812 9.99952 2.57812 10.3555C2.57812 10.7114 2.8667 11 3.22266 11H9.75393C10.1099 11 10.3985 10.7114 10.3985 10.3555C10.3985 9.99952 10.1099 9.71094 9.75393 9.71094Z" fill="white"/>
</g>
</g>
</g>
</svg>
