<svg width="20" height="20" viewBox="0 0 20 20" fill="none" xmlns="http://www.w3.org/2000/svg">
<g id="Group 1261152176">
<path id="Vector" d="M19.4444 0H3.88896C3.58215 0 3.33333 0.24882 3.33333 0.555623V3.33333H0.555623C0.24882 3.33333 0 3.58215 0 3.88896V17.7777C0.00142416 19.0045 0.995483 19.9986 2.22229 20H17.2223C18.7557 19.9984 19.9984 18.7557 20 17.2223V0.555623C20 0.24882 19.7512 0 19.4444 0ZM1.11104 17.7777V4.44438H3.33333V17.7777C3.33333 18.3915 2.8359 18.889 2.22229 18.889C1.60848 18.889 1.11104 18.3915 1.11104 17.7777ZM18.889 17.2223C18.8879 18.1423 18.1423 18.8879 17.2223 18.889H4.13533C4.33553 18.5527 4.44214 18.1691 4.44438 17.7777V1.11104H18.889V17.2223Z" fill="white"/>
<path id="Vector_2" d="M7.22359 4.44698H16.1123C16.4191 4.44698 16.668 4.19836 16.668 3.89156C16.668 3.58476 16.4191 3.33594 16.1123 3.33594H7.22359C6.91679 3.33594 6.66797 3.58476 6.66797 3.89156C6.66797 4.19836 6.91679 4.44698 7.22359 4.44698Z" fill="white"/>
<path id="Vector_3" d="M7.22359 7.77511H16.1123C16.4191 7.77511 16.668 7.52649 16.668 7.21969C16.668 6.91288 16.4191 6.66406 16.1123 6.66406H7.22359C6.91679 6.66406 6.66797 6.91288 6.66797 7.21969C6.66797 7.52649 6.91679 7.77511 7.22359 7.77511Z" fill="white"/>
<path id="Vector_4" d="M7.22359 11.111H16.1123C16.4191 11.111 16.668 10.8624 16.668 10.5556C16.668 10.2488 16.4191 10 16.1123 10H7.22359C6.91679 10 6.66797 10.2488 6.66797 10.5556C6.66797 10.8624 6.91679 11.111 7.22359 11.111Z" fill="white"/>
<path id="Vector_5" d="M7.22359 14.447H16.1123C16.4191 14.447 16.668 14.1984 16.668 13.8916C16.668 13.5848 16.4191 13.3359 16.1123 13.3359H7.22359C6.91679 13.3359 6.66797 13.5848 6.66797 13.8916C6.66797 14.1984 6.91679 14.447 7.22359 14.447Z" fill="white"/>
</g>
</svg>
