<svg width="56" height="56" viewBox="0 0 56 56" fill="none" xmlns="http://www.w3.org/2000/svg">
<path fill-rule="evenodd" clip-rule="evenodd" d="M27.9996 5.6001C22.0588 5.6001 16.3612 7.96009 12.1604 12.1609C7.9596 16.3617 5.59961 22.0592 5.59961 28.0001C5.59961 33.9409 7.9596 39.6385 12.1604 43.8393C16.3612 48.0401 22.0588 50.4001 27.9996 50.4001C33.9405 50.4001 39.638 48.0401 43.8388 43.8393C48.0396 39.6385 50.3996 33.9409 50.3996 28.0001C50.3996 22.0592 48.0396 16.3617 43.8388 12.1609C39.638 7.96009 33.9405 5.6001 27.9996 5.6001ZM15.1302 15.1306C18.5433 11.7175 23.1726 9.79994 27.9996 9.79994C32.8266 9.79994 37.4559 11.7175 40.8691 15.1306C44.2823 18.5438 46.1998 23.1731 46.1998 28.0001C46.1998 32.8271 44.2823 37.4564 40.8691 40.8696C37.4559 44.2827 32.8266 46.2003 27.9996 46.2003C23.1726 46.2003 18.5433 44.2827 15.1302 40.8696C11.717 37.4564 9.79945 32.8271 9.79945 28.0001C9.79945 23.1731 11.717 18.5438 15.1302 15.1306ZM24.6101 36.1867L35.6628 29.3645C36.6452 28.7581 36.6452 27.2421 35.6628 26.6357L24.6101 19.8135C23.6277 19.2071 22.3996 19.9651 22.3996 21.178V34.8222C22.3996 36.0351 23.6277 36.7931 24.6101 36.1867Z" fill="#2638C4"/>
</svg>
