<svg width="56" height="56" viewBox="0 0 56 56" fill="none" xmlns="http://www.w3.org/2000/svg">
<path fill-rule="evenodd" clip-rule="evenodd" d="M27.9996 5.59961C22.0588 5.59961 16.3612 7.9596 12.1604 12.1604C7.9596 16.3612 5.59961 22.0588 5.59961 27.9996C5.59961 33.9405 7.9596 39.638 12.1604 43.8388C16.3612 48.0396 22.0588 50.3996 27.9996 50.3996C33.9405 50.3996 39.638 48.0396 43.8388 43.8388C48.0396 39.638 50.3996 33.9405 50.3996 27.9996C50.3996 22.0588 48.0396 16.3612 43.8388 12.1604C39.638 7.9596 33.9405 5.59961 27.9996 5.59961ZM15.1302 15.1302C18.5433 11.717 23.1726 9.79945 27.9996 9.79945C32.8266 9.79945 37.4559 11.717 40.8691 15.1302C44.2823 18.5433 46.1998 23.1726 46.1998 27.9996C46.1998 32.8266 44.2823 37.4559 40.8691 40.8691C37.4559 44.2823 32.8266 46.1998 27.9996 46.1998C23.1726 46.1998 18.5433 44.2823 15.1302 40.8691C11.717 37.4559 9.79945 32.8266 9.79945 27.9996C9.79945 23.1726 11.717 18.5433 15.1302 15.1302ZM24.6101 36.1862L35.6628 29.364C36.6452 28.7576 36.6452 27.2416 35.6628 26.6352L24.6101 19.813C23.6277 19.2066 22.3996 19.9646 22.3996 21.1775V34.8218C22.3996 36.0346 23.6277 36.7926 24.6101 36.1862Z" fill="white"/>
</svg>
