<svg width="75" height="75" viewBox="0 0 75 75" fill="none" xmlns="http://www.w3.org/2000/svg">
<circle cx="37.5" cy="37.5" r="37.5" fill="white" fill-opacity="0.5"/>
<g clip-path="url(#clip0_8971_666)">
<path d="M59.2136 15.7864C53.4136 9.9867 45.7023 6.79248 37.5 6.79248C29.2978 6.79248 21.5864 9.9867 15.7864 15.7864C9.9867 21.5864 6.79248 29.2978 6.79248 37.5C6.79248 45.7023 9.9867 53.4136 15.7864 59.2136C21.5864 65.0134 29.2978 68.2076 37.5 68.2076C45.7023 68.2076 53.4136 65.0134 59.2136 59.2136C65.0134 53.4136 68.2076 45.7023 68.2076 37.5C68.2076 29.2978 65.0134 21.5864 59.2136 15.7864ZM37.5 64.4087C22.6625 64.4087 10.5914 52.3375 10.5914 37.5C10.5914 22.6625 22.6625 10.5914 37.5 10.5914C52.3375 10.5914 64.4087 22.6625 64.4087 37.5C64.4087 52.3375 52.3375 64.4087 37.5 64.4087Z" fill="white"/>
<path d="M29.7202 49.4129L50.345 37.5003L29.7202 25.5876V49.4129Z" fill="white"/>
</g>
<defs>
<clipPath id="clip0_8971_666">
<rect width="61.4151" height="61.4151" fill="white" transform="translate(6.79248 6.79248)"/>
</clipPath>
</defs>
</svg>
