<svg width="32" height="32" viewBox="0 0 32 32" fill="none" xmlns="http://www.w3.org/2000/svg">
<g clip-path="url(#clip0_5886_561)">
<g clip-path="url(#clip1_5886_561)">
<path d="M16.1952 0.796875C7.9108 0.796875 1.1709 7.70528 1.1709 16.1968C1.1709 24.6883 7.9108 31.5968 16.1952 31.5968C24.4797 31.5968 31.2196 24.6884 31.2196 16.1968C31.2196 7.70522 24.4797 0.796875 16.1952 0.796875ZM16.1952 29.6718C8.94637 29.6718 3.04895 23.6269 3.04895 16.1968C3.04895 8.76673 8.94637 2.72187 16.1952 2.72187C23.4441 2.72187 29.3415 8.76667 29.3415 16.1968C29.3415 23.6269 23.4441 29.6718 16.1952 29.6718ZM24.5291 16.1968C24.5291 16.7284 24.1086 17.1593 23.59 17.1593H17.1343V23.7765C17.1343 24.3081 16.7138 24.739 16.1952 24.739C15.6767 24.739 15.2562 24.3081 15.2562 23.7765V17.1593H8.80041C8.28184 17.1593 7.86139 16.7284 7.86139 16.1968C7.86139 15.6652 8.28184 15.2343 8.80041 15.2343H15.2562V8.61713C15.2562 8.08553 15.6767 7.65463 16.1952 7.65463C16.7138 7.65463 17.1343 8.08553 17.1343 8.61713V15.2343H23.59C24.1086 15.2343 24.5291 15.6653 24.5291 16.1968Z" fill="#B1B3B5"/>
</g>
</g>
<defs>
<clipPath id="clip0_5886_561">
<rect width="32" height="32" fill="white"/>
</clipPath>
<clipPath id="clip1_5886_561">
<rect width="31.2195" height="32" fill="white" transform="translate(0.390625)"/>
</clipPath>
</defs>
</svg>
