<svg width="50" height="50" viewBox="0 0 50 50" fill="none" xmlns="http://www.w3.org/2000/svg">
<path d="M25.317 0.275391C11.8548 0.275391 0.902435 11.2857 0.902435 24.819C0.902435 38.3524 11.8548 49.3627 25.317 49.3627C38.7792 49.3627 49.7315 38.3525 49.7315 24.819C49.7315 11.2856 38.7792 0.275391 25.317 0.275391ZM25.317 46.2947C13.5376 46.2947 3.95426 36.6607 3.95426 24.819C3.95426 12.9774 13.5376 3.34336 25.317 3.34336C37.0964 3.34336 46.6797 12.9773 46.6797 24.819C46.6797 36.6607 37.0964 46.2947 25.317 46.2947ZM38.8595 24.819C38.8595 25.6663 38.1762 26.353 37.3335 26.353H26.8429V36.8992C26.8429 37.7464 26.1597 38.4332 25.317 38.4332C24.4743 38.4332 23.7911 37.7464 23.7911 36.8992V26.353H13.3004C12.4577 26.353 11.7745 25.6663 11.7745 24.819C11.7745 23.9718 12.4577 23.2851 13.3004 23.2851H23.7911V12.7389C23.7911 11.8917 24.4743 11.2049 25.317 11.2049C26.1597 11.2049 26.8429 11.8917 26.8429 12.7389V23.2851H37.3335C38.1762 23.2851 38.8595 23.9719 38.8595 24.819Z" fill="#48A1D6"/>
</svg>
