<svg width="46" height="46" viewBox="0 0 46 46" fill="none" xmlns="http://www.w3.org/2000/svg">
<path d="M23.002 46C10.3198 46 0.00195312 35.6826 0.00195312 23C0.00195312 10.3174 10.3198 0 23.002 0C35.6841 0 46.002 10.3174 46.002 23C46.002 35.6826 35.6841 46 23.002 46Z" fill="#2638C4"/>
<path d="M24.416 23L31.709 15.707C32.0996 15.3164 32.0996 14.6836 31.709 14.293C31.3184 13.9023 30.6855 13.9023 30.2949 14.293L23.0019 21.5859L15.709 14.293C15.3184 13.9023 14.6855 13.9023 14.2949 14.293C13.9043 14.6836 13.9043 15.3164 14.2949 15.707L21.5879 23L14.2949 30.293C13.9043 30.6836 13.9043 31.3164 14.2949 31.707C14.4902 31.9023 14.7461 32 15.0019 32C15.2578 32 15.5137 31.9023 15.709 31.707L23.0019 24.4141L30.2949 31.707C30.4902 31.9023 30.7461 32 31.0019 32C31.2578 32 31.5137 31.9023 31.709 31.707C32.0996 31.3164 32.0996 30.6836 31.709 30.293L24.416 23Z" fill="white"/>
</svg>
