<svg width="51" height="51" viewBox="0 0 51 51" fill="none" xmlns="http://www.w3.org/2000/svg">
<circle cx="25.5" cy="25.5" r="25.5" fill="white"/>
<path d="M33.7175 36.1356L14.8277 17.2458C14.3537 16.7718 14.376 15.9802 14.8775 15.4787C15.3789 14.9773 16.1706 14.955 16.6445 15.4289L35.5344 34.3188C36.0083 34.7928 35.986 35.5844 35.4846 36.0858C34.9831 36.5873 34.1915 36.6096 33.7175 36.1356Z" fill="#2638C4"/>
<path d="M36.137 17.2832L17.2471 36.173C16.7732 36.647 15.9815 36.6247 15.4801 36.1233C14.9786 35.6218 14.9563 34.8302 15.4303 34.3562L34.3201 15.4664C34.7941 14.9924 35.5857 15.0147 36.0872 15.5161C36.5886 16.0176 36.6109 16.8092 36.137 17.2832Z" fill="#2638C4"/>
</svg>
