<svg width="42" height="42" viewBox="0 0 42 42" fill="none" xmlns="http://www.w3.org/2000/svg">
<circle cx="21" cy="21" r="21" fill="#F5F6F6"/>
<path d="M23.9439 26.3066C23.0456 28.4208 22.1143 30.592 21.084 33C20.1197 30.6818 19.2379 28.5514 18.3313 26.3638C15.7186 25.4087 13.6994 23.7599 12.6444 21.1233C11.8862 19.2296 11.7955 17.2869 12.3807 15.336C13.5098 11.5241 17.1692 8.81407 21.595 9.00998C25.4275 9.18139 28.9715 12.071 29.7956 15.9809C30.5704 19.6867 29.2517 24.0456 23.9522 26.3066H23.9439ZM27.5621 17.8093C27.5621 14.3075 24.661 11.369 21.1417 11.3935C17.6225 11.418 14.573 14.0382 14.606 17.8011C14.6389 21.7437 17.812 24.1435 21.084 24.1599C24.6198 24.1843 27.5621 21.2866 27.5621 17.8093Z" fill="#15A766"/>
</svg>
