<svg width="21" height="24" viewBox="0 0 21 24" fill="none" xmlns="http://www.w3.org/2000/svg">
<g id="Group 1261152177">
<path id="Vector" d="M5.61084 4.36271V3.4251V3.42509C5.61114 2.09289 6.69106 1.01313 8.02324 1.01253L8.02326 1.01253L14.7418 1.01253H14.7421V1.06253C14.8701 1.06119 14.9931 1.11235 15.0823 1.20431L5.61084 4.36271ZM5.61084 4.36271H2.51867H2.51866C1.18647 4.36301 0.106552 5.44277 0.10625 6.77512V6.77513V20.6995C0.106552 22.0317 1.18647 23.1115 2.51866 23.1119H12.134C13.4662 23.1115 14.5459 22.0317 14.5464 20.6995V19.7619H17.6385C18.9708 19.7616 20.0505 18.6817 20.051 17.3495L20.051 6.31208L20.051 6.31172C20.05 6.17352 19.9959 6.04099 19.8999 5.9417L19.8992 5.94108L15.1224 1.17368L15.1223 1.17365L15.1182 1.16951C15.1181 1.16941 15.118 1.16932 15.1179 1.16923L5.61084 4.36271ZM14.5464 18.7169L14.5464 9.66196L14.5464 9.66161C14.5454 9.52337 14.4913 9.39115 14.3953 9.29189L14.3953 9.29188L14.3947 9.29128L9.62252 4.52372L9.62251 4.5237L9.61831 4.51951C9.61822 4.51942 9.61813 4.51932 9.61804 4.51923C9.51945 4.41785 9.38352 4.36115 9.24211 4.36271M14.5464 18.7169L6.65572 3.4251L6.65572 3.42524L6.65572 4.36271M14.5464 18.7169H17.6384C18.3927 18.7147 19.0039 18.1038 19.0061 17.3493V6.84391H16.6369C15.3045 6.84345 14.2248 5.76369 14.2245 4.43148V2.05755M14.5464 18.7169L14.2245 2.05755M9.24211 4.36271H9.24239V4.41271L9.24182 4.36271C9.24191 4.36271 9.24201 4.36271 9.24211 4.36271ZM9.24211 4.36271H6.65572M6.65572 4.36271H6.60572L6.65572 4.41271V4.36271ZM14.2245 2.05755H8.02333H14.2245ZM15.2646 2.79448V4.43134C15.2668 5.1856 15.8778 5.79681 16.6322 5.79903C16.6322 5.79903 16.6323 5.79903 16.6323 5.79903M15.2646 2.79448L16.6322 5.84903L16.6323 5.79903M15.2646 2.79448L18.2736 5.79903M16.6323 5.79903L18.2736 5.79903M16.6323 5.79903L18.2736 5.79903M8.71988 5.40759V7.78137C8.72018 9.11372 9.79995 10.1935 11.1323 10.1939H11.1323H13.5061L13.5061 20.6992C13.5061 20.6993 13.5061 20.6993 13.5061 20.6994C13.5017 21.4547 12.889 22.0651 12.1338 22.0671H2.51883C1.76439 22.0648 1.15332 21.4537 1.15113 20.6995V6.77519C1.15332 6.02082 1.76432 5.4098 2.51867 5.40759C2.51872 5.40759 2.51877 5.40759 2.51882 5.40759L8.71988 5.40759Z" fill="white" stroke="#90C6E9" stroke-width="0.1"/>
<path id="Vector_2" d="M3.01939 13.0614H7.80574C8.09447 13.0614 8.32826 12.8273 8.32826 12.5389C8.32826 12.2502 8.09445 12.0164 7.80574 12.0164H3.01939C2.731 12.0164 2.49687 12.2502 2.49687 12.5389C2.49687 12.8273 2.73098 13.0614 3.01939 13.0614Z" fill="white" stroke="#90C6E9" stroke-width="0.1"/>
<path id="Vector_3" d="M11.633 15.368H3.01939C2.73099 15.368 2.49687 15.6019 2.49687 15.8905C2.49687 16.1791 2.73099 16.413 3.01939 16.413H11.633C11.9216 16.413 12.1555 16.179 12.1555 15.8905C12.1555 15.6019 11.9216 15.368 11.633 15.368Z" fill="white" stroke="#90C6E9" stroke-width="0.1"/>
<path id="Vector_4" d="M11.633 18.7156H3.01939C2.73098 18.7156 2.49687 18.9497 2.49687 19.2381C2.49687 19.5267 2.73099 19.7607 3.01939 19.7607H11.633C11.9216 19.7607 12.1555 19.5267 12.1555 19.2381C12.1555 18.9497 11.9216 18.7156 11.633 18.7156Z" fill="white" stroke="#90C6E9" stroke-width="0.1"/>
<path id="Vector_5" d="M17.1362 12.0164H15.695C15.4065 12.0164 15.1727 12.2502 15.1727 12.5389C15.1727 12.8273 15.4064 13.0614 15.695 13.0614H17.1362C17.4248 13.0614 17.6587 12.8273 17.6587 12.5389C17.6587 12.2502 17.4248 12.0164 17.1362 12.0164Z" fill="white" stroke="white" stroke-width="0.1"/>
<path id="Vector_6" d="M17.1362 15.368H15.695C15.4064 15.368 15.1727 15.6019 15.1727 15.8905C15.1727 16.179 15.4064 16.413 15.695 16.413H17.1362C17.4248 16.413 17.6587 16.179 17.6587 15.8905C17.6587 15.6019 17.4248 15.368 17.1362 15.368Z" fill="white" stroke="white" stroke-width="0.1"/>
</g>
</svg>
