<svg width="38" height="38" viewBox="0 0 38 38" fill="none" xmlns="http://www.w3.org/2000/svg">
<rect width="38" height="38" rx="10" fill="#00788A"/>
<path d="M26.2633 27.7597L10.707 12.2033C10.3167 11.813 10.335 11.1611 10.748 10.7481C11.1609 10.3352 11.8129 10.3168 12.2032 10.7071L27.7595 26.2635C28.1499 26.6538 28.1315 27.3057 27.7185 27.7187C27.3056 28.1316 26.6537 28.15 26.2633 27.7597Z" fill="white"/>
<path d="M28.2558 12.2328L12.6994 27.7891C12.3091 28.1794 11.6572 28.1611 11.2442 27.7481C10.8312 27.3352 10.8129 26.6832 11.2032 26.2929L26.7595 10.7365C27.1499 10.3462 27.8018 10.3646 28.2148 10.7775C28.6277 11.1905 28.6461 11.8424 28.2558 12.2328Z" fill="white"/>
</svg>
