<svg width="40" height="40" viewBox="0 0 40 40" fill="none" xmlns="http://www.w3.org/2000/svg">
<g clip-path="url(#clip0_6392_172808)">
<circle cx="20" cy="20" r="20" fill="#ECC046"/>
<path d="M27.2633 28.7597L11.707 13.2033C11.3167 12.813 11.335 12.1611 11.748 11.7481C12.1609 11.3352 12.8129 11.3168 13.2032 11.7071L28.7595 27.2635C29.1499 27.6538 29.1315 28.3057 28.7185 28.7187C28.3056 29.1316 27.6537 29.15 27.2633 28.7597Z" fill="white"/>
<path d="M29.2558 13.2328L13.6994 28.7891C13.3091 29.1794 12.6572 29.1611 12.2442 28.7481C11.8312 28.3352 11.8129 27.6832 12.2032 27.2929L27.7595 11.7365C28.1499 11.3462 28.8018 11.3646 29.2148 11.7775C29.6277 12.1905 29.6461 12.8424 29.2558 13.2328Z" fill="white"/>
</g>
<defs>
<clipPath id="clip0_6392_172808">
<rect width="40" height="40" fill="white"/>
</clipPath>
</defs>
</svg>
