<svg width="26" height="26" viewBox="0 0 26 26" fill="none" xmlns="http://www.w3.org/2000/svg">
<path fill-rule="evenodd" clip-rule="evenodd" d="M21.0222 11.5102C21.0222 16.7625 16.7643 21.0203 11.512 21.0203C6.25968 21.0203 2.00183 16.7625 2.00183 11.5102C2.00183 6.25784 6.25968 2 11.512 2C16.7643 2 21.0222 6.25784 21.0222 11.5102ZM18.58 19.2889C16.7134 20.986 14.2335 22.0203 11.512 22.0203C5.70739 22.0203 1.00183 17.3148 1.00183 11.5102C1.00183 5.70556 5.70739 1 11.512 1C17.3166 1 22.0222 5.70556 22.0222 11.5102C22.0222 14.2335 20.9864 16.7149 19.2872 18.582L25 24.2947L24.2929 25.0018L18.58 19.2889Z" fill="#FEB303"/>
<path d="M18.58 19.2889L18.9335 18.9354L18.5964 18.5982L18.2436 18.9189L18.58 19.2889ZM19.2872 18.582L18.9175 18.2454L18.5964 18.5982L18.9337 18.9355L19.2872 18.582ZM25 24.2947L25.3535 24.6483L25.7071 24.2947L25.3535 23.9412L25 24.2947ZM24.2929 25.0018L23.9393 25.3554L24.2929 25.7089L24.6464 25.3554L24.2929 25.0018ZM11.512 21.5203C17.0405 21.5203 21.5222 17.0386 21.5222 11.5102H20.5222C20.5222 16.4863 16.4882 20.5203 11.512 20.5203V21.5203ZM1.50183 11.5102C1.50183 17.0386 5.98353 21.5203 11.512 21.5203V20.5203C6.53582 20.5203 2.50183 16.4863 2.50183 11.5102H1.50183ZM11.512 1.5C5.98353 1.5 1.50183 5.9817 1.50183 11.5102H2.50183C2.50183 6.53399 6.53582 2.5 11.512 2.5V1.5ZM21.5222 11.5102C21.5222 5.9817 17.0405 1.5 11.512 1.5V2.5C16.4882 2.5 20.5222 6.53399 20.5222 11.5102H21.5222ZM11.512 22.5203C14.3626 22.5203 16.9613 21.4363 18.9163 19.6589L18.2436 18.9189C16.4654 20.5356 14.1043 21.5203 11.512 21.5203V22.5203ZM0.501831 11.5102C0.501831 17.5909 5.43125 22.5203 11.512 22.5203V21.5203C5.98353 21.5203 1.50183 17.0386 1.50183 11.5102H0.501831ZM11.512 0.5C5.43125 0.5 0.501831 5.42942 0.501831 11.5102H1.50183C1.50183 5.9817 5.98353 1.5 11.512 1.5V0.5ZM22.5222 11.5102C22.5222 5.42942 17.5927 0.5 11.512 0.5V1.5C17.0405 1.5 21.5222 5.9817 21.5222 11.5102H22.5222ZM19.657 18.9185C21.4367 16.963 22.5222 14.3628 22.5222 11.5102H21.5222C21.5222 14.1042 20.5361 16.4669 18.9175 18.2454L19.657 18.9185ZM18.9337 18.9355L24.6464 24.6483L25.3535 23.9412L19.6408 18.2284L18.9337 18.9355ZM24.6464 23.9412L23.9393 24.6483L24.6464 25.3554L25.3535 24.6483L24.6464 23.9412ZM24.6464 24.6483L18.9335 18.9354L18.2264 19.6425L23.9393 25.3554L24.6464 24.6483Z" fill="#CC9900"/>
</svg>
