<svg width="16" height="16" viewBox="0 0 16 16" fill="none" xmlns="http://www.w3.org/2000/svg">
<path fill-rule="evenodd" clip-rule="evenodd" d="M1.74854 6.92154C1.74854 5.53671 2.29866 4.20859 3.27789 3.22936C4.25711 2.25014 5.58523 1.70001 6.97007 1.70001C8.3549 1.70001 9.68302 2.25014 10.6622 3.22936C11.6415 4.20859 12.1916 5.53671 12.1916 6.92154C12.1916 8.0539 11.8238 9.14833 11.1543 10.0451L14.1304 13.0208C14.4233 13.3137 14.4234 13.7885 14.1305 14.0814C13.8376 14.3744 13.3627 14.3744 13.0698 14.0815L10.0937 11.1058C9.19687 11.7753 8.10243 12.1431 6.97007 12.1431C5.58523 12.1431 4.25711 11.5929 3.27789 10.6137C2.29866 9.6345 1.74854 8.30638 1.74854 6.92154ZM9.58656 9.56801C8.89011 10.2566 7.95001 10.6431 6.97007 10.6431C5.98305 10.6431 5.03647 10.251 4.33855 9.55306C3.64062 8.85514 3.24854 7.90855 3.24854 6.92154C3.24854 5.93453 3.64062 4.98795 4.33855 4.29002C5.03647 3.5921 5.98305 3.20001 6.97007 3.20001C7.95708 3.20001 8.90366 3.5921 9.60158 4.29002C10.2995 4.98795 10.6916 5.93453 10.6916 6.92154C10.6916 7.90151 10.3051 8.84162 9.61649 9.53807C9.61136 9.54292 9.60629 9.54785 9.60127 9.55287C9.59628 9.55787 9.59138 9.56291 9.58656 9.56801Z" fill="white"/>
</svg>
