<svg width="26" height="26" viewBox="0 0 26 26" fill="none" xmlns="http://www.w3.org/2000/svg">
<path d="M2.375 10.1667C2.375 5.86344 5.86344 2.375 10.1667 2.375C14.4699 2.375 17.9583 5.86344 17.9583 10.1667C17.9583 14.4699 14.4699 17.9583 10.1667 17.9583C5.86344 17.9583 2.375 14.4699 2.375 10.1667ZM10.1667 0.25C4.68985 0.25 0.25 4.68985 0.25 10.1667C0.25 15.6435 4.68985 20.0833 10.1667 20.0833C12.5223 20.0833 14.6861 19.2619 16.3874 17.8901L23.9362 25.4388C24.3512 25.8537 25.0238 25.8537 25.4388 25.4388C25.8537 25.0238 25.8537 24.3512 25.4388 23.9362L17.8901 16.3874C19.2619 14.6861 20.0833 12.5223 20.0833 10.1667C20.0833 4.68985 15.6435 0.25 10.1667 0.25Z" fill="#3395D7"/>
</svg>
