<svg width="24" height="25" viewBox="0 0 24 25" fill="none" xmlns="http://www.w3.org/2000/svg">
<circle cx="12" cy="12.249" r="12" fill="#00788A"/>
<path d="M8.87676 18.9889C7.29238 18.9863 6.00254 17.6965 6 16.1121V9.12969C6.00254 7.54531 7.29238 6.25547 8.87676 6.25293H11.3295C11.5961 6.25293 11.8119 6.46875 11.8119 6.73535C11.8119 7.00195 11.5961 7.21777 11.3295 7.21777H8.87676C7.82305 7.21777 6.96484 8.07598 6.9623 9.12969V16.1096C6.9623 17.1633 7.82305 18.024 8.87676 18.024H15.8566C16.9104 18.024 17.7711 17.1633 17.7711 16.1096V13.6568C17.7711 13.3902 17.9869 13.1744 18.2535 13.1744C18.5201 13.1744 18.7359 13.3902 18.7359 13.6568V16.1096C18.7334 17.6939 17.4436 18.9863 15.8592 18.9863H8.87676V18.9889Z" fill="white" stroke="white" stroke-width="0.5"/>
<path d="M12.362 13.1045C12.2325 13.1045 12.1132 13.0537 12.0218 12.9623C11.8339 12.7744 11.8339 12.4697 12.0218 12.2818L16.8765 7.42969C16.912 7.39414 16.9247 7.33828 16.9044 7.29004C16.8841 7.2418 16.8384 7.21133 16.7851 7.21133H14.4669C14.3349 7.21133 14.2028 7.15547 14.1089 7.06152C14.0175 6.96758 13.9692 6.84824 13.9718 6.72129C13.9769 6.4623 14.1927 6.24902 14.4542 6.24902H18.2425C18.5167 6.24902 18.7401 6.47246 18.7401 6.74668V10.5299C18.7401 10.7965 18.5243 11.0123 18.2577 11.0123C17.9911 11.0123 17.7753 10.7965 17.7753 10.5299V8.20156C17.7753 8.15078 17.7448 8.10254 17.6966 8.08223C17.6813 8.07461 17.6636 8.07207 17.6483 8.07207C17.6153 8.07207 17.5823 8.08477 17.5569 8.11016L12.7022 12.9648C12.6134 13.0563 12.4915 13.1045 12.362 13.1045Z" fill="white" stroke="white" stroke-width="0.5"/>
</svg>
