<svg width="25" height="25" viewBox="0 0 25 25" fill="none" xmlns="http://www.w3.org/2000/svg">
<path d="M21.2164 4.22752L21.2163 4.22745C18.8915 1.90274 15.788 0.617188 12.5002 0.617188C9.21246 0.617188 6.10898 1.90274 3.78417 4.22745L3.78409 4.22752C1.45938 6.55233 0.173828 9.65582 0.173828 12.9436C0.173828 16.2314 1.45938 19.3349 3.78409 21.6597L3.78417 21.6598C6.10897 23.9845 9.21246 25.27 12.5002 25.27C15.788 25.27 18.8915 23.9845 21.2163 21.6598L21.2164 21.6597C23.5411 19.3349 24.8267 16.2314 24.8267 12.9436C24.8267 9.65582 23.5411 6.55233 21.2164 4.22752Z" fill="#00788A" stroke="white" stroke-width="5"/>
<path d="M10.0117 16.7569L16.6117 12.9449L10.0117 9.13281V16.7569Z" fill="white"/>
</svg>
