<svg width="32" height="32" viewBox="0 0 32 32" fill="none" xmlns="http://www.w3.org/2000/svg">
<circle cx="16" cy="16" r="16" fill="#2638C4"/>
<path d="M13.9972 18.4212V18.1676C14.0021 17.2976 14.0792 16.604 14.2283 16.087C14.3825 15.57 14.6062 15.1523 14.8995 14.8342C15.1928 14.516 15.5458 14.2276 15.9585 13.9691C16.2667 13.7702 16.5426 13.5639 16.7862 13.3501C17.0298 13.1364 17.2237 12.9002 17.3679 12.6417C17.5121 12.3782 17.5842 12.0849 17.5842 11.7617C17.5842 11.4187 17.5021 11.1179 17.3381 10.8594C17.174 10.6009 16.9528 10.402 16.6744 10.2628C16.4009 10.1236 16.0977 10.054 15.7646 10.054C15.4414 10.054 15.1357 10.1261 14.8473 10.2702C14.5589 10.4094 14.3228 10.6183 14.1388 10.8967C13.9549 11.1701 13.8555 11.5107 13.8406 11.9183H10.7979C10.8228 10.924 11.0614 10.1037 11.5138 9.45739C11.9663 8.80611 12.5653 8.32138 13.3111 8.0032C14.0568 7.68004 14.8796 7.51847 15.7795 7.51847C16.7688 7.51847 17.6438 7.68253 18.4045 8.01065C19.1651 8.33381 19.7617 8.80362 20.1942 9.4201C20.6268 10.0366 20.843 10.7798 20.843 11.6499C20.843 12.2315 20.7461 12.7486 20.5522 13.201C20.3633 13.6484 20.0973 14.0462 19.7543 14.3942C19.4112 14.7372 19.006 15.0479 18.5387 15.3263C18.146 15.56 17.8228 15.8036 17.5692 16.0572C17.3207 16.3107 17.1342 16.604 17.0099 16.9371C16.8906 17.2702 16.8285 17.6804 16.8235 18.1676V18.4212H13.9972ZM15.4737 23.1939C14.9766 23.1939 14.5515 23.0199 14.1985 22.6719C13.8505 22.3189 13.679 21.8963 13.6839 21.4041C13.679 20.9169 13.8505 20.4993 14.1985 20.1513C14.5515 19.8033 14.9766 19.6293 15.4737 19.6293C15.946 19.6293 16.3612 19.8033 16.7191 20.1513C17.0771 20.4993 17.2585 20.9169 17.2635 21.4041C17.2585 21.7322 17.1715 22.033 17.0025 22.3065C16.8384 22.5749 16.6222 22.7912 16.3537 22.9553C16.0852 23.1143 15.7919 23.1939 15.4737 23.1939Z" fill="white"/>
</svg>
