<svg width="28" height="28" viewBox="0 0 28 28" fill="none" xmlns="http://www.w3.org/2000/svg">
<path d="M14.0052 14.8854C11.0597 14.8854 8.67188 12.4976 8.67188 9.55208C8.67188 6.60653 11.0597 4.21875 14.0052 4.21875C16.9508 4.21875 19.3385 6.60653 19.3385 9.55208C19.3385 12.4976 16.9508 14.8854 14.0052 14.8854ZM14.0052 5.99653C12.0413 5.99653 10.4497 7.58819 10.4497 9.55208C10.4497 11.516 12.0413 13.1076 14.0052 13.1076C15.9691 13.1076 17.5608 11.516 17.5608 9.55208C17.5608 7.58819 15.9691 5.99653 14.0052 5.99653Z" fill="#3395D7"/>
<path d="M14.0066 27.3317C10.015 27.329 6.23497 25.5384 3.70441 22.4517L3.24219 21.8828L3.70441 21.3228C8.37885 15.6328 16.7811 14.8101 22.4705 19.4845C23.1416 20.0356 23.7572 20.6517 24.3089 21.3228L24.7711 21.8828L24.3089 22.4517C21.7783 25.5384 17.9983 27.329 14.0066 27.3317ZM5.57108 21.8917C9.92774 26.5556 17.24 26.8045 21.9039 22.4478C22.0955 22.269 22.2811 22.0834 22.46 21.8917C18.1033 17.2278 10.7911 16.979 6.12719 21.3356C5.93552 21.5145 5.74996 21.7001 5.57108 21.8917Z" fill="#3395D7"/>
<path d="M14.0063 27.3307C6.6424 27.3357 0.669066 21.3702 0.664066 14.0063C0.659066 6.6424 6.62462 0.669066 13.9885 0.664066C21.3524 0.659066 27.3257 6.62462 27.3307 13.9885C27.333 17.0741 26.2646 20.0646 24.3085 22.4507C21.778 25.5374 17.998 27.328 14.0063 27.3307ZM14.0063 2.44184C7.62407 2.44184 2.45073 7.61518 2.45073 13.9974C2.45073 20.3796 7.62407 25.553 14.0063 25.553C20.3885 25.553 25.5618 20.3796 25.5618 13.9974C25.5618 7.61518 20.3885 2.44184 14.0063 2.44184Z" fill="#3395D7"/>
<path d="M4.38806 21.8886C4.38806 21.8886 13.3392 31.8886 22.4503 22.8841L23.6236 21.8886C23.6236 21.8886 16.0147 13.9952 8.29028 18.733L4.38806 21.8886Z" fill="#3395D7"/>
<path d="M14.0083 13.9983C16.4629 13.9983 18.4527 12.0084 18.4527 9.55382C18.4527 7.09922 16.4629 5.10938 14.0083 5.10938C11.5537 5.10938 9.56384 7.09922 9.56384 9.55382C9.56384 12.0084 11.5537 13.9983 14.0083 13.9983Z" fill="#3395D7"/>
</svg>
