<svg xmlns="http://www.w3.org/2000/svg" width="49" height="34" viewBox="0 0 49 34" fill="none">
    <path d="M48.0219 7.40468C48.0219 7.40468 47.5531 4.0953 46.1094 2.64218C44.2812 0.729676 42.2375 0.7203 41.3 0.6078C34.5875 0.1203 24.5094 0.1203 24.5094 0.1203H24.4906C24.4906 0.1203 14.4125 0.1203 7.7 0.6078C6.7625 0.7203 4.71875 0.729676 2.89062 2.64218C1.44688 4.0953 0.9875 7.40468 0.9875 7.40468C0.9875 7.40468 0.5 11.2953 0.5 15.1766V18.814C0.5 22.6953 0.978125 26.5859 0.978125 26.5859C0.978125 26.5859 1.44687 29.8953 2.88125 31.3484C4.70937 33.2609 7.10938 33.1953 8.17813 33.4016C12.0219 33.7672 24.5 33.8797 24.5 33.8797C24.5 33.8797 34.5875 33.8609 41.3 33.3828C42.2375 33.2703 44.2812 33.2609 46.1094 31.3484C47.5531 29.8953 48.0219 26.5859 48.0219 26.5859C48.0219 26.5859 48.5 22.7047 48.5 18.814V15.1766C48.5 11.2953 48.0219 7.40468 48.0219 7.40468ZM19.5406 23.2297V9.73905L32.5062 16.5078L19.5406 23.2297Z" fill="white"/>
</svg>
