<svg width="32" height="24" viewBox="0 0 32 24" fill="none" xmlns="http://www.w3.org/2000/svg">
<path d="M31.6812 5.76641C31.6812 5.76641 31.3688 3.56016 30.4062 2.59141C29.1875 1.31641 27.825 1.31016 27.2 1.23516C22.725 0.910156 16.0063 0.910156 16.0063 0.910156H15.9937C15.9937 0.910156 9.275 0.910156 4.8 1.23516C4.175 1.31016 2.8125 1.31641 1.59375 2.59141C0.63125 3.56016 0.325 5.76641 0.325 5.76641C0.325 5.76641 0 8.36016 0 10.9477V13.3727C0 15.9602 0.31875 18.5539 0.31875 18.5539C0.31875 18.5539 0.63125 20.7602 1.5875 21.7289C2.80625 23.0039 4.40625 22.9602 5.11875 23.0977C7.68125 23.3414 16 23.4164 16 23.4164C16 23.4164 22.725 23.4039 27.2 23.0852C27.825 23.0102 29.1875 23.0039 30.4062 21.7289C31.3688 20.7602 31.6812 18.5539 31.6812 18.5539C31.6812 18.5539 32 15.9664 32 13.3727V10.9477C32 8.36016 31.6812 5.76641 31.6812 5.76641ZM12.6938 16.3164V7.32266L21.3375 11.8352L12.6938 16.3164Z" fill="#54A4DB"/>
</svg>
