<?xml version="1.0" encoding="utf-8"?><svg xmlns="http://www.w3.org/2000/svg" xmlns:xlink="http://www.w3.org/1999/xlink"><symbol fill="none" viewBox="0 0 96 96" id="GCRPC-Gold-Icon-Play" xmlns="http://www.w3.org/2000/svg"><circle cx="48" cy="48" r="48" fill="#C90"/><path fill-rule="evenodd" clip-rule="evenodd" d="M65.496 50.59c2.002-1.154 2.002-4.043 0-5.197L39.499 30.398c-2-1.154-4.499.29-4.499 2.599v29.99c0 2.309 2.499 3.752 4.499 2.598L65.496 50.59Z" fill="#fff"/></symbol><symbol fill="none" viewBox="0 0 34 32" id="GCRPC-Hamburger" xmlns="http://www.w3.org/2000/svg"><path d="M1 7h32M1 15.758h32M1 24.516h32" stroke="#12264F" stroke-width="2" stroke-linecap="round"/></symbol><symbol fill="none" viewBox="0 0 35 25" id="Group-icon" xmlns="http://www.w3.org/2000/svg"><path d="M33.642 4.642c-.178-1.483-1.576-2.906-3.039-3.096a108.88 108.88 0 0 0-26.856 0C2.283 1.736.885 3.159.707 4.642a69.22 69.22 0 0 0 0 16.145c.178 1.483 1.576 2.907 3.04 3.096a108.88 108.88 0 0 0 26.856 0c1.463-.189 2.861-1.613 3.039-3.096a69.21 69.21 0 0 0 0-16.145Zm-19.29 13.72V7.068l8.47 5.647-8.47 5.647Z" fill="#0F1E8C"/></symbol><symbol fill="none" viewBox="0 0 25 21" id="Group-icon2" xmlns="http://www.w3.org/2000/svg"><path d="M24.235 3.273c-.892.391-1.843.65-2.835.777a4.893 4.893 0 0 0 2.165-2.72 9.833 9.833 0 0 1-3.12 1.191 4.919 4.919 0 0 0-8.511 3.365c0 .39.033.765.114 1.122-4.09-.2-7.71-2.16-10.142-5.147a4.954 4.954 0 0 0-.673 2.487c0 1.704.877 3.215 2.185 4.09a4.859 4.859 0 0 1-2.223-.607v.054a4.943 4.943 0 0 0 3.942 4.835c-.4.11-.837.162-1.29.162a4.35 4.35 0 0 1-.931-.084c.637 1.948 2.446 3.38 4.597 3.427a9.886 9.886 0 0 1-6.1 2.099c-.404 0-.79-.018-1.178-.068a13.852 13.852 0 0 0 7.548 2.208c9.054 0 14.004-7.5 14.004-14 0-.218-.007-.428-.018-.637a9.816 9.816 0 0 0 2.466-2.554Z" fill="#0F1E8C"/></symbol><symbol fill="none" viewBox="0 0 25 24" id="Group-icon3" xmlns="http://www.w3.org/2000/svg"><path d="M3.146.244C1.386.244.236 1.4.236 2.92c0 1.485 1.116 2.674 2.842 2.674h.034c1.794 0 2.91-1.189 2.91-2.674C5.99 1.399 4.907.244 3.147.244ZM.54 7.706h5.145v15.478H.54V7.706ZM18.312 7.343c-2.776 0-4.637 2.608-4.637 2.608V7.706H8.53v15.478h5.145v-8.643c0-.463.034-.925.17-1.256.371-.924 1.218-1.881 2.64-1.881 1.86 0 2.605 1.42 2.605 3.5v8.28h5.145V14.31c0-4.754-2.538-6.966-5.923-6.966Z" fill="#0F1E8C"/></symbol><symbol fill="none" viewBox="0 0 41 40" id="MARCO-Icon-Download" xmlns="http://www.w3.org/2000/svg"><ellipse cx="20.5" cy="19.875" rx="20.132" ry="19.875" fill="#fff"/><path d="M29.83 27.147H12.152c-.26 0-.51.102-.694.284a.963.963 0 0 0 0 1.371.989.989 0 0 0 .694.284H29.83c.26 0 .51-.102.694-.284a.963.963 0 0 0 0-1.37.988.988 0 0 0-.695-.285ZM20.991 10.665c-.26 0-.51.102-.694.284a.963.963 0 0 0-.287.685v10.264l-3.23-3.199a.992.992 0 0 0-1.393 0 .967.967 0 0 0 0 1.377l4.907 4.845a.983.983 0 0 0 .697.287.992.992 0 0 0 .697-.287l4.907-4.845a.972.972 0 0 0 .288-.689.961.961 0 0 0-.288-.688.986.986 0 0 0-.697-.285.996.996 0 0 0-.697.285l-3.229 3.199V11.634a.963.963 0 0 0-.287-.685.988.988 0 0 0-.694-.284Z" fill="#FFA400"/></symbol><symbol fill="none" viewBox="0 0 16 16" id="Search" xmlns="http://www.w3.org/2000/svg"><path fill-rule="evenodd" clip-rule="evenodd" d="M1.749 6.922a5.222 5.222 0 1 1 9.405 3.123l2.976 2.976a.75.75 0 1 1-1.06 1.06l-2.976-2.975a5.222 5.222 0 0 1-8.345-4.184Zm7.838 2.646a3.721 3.721 0 1 1-5.233-5.293 3.721 3.721 0 0 1 5.233 5.293Z" fill="#fff"/></symbol><symbol fill="none" viewBox="0 0 26 26" id="Search-Icon" xmlns="http://www.w3.org/2000/svg"><path d="m24.273 24.275-7.087-7.087" stroke="#fff" stroke-width="2" stroke-miterlimit="10" stroke-linecap="round"/><path d="M10.482 19.963A9.482 9.482 0 1 0 1 10.482a9.482 9.482 0 0 0 9.482 9.481Z" stroke="#fff" stroke-width="2" stroke-miterlimit="10" stroke-linecap="square"/></symbol><symbol fill="none" viewBox="0 0 21 20" id="Slide-circle" xmlns="http://www.w3.org/2000/svg"><path d="M0 10C0 4.477 4.477 0 10 0h1c5.523 0 10 4.477 10 10s-4.477 10-10 10h-1C4.477 20 0 15.523 0 10Z" fill="#48D3CD"/></symbol><symbol fill="none" viewBox="0 0 25 25" id="Teal-play-icon" xmlns="http://www.w3.org/2000/svg"><path d="M21.216 4.228A12.262 12.262 0 0 0 12.5.617a12.262 12.262 0 0 0-8.716 3.61 12.262 12.262 0 0 0-3.61 8.716c0 3.287 1.285 6.39 3.61 8.716a12.262 12.262 0 0 0 8.716 3.61c3.288 0 6.392-1.285 8.716-3.61a12.262 12.262 0 0 0 3.61-8.716c0-3.288-1.285-6.392-3.61-8.716Z" fill="#00788A" stroke="#fff" stroke-width="5"/><path d="m10.012 16.757 6.6-3.812-6.6-3.812v7.624Z" fill="#fff"/></symbol><symbol fill="none" viewBox="0 0 48 48" id="accessibility" xmlns="http://www.w3.org/2000/svg"><path d="M24 48c13.255 0 24-10.745 24-24S37.255 0 24 0 0 10.745 0 24s10.745 24 24 24Z" fill="#fff"/><path d="M46.002 24.072a21.931 21.931 0 1 1-43.862 0 21.931 21.931 0 0 1 43.862 0Zm-40.307 0a18.376 18.376 0 1 0 36.752 0 18.376 18.376 0 0 0-36.752 0Zm35.367 0a16.99 16.99 0 1 1-16.99-16.99 16.971 16.971 0 0 1 16.992 16.99h-.002Zm-5.543-6.145a1.382 1.382 0 0 0-1.687-1.025c-8.553 1.988-10.966 1.988-19.521 0a1.396 1.396 0 1 0-.663 2.712A55.223 55.223 0 0 0 20.938 21c-.06 8.916-1.084 10.909-2.229 13.736a1.583 1.583 0 1 0 2.953 1.145 26.156 26.156 0 0 0 1.988-6.928h.844a24.827 24.827 0 0 0 1.988 6.928 1.584 1.584 0 1 0 2.952-1.145c-1.145-2.892-2.108-4.82-2.229-13.736a59.18 59.18 0 0 0 7.29-1.386 1.371 1.371 0 0 0 1.024-1.687Zm-14.64-3.736a3.194 3.194 0 1 0 3.192-3.193 3.176 3.176 0 0 0-3.193 3.193Z" fill="#0F1E8C"/></symbol><symbol viewBox="0 0 50 50" style="enable-background:new 0 0 50 50" xml:space="preserve" id="accessibility-icon-biggertext" xmlns="http://www.w3.org/2000/svg"><path d="M20.5 32.2h-9l-2.2 8.4H1.9l9.6-31.1h9.3l8.1 25.7 5.3-16.9H41l7.1 22.4h-5.6l-1.8-6.1h-6.5l-1.6 6.1H23l-2.5-8.5zm-8-5.1h6.9l-2-6.6-.8-3-.8-3h-.1l-.7 3-.7 3.1-1.8 6.5zm22.4 3.7H40L38.5 26l-.6-2.2-.6-2.2h-.1l-.5 2.2-.4 2.2-1.4 4.8zM31.5 9.5h11.7l-5.8 5.8-5.9-5.8z" style="fill:#231f20"/></symbol><symbol viewBox="0 0 50 50" style="enable-background:new 0 0 50 50" xml:space="preserve" id="accessibility-icon-contrast" xmlns="http://www.w3.org/2000/svg"><path d="M25 3.5C13.1 3.5 3.5 13.1 3.5 25S13.1 46.5 25 46.5 46.5 36.9 46.5 25 36.9 3.5 25 3.5zM26.3 44V6C36 6.7 44 14.8 44 25s-8 18.3-17.7 19z" style="fill:#231f20"/></symbol><symbol id="accessibility-icon-cursor" viewBox="0 0 50 50" style="enable-background:new 0 0 50 50" xml:space="preserve" xmlns="http://www.w3.org/2000/svg"><style>.acst0{fill:#231f20}</style><path class="acst0" d="M24.5 46.1c-.3 0-.6-.2-.7-.4l-4.5-10.3-7.6 7.3c-.1.1-.3.2-.5.2-.1 0-.2 0-.3-.1-.3-.1-.5-.4-.5-.7V4.5c0-.3.2-.6.4-.7.1 0 .2-.1.3-.1.2 0 .4.1.5.2l27.7 25.4c.2.2.3.5.2.8-.1.3-.4.5-.7.5l-10.5.7 4.5 10.3c.2.4 0 .8-.4 1L24.7 46c0 .1-.1.1-.2.1zm-4.1-16.8h.1c.2 0 .4.2.5.4l5 11.5 2-.9-5-11.5c-.1-.2-.1-.5 0-.7.1-.2.3-.3.6-.4l7.7-.5-17-15.7v23.1l5.6-5.3c.1.1.3 0 .5 0z"/><path class="acst0" d="M38.8 30 11.2 4.6v37.6l8.4-8 4.9 11.2 7.7-3.4-4.9-11.2 11.5-.8zM29 40.8l-3.3 1.5-5.3-12.2-6.8 6.5V10l19.5 18-9.4.6L29 40.8z"/></symbol><symbol id="accessibility-icon-highlightlinks" viewBox="0 0 50 50" style="enable-background:new 0 0 50 50" xml:space="preserve" xmlns="http://www.w3.org/2000/svg"><style>.adst0{fill:#231f20}</style><path class="adst0" d="M27.2 33.4H27c-1.3 0-2.7-.3-3.9-.8-.2-.1-.5 0-.7.1l-4.6 4.6c-1.4 1.4-3.7 1.4-5.2 0-1.4-1.4-1.4-3.7 0-5.2l7.8-7.8c1.4-1.4 3.7-1.4 5.2 0 1 .9 2.5.9 3.4 0 .4-.4.7-1 .7-1.5 0-.7-.2-1.4-.7-1.9-.4-.4-.9-.8-1.4-1.2-1.4-.9-3-1.3-4.6-1.3-2.3 0-4.4.9-6 2.5l-7.8 7.8c-1.6 1.6-2.5 3.8-2.5 6 0 4.7 3.8 8.5 8.5 8.5 2.3 0 4.4-.9 6-2.5l6.4-6.4c.1-.1.2-.3.2-.4.1-.3-.2-.5-.6-.5z"/><path class="adst0" d="M40.8 9.2c-3.3-3.3-8.7-3.3-12.1 0l-6.4 6.4c-.2.2-.2.4-.1.7.1.2.3.4.6.4h.2c1.3 0 2.7.3 3.9.8.2.1.5 0 .7-.1l4.6-4.6c1.4-1.4 3.7-1.4 5.2 0 1.4 1.4 1.4 3.7 0 5.2l-5.7 5.7v.1l-2 2c-1.4 1.4-3.7 1.4-5.2 0-1-.9-2.5-.9-3.4 0-.4.4-.7 1-.7 1.6 0 .7.2 1.4.7 1.9.7.7 1.5 1.3 2.4 1.7.1.1.3.1.4.2.1.1.3.1.4.1.1 0 .3.1.4.1l.4.1c.2.1.5.1.7.2.3 0 .6.1.9.1H28l.4-.1h.2l.4-.1h.1c1.5-.4 2.9-1.2 4-2.2l7.8-7.8c3.2-3.7 3.2-9.1-.1-12.4z"/></symbol><symbol id="accessibility-icon-letterspacing" viewBox="0 0 50 50" style="enable-background:new 0 0 50 50" xml:space="preserve" xmlns="http://www.w3.org/2000/svg"><style>.aest0{fill:#231f20}</style><path class="aest0" d="M14.1 11.9c1.2 0 2.2-1 2.2-2.2V7.5h6.6v19.7h-2.2c-1.2 0-2.2 1-2.2 2.2 0 1.2 1 2.2 2.2 2.2h8.7c1.2 0 2.2-1 2.2-2.2 0-1.2-1-2.2-2.2-2.2h-2.2V7.5h6.6v2.2c0 1.2 1 2.2 2.2 2.2s2.2-1 2.2-2.2V5.3c0-1.2-1-2.2-2.2-2.2H14.1c-1.2 0-2.2 1-2.2 2.2v4.4c0 1.2 1 2.2 2.2 2.2z"/><path class="aest0" d="M48.4 36.6 41.9 30c-.9-.8-2.3-.8-3.1.1-.8.8-.8 2.2 0 3l2.8 2.8H8.4l2.8-2.8c.8-.9.8-2.3-.1-3.1-.8-.8-2.2-.8-3 0l-6.6 6.6c-.9.9-.9 2.2 0 3.1l6.6 6.6c.8.9 2.2.9 3.1.1.9-.8.9-2.2.1-3.1l-.1-.1-2.8-2.8h33.2l-2.8 2.8c-.9.8-.9 2.2-.1 3.1s2.2.9 3.1.1l.1-.1 6.6-6.6c.8-.9.8-2.3-.1-3.1z"/></symbol><symbol id="accessibility-icon-pauseanimations" viewBox="0 0 50 50" style="enable-background:new 0 0 50 50" xml:space="preserve" xmlns="http://www.w3.org/2000/svg"><style>.afst0{fill:#231f20}</style><path class="afst0" d="M25 2.5C12.6 2.5 2.5 12.6 2.5 25S12.6 47.5 25 47.5 47.5 37.4 47.5 25 37.4 2.5 25 2.5zm0 40.9C14.8 43.4 6.6 35.2 6.6 25S14.8 6.6 25 6.6 43.4 14.8 43.4 25 35.2 43.4 25 43.4z"/><path class="afst0" d="M18.9 16.8H23v16.4h-4.1zM27 16.8h4.1v16.4H27z"/></symbol><symbol fill="none" viewBox="0 0 28 20" id="action-teams-icon" xmlns="http://www.w3.org/2000/svg"><g fill="#fff" stroke-width=".15"><path d="M16.17 8.463a4.079 4.079 0 0 0 1.911-3.454A4.088 4.088 0 0 0 13.998.925a4.088 4.088 0 0 0-4.084 4.084c0 1.453.763 2.73 1.912 3.454-2.16.76-3.923 2.7-4.05 5.813v3.649c0 .636.516 1.15 1.151 1.15h10.14a1.15 1.15 0 0 0 1.151-1.15v-3.649c-.126-3.112-1.889-5.052-4.049-5.813Zm-5.222-3.454a3.05 3.05 0 0 1 3.045-3.045 3.045 3.045 0 0 1 .005 6.09 3.053 3.053 0 0 1-3.05-3.045Zm8.236 12.916a.117.117 0 0 1-.116.116H8.928a.117.117 0 0 1-.117-.116v-3.646a5.19 5.19 0 0 1 5.187-5.186 5.19 5.19 0 0 1 5.186 5.186v3.646Z" stroke="#90C6E9"/><path d="M5.46 8.767a2.453 2.453 0 1 0-.03 0h.03Zm0 0h-.001m0 0h-.001m0 0h-.001m0 0h-.001m0 0h-.001m0 0h-.001m0 0h-.001m0 0h-.001m0 0H5.45m0 0H5.45m0 0h-.001m0 0h-.001m0 0h-.001m0 0h-.001m0 0h-.001m0 0h-.001m0 0h-.001m0 0h-.001m0 0H5.44m0 0h-.001m0 0h-.001m0 0h-.001m0 0h-.001m0 0h-.001m0 0h-.001m0 0h-.001m0 0h-.001m0 0h-.001m0 0H5.43m0 0Zm2.743 1.349.001-.004a.503.503 0 0 0 .044-.337.591.591 0 0 0-.17-.282c-.137-.136-.343-.249-.576-.341a3.487 3.487 0 0 0 1.461-2.835 3.495 3.495 0 0 0-3.49-3.49 3.495 3.495 0 0 0-3.489 3.49c0 1.179.59 2.22 1.488 2.851a5.273 5.273 0 0 0-3.276 4.877v3.036c0 .577.471 1.048 1.048 1.048h5.11a.491.491 0 0 0 .382-.165.542.542 0 0 0 .127-.355.542.542 0 0 0-.127-.355.491.491 0 0 0-.383-.165h-5.11c.001 0 .001 0 0 0 0 0-.002 0-.004-.003l-.004-.005v-3.036a4.239 4.239 0 0 1 4.215-4.239h.033c.7.005 1.396.179 2.013.517a.52.52 0 0 0 .707-.207ZM27.835 16.956l.003-.001v.12a1.05 1.05 0 0 1-1.048 1.049h-5.11a.497.497 0 0 1-.51-.52.497.497 0 0 1 .51-.52h5.11s.002 0 .005-.003.003-.005.003-.005V14.04a4.217 4.217 0 0 0-1.24-2.998c-1.289-1.322-3.418-1.622-5.025-.724a.496.496 0 0 1-.699-.208.494.494 0 0 1 .198-.7m7.803 7.546L20.614 9.21a4.797 4.797 0 0 0-.545.266l-.036-.066m7.802 7.546v-.01c-.002-.082-.002-.2-.003-.342a338.073 338.073 0 0 1-.004-2.085v-.474c.043-2.257-1.408-4.077-3.29-4.86a3.477 3.477 0 0 0 1.506-2.868 3.495 3.495 0 0 0-3.489-3.49 3.495 3.495 0 0 0-3.49 3.49c0 1.175.582 2.21 1.475 2.843-.17.072-.34.155-.508.25m7.803 7.546L20.032 9.41m4.978-3.093a2.461 2.461 0 0 1-2.43 2.45H22.54a2.456 2.456 0 0 1-2.436-2.45 2.457 2.457 0 0 1 2.45-2.455 2.458 2.458 0 0 1 2.455 2.455Z" stroke="#fff"/></g></symbol><symbol fill="none" viewBox="0 0 27 19" id="announcements-icon" xmlns="http://www.w3.org/2000/svg"><path d="M16.696 9.285a3.364 3.364 0 1 1-6.727 0 3.364 3.364 0 0 1 6.727 0ZM4.616 18A12.295 12.295 0 0 1 1 9.283C1 5.883 2.383 2.8 4.616.567M22.047.567a12.295 12.295 0 0 1 3.616 8.716c0 3.4-1.383 6.484-3.616 8.717M18.879 14.828a7.824 7.824 0 0 0 2.301-5.547c0-2.164-.88-4.126-2.301-5.547M7.786 3.734a7.824 7.824 0 0 0-2.302 5.547c0 2.164.88 4.126 2.302 5.547" stroke="#fff" stroke-width="1.4" stroke-miterlimit="10"/></symbol><symbol fill="none" viewBox="0 0 25 26" id="ant-design_instagram-filled" xmlns="http://www.w3.org/2000/svg"><g clip-path="url(#aja)"><path d="M12.507 9.062a4.01 4.01 0 0 0-4.002 4.001 4.01 4.01 0 0 0 4.002 4.002 4.01 4.01 0 0 0 4.001-4.002 4.01 4.01 0 0 0-4.001-4.001Zm12.002 4.001c0-1.657.015-3.299-.078-4.953-.093-1.921-.532-3.627-1.937-5.032-1.407-1.407-3.11-1.843-5.031-1.936-1.657-.093-3.3-.078-4.953-.078-1.657 0-3.3-.015-4.954.078-1.92.093-3.626.532-5.031 1.936C1.117 4.486.682 6.188.589 8.11.496 9.767.51 11.41.51 13.063c0 1.654-.015 3.3.078 4.954.093 1.92.531 3.626 1.936 5.031 1.408 1.408 3.11 1.843 5.031 1.936 1.657.093 3.3.078 4.954.078 1.657 0 3.299.015 4.953-.078 1.921-.093 3.627-.531 5.031-1.936 1.408-1.408 1.844-3.11 1.937-5.031.096-1.654.078-3.297.078-4.954ZM12.507 19.22a6.149 6.149 0 0 1-6.157-6.157 6.148 6.148 0 0 1 6.157-6.157 6.149 6.149 0 0 1 6.157 6.157 6.149 6.149 0 0 1-6.157 6.157Zm6.409-11.128a1.436 1.436 0 0 1-1.438-1.438c0-.796.642-1.438 1.438-1.438a1.436 1.436 0 0 1 1.329 1.988 1.438 1.438 0 0 1-1.329.888Z" fill="#0F1E8C"/></g><defs><clipPath id="aja"><path fill="#fff" transform="translate(.235 .214)" d="M0 0h24v25H0z"/></clipPath></defs></symbol><symbol fill="none" viewBox="0 0 12 8" id="arrow-down" xmlns="http://www.w3.org/2000/svg"><path d="M.812 1.117a.473.473 0 0 1 .708 0L6 5.97l4.48-4.853a.473.473 0 0 1 .706 0 .574.574 0 0 1 0 .766L6.353 7.119a.473.473 0 0 1-.707 0L.812 1.883a.574.574 0 0 1 0-.766Z" fill="#131313"/></symbol><symbol fill="none" viewBox="0 0 19 10" id="arrow-down-gold" xmlns="http://www.w3.org/2000/svg"><path d="M19 1.176a.965.965 0 0 0-.233-.644 1.346 1.346 0 0 0-.648-.414 1.64 1.64 0 0 0-.822-.032 1.41 1.41 0 0 0-.691.364L9.522 7.201 2.44.45a1.298 1.298 0 0 0-.41-.301 1.642 1.642 0 0 0-1.074-.1A1.463 1.463 0 0 0 .47.266C.331.365.216.486.135.623a.924.924 0 0 0-.042.882c.068.142.17.27.302.378l8.1 7.73c.127.121.285.219.462.286a1.612 1.612 0 0 0 1.132 0 1.36 1.36 0 0 0 .462-.286l8.108-7.73c.213-.195.334-.446.341-.707Z" fill="#C90"/></symbol><symbol fill="none" viewBox="0 0 19 13" id="arrow-down-teal" xmlns="http://www.w3.org/2000/svg"><path d="M19 1.44a1.353 1.353 0 0 0-2.394-.889l-7.084 8.27L2.44.55A1.351 1.351 0 1 0 .395 2.306l8.1 9.468a1.351 1.351 0 0 0 2.056 0l8.108-9.468c.213-.239.334-.546.341-.865Z" fill="#00788A"/></symbol><symbol fill="none" viewBox="0 0 9 16" id="arrow-right" xmlns="http://www.w3.org/2000/svg"><path fill-rule="evenodd" clip-rule="evenodd" d="M8.53 7.47 8 8l.53.53a.75.75 0 0 0 0-1.06ZM6.94 8 .47 14.47a.75.75 0 1 0 1.06 1.06l7-7L8 8l.53-.53-7-7A.75.75 0 1 0 .47 1.53L6.94 8Z" fill="#12264F"/></symbol><symbol fill="none" viewBox="0 0 9 16" id="arrow-right-gold" xmlns="http://www.w3.org/2000/svg"><path fill-rule="evenodd" clip-rule="evenodd" d="M8.53 7.47 8 8l.53.53a.75.75 0 0 0 0-1.06ZM6.94 8 .47 14.47a.75.75 0 1 0 1.06 1.06l7-7L8 8l.53-.53-7-7A.75.75 0 1 0 .47 1.53L6.94 8Z" fill="#C90"/></symbol><symbol fill="none" viewBox="0 0 17 19" id="arrow-right-sky-blue" xmlns="http://www.w3.org/2000/svg"><path d="m4.349 1.832 8.301 8-8.301 8" stroke="#54A4DB" stroke-width="2" stroke-linecap="round"/></symbol><symbol fill="none" viewBox="0 0 9 16" id="arrow-right-white" xmlns="http://www.w3.org/2000/svg"><path fill-rule="evenodd" clip-rule="evenodd" d="M8.53 7.47 8 8l.53.53a.75.75 0 0 0 0-1.06ZM6.94 8 .47 14.47a.75.75 0 1 0 1.06 1.06l7-7L8 8l.53-.53-7-7A.75.75 0 1 0 .47 1.53L6.94 8Z" fill="#fff"/></symbol><symbol fill="#fff" viewBox="0 0 20 20" id="arrow-white" xmlns="http://www.w3.org/2000/svg"><path fill-rule="evenodd" clip-rule="evenodd" d="M17.892 10.07a.75.75 0 0 1-.75.75H4.811l4.628 4.629a.75.75 0 0 1-1.06 1.06L2.47 10.601a.75.75 0 0 1 0-1.061l5.909-5.909a.75.75 0 0 1 1.06 1.061L4.811 9.32h12.331a.75.75 0 0 1 .75.75Z"/></symbol><symbol fill="none" viewBox="0 0 29 29" id="back-icon" xmlns="http://www.w3.org/2000/svg"><circle cx="14.5" cy="14.5" r="14.5" fill="#fff"/><path d="M11.879 10.114c-.08.024-.633.544-2.428 2.287-1.391 1.35-2.35 2.303-2.388 2.373a.64.64 0 0 0 0 .553c.095.172 4.619 4.567 4.762 4.625.529.212 1.072-.32.833-.815-.038-.078-.612-.654-1.761-1.774a92.815 92.815 0 0 1-1.705-1.678c0-.012 2.565-.026 5.7-.03l5.7-.008.131-.087a.61.61 0 0 0-.101-1.077c-.099-.037-.732-.043-5.772-.043-3.111 0-5.658-.009-5.658-.02 0-.012.785-.789 1.743-1.726 1.711-1.67 1.744-1.704 1.774-1.847.105-.491-.334-.878-.83-.733Z" fill="#0F1E8C"/></symbol><symbol fill="none" viewBox="0 0 24 24" id="black-chevron" xmlns="http://www.w3.org/2000/svg"><path d="m9 18 6-6-6-6" stroke="#232323" stroke-width="2" stroke-linecap="round" stroke-linejoin="round"/></symbol><symbol fill="none" viewBox="0 0 24 24" id="blue-chevron-right" xmlns="http://www.w3.org/2000/svg"><path fill-rule="evenodd" clip-rule="evenodd" d="M9.853 18.984a.8.8 0 0 1-.037-1.131L15.304 12 9.816 6.147a.8.8 0 1 1 1.168-1.094l6 6.4a.8.8 0 0 1 0 1.094l-6 6.4a.8.8 0 0 1-1.131.037Z" fill="#2638C4"/></symbol><symbol fill="none" viewBox="0 0 43 48" id="blue-double-arrow" xmlns="http://www.w3.org/2000/svg"><path fill-rule="evenodd" clip-rule="evenodd" d="M.833 46.653a2.632 2.632 0 0 1-.121-3.72l18.05-19.25L.712 4.431a2.632 2.632 0 1 1 3.842-3.6l19.734 21.05a2.632 2.632 0 0 1 0 3.6L4.554 46.532a2.631 2.631 0 0 1-3.721.121Z" fill="#266DD3"/><path fill-rule="evenodd" clip-rule="evenodd" d="M18.833 46.653a2.632 2.632 0 0 1-.121-3.72l18.05-19.25-18.05-19.251a2.632 2.632 0 1 1 3.841-3.6l19.735 21.05a2.632 2.632 0 0 1 0 3.6l-19.734 21.05a2.631 2.631 0 0 1-3.721.121Z" fill="#266DD3"/></symbol><symbol viewBox="0 0 24 24" fill="none" id="blue-loader" xmlns="http://www.w3.org/2000/svg"><path d="M12 2v3M12 19v3M22 12h-3M5 12H2M19.07 4.929 16.95 7.05M7.051 16.95 4.93 19.071M4.93 4.929 7.05 7.05M16.949 16.95l2.121 2.121" stroke="#0F1E8C" stroke-width="1.5" stroke-linecap="round" stroke-linejoin="round"/></symbol><symbol fill="none" viewBox="0 0 24 24" id="button-arrow-icon" xmlns="http://www.w3.org/2000/svg"><path fill-rule="evenodd" clip-rule="evenodd" d="M9.853 18.984a.8.8 0 0 1-.037-1.131L15.304 12 9.816 6.147a.8.8 0 0 1 1.168-1.094l6 6.4a.8.8 0 0 1 0 1.094l-6 6.4a.8.8 0 0 1-1.131.037Z" fill="#fff"/></symbol><symbol fill="none" viewBox="0 0 24 24" id="button-chevron" xmlns="http://www.w3.org/2000/svg"><path fill-rule="evenodd" clip-rule="evenodd" d="M9.853 18.984a.8.8 0 0 1-.037-1.131L15.304 12 9.816 6.147a.8.8 0 0 1 1.168-1.094l6 6.4a.8.8 0 0 1 0 1.094l-6 6.4a.801.801 0 0 1-1.131.037Z" fill="#2638C4"/></symbol><symbol fill="none" viewBox="0 0 15 28" id="bxl_facebook" xmlns="http://www.w3.org/2000/svg"><g clip-path="url(#aza)"><path d="M9.191 26.61V15.136h3.871l.575-4.493H9.191V7.781c0-1.296.361-2.183 2.222-2.183h2.357V1.591a31.27 31.27 0 0 0-3.453-.178c-3.422 0-5.771 2.09-5.771 5.924v3.297H.7v4.492h3.854V26.61h4.637Z" fill="#0F1E8C"/></g><defs><clipPath id="aza"><path fill="#fff" transform="translate(.235 .414)" d="M0 0h14v26.6H0z"/></clipPath></defs></symbol><symbol fill="none" viewBox="0 0 23 23" id="carbon_location-filled" xmlns="http://www.w3.org/2000/svg"><path d="M11.5 1.438a7.916 7.916 0 0 0-7.906 7.906 7.826 7.826 0 0 0 1.593 4.744s.215.283.25.324l6.063 7.15 6.066-7.153c.031-.038.248-.322.248-.322v-.002a7.824 7.824 0 0 0 1.592-4.741A7.916 7.916 0 0 0 11.5 1.438Zm0 10.78a2.875 2.875 0 1 1 0-5.75 2.875 2.875 0 0 1 0 5.75Z" fill="#2638C4"/></symbol><symbol fill="none" viewBox="0 0 32 32" id="cheveron-blue-down" xmlns="http://www.w3.org/2000/svg"><path d="m12 24 8-8-8-8" stroke="#2638C4" stroke-width="3" stroke-linecap="round" stroke-linejoin="round"/></symbol><symbol fill="none" viewBox="0 0 24 24" id="cheveron-down-gray" xmlns="http://www.w3.org/2000/svg"><path d="m6 9 6 6 6-6" stroke="#9D9D9D" stroke-width="2" stroke-linecap="round" stroke-linejoin="round"/></symbol><symbol fill="none" viewBox="0 0 32 32" id="cheveron-teal-down" xmlns="http://www.w3.org/2000/svg"><path d="m12 24 8-8-8-8" stroke="#57C4E5" stroke-width="3" stroke-linecap="round" stroke-linejoin="round"/></symbol><symbol fill="none" viewBox="0 0 24 24" id="cheveron-up-green" xmlns="http://www.w3.org/2000/svg"><path d="m18 15-6-6-6 6" stroke="#48D3CD" stroke-width="2" stroke-linecap="round" stroke-linejoin="round"/></symbol><symbol fill="none" viewBox="0 0 24 24" id="chevron" xmlns="http://www.w3.org/2000/svg"><path fill-rule="evenodd" clip-rule="evenodd" d="M5.016 9.853a.8.8 0 0 1 1.131-.037L12 15.304l5.853-5.488a.8.8 0 0 1 1.094 1.168l-6.4 6a.8.8 0 0 1-1.094 0l-6.4-6a.8.8 0 0 1-.037-1.131Z" fill="#CFD1D2"/></symbol><symbol fill="none" viewBox="0 0 16 17" id="chevron-bar-up" xmlns="http://www.w3.org/2000/svg"><path fill-rule="evenodd" clip-rule="evenodd" d="M4.146 3.871a.5.5 0 0 0 0 .708l3.647 3.646-3.647 3.646a.5.5 0 0 0 .708.708l4-4a.5.5 0 0 0 0-.708l-4-4a.5.5 0 0 0-.708 0ZM10.8 2.625c-.22 0-.4.18-.4.4v10.4a.4.4 0 1 0 .8 0v-10.4a.4.4 0 0 0-.4-.4Z" fill="#2638C4"/></symbol><symbol fill="none" viewBox="0 0 24 24" id="chevron-black" xmlns="http://www.w3.org/2000/svg"><path fill-rule="evenodd" clip-rule="evenodd" d="M9.853 18.984a.8.8 0 0 1-.037-1.131L15.304 12 9.816 6.147a.8.8 0 1 1 1.168-1.094l6 6.4a.8.8 0 0 1 0 1.094l-6 6.4a.8.8 0 0 1-1.131.037Z" fill="#232323"/></symbol><symbol fill="none" viewBox="0 0 41 40" id="chevron-circle-blue" xmlns="http://www.w3.org/2000/svg"><path d="M37.167 20.003c0 9.204-7.462 16.666-16.667 16.666-9.205 0-16.667-7.462-16.667-16.666 0-9.205 7.462-16.667 16.667-16.667 9.205 0 16.667 7.462 16.667 16.667Zm-13.283-7.55a1.25 1.25 0 0 0-1.768 0l-6.666 6.666a1.25 1.25 0 0 0 0 1.767l6.666 6.667a1.25 1.25 0 1 0 1.768-1.768L18.1 20.003l5.783-5.783a1.25 1.25 0 0 0 0-1.768Z" fill="#fff"/></symbol><symbol fill="none" viewBox="0 0 48 48" id="chevron-down-blue" xmlns="http://www.w3.org/2000/svg"><path d="M8.586 16.586a2 2 0 0 1 2.828 0L24 29.172l12.586-12.586a2 2 0 1 1 2.828 2.828l-14 14a2 2 0 0 1-2.828 0l-14-14a2 2 0 0 1 0-2.828Z" fill="#2638C4"/></symbol><symbol fill="none" viewBox="0 0 48 48" id="chevron-down-white" xmlns="http://www.w3.org/2000/svg"><path d="M8.586 16.586a2 2 0 0 1 2.828 0L24 29.172l12.586-12.586a2 2 0 1 1 2.828 2.828l-14 14a2 2 0 0 1-2.828 0l-14-14a2 2 0 0 1 0-2.828Z" fill="#fff"/></symbol><symbol fill="none" viewBox="0 0 20 20" id="chevron-left-white" xmlns="http://www.w3.org/2000/svg"><g clip-path="url(#bka)"><path d="M4.303 10c0-.358.136-.717.41-.99l8.6-8.6a1.4 1.4 0 1 1 1.98 1.981L7.683 10l7.61 7.609a1.4 1.4 0 1 1-1.981 1.98l-8.6-8.599a1.397 1.397 0 0 1-.41-.99Z" fill="#fff"/></g><defs><clipPath id="bka"><path fill="#fff" transform="rotate(90 10 10)" d="M0 0h20v20H0z"/></clipPath></defs></symbol><symbol fill="none" viewBox="0 0 17 32" id="chevron-long-arrow-down" xmlns="http://www.w3.org/2000/svg"><path d="M7.092 1.48v24.814l-4.649-4.65C1.108 20.31-.895 22.313.44 23.649l4.24 4.234 2.832 2.826a1.413 1.413 0 0 0 1.992 0l7.068-7.06c.276-.269.431-.639.428-1.024 0-1.271-1.55-1.895-2.43-.98l-4.65 4.66V1.407c-.097-1.958-2.925-1.812-2.828.073Z" fill="#fff"/></symbol><symbol fill="none" viewBox="0 0 32 17" id="chevron-long-arrow-right" xmlns="http://www.w3.org/2000/svg"><path d="M1.48 9.908h24.814l-4.65 4.649c-1.335 1.335.668 3.338 2.004 2.003l4.234-4.24 2.826-2.832a1.413 1.413 0 0 0 0-1.992L23.648.428A1.413 1.413 0 0 0 22.624 0c-1.271 0-1.895 1.55-.98 2.43l4.66 4.65H1.407c-1.958.097-1.812 2.925.073 2.828Z" fill="#fff"/></symbol><symbol fill="none" viewBox="0 0 17 32" id="chevron-long-arrow-up" xmlns="http://www.w3.org/2000/svg"><path d="M9.908 30.52V5.707l4.649 4.65c1.335 1.335 3.338-.668 2.003-2.004l-4.24-4.234-2.832-2.826a1.413 1.413 0 0 0-1.992 0L.428 8.352c-.276.269-.431.639-.428 1.024 0 1.272 1.549 1.896 2.43.98l4.65-4.66v24.898c.097 1.958 2.925 1.812 2.828-.073Z" fill="#fff"/></symbol><symbol fill="none" viewBox="0 0 24 24" id="chevron-orange" xmlns="http://www.w3.org/2000/svg"><path d="M4.293 8.293a1 1 0 0 1 1.414 0L12 14.586l6.293-6.293a1 1 0 0 1 1.414 1.414l-7 7a1 1 0 0 1-1.414 0l-7-7a1 1 0 0 1 0-1.414Z" fill="#FE704E"/></symbol><symbol fill="none" viewBox="0 0 24 24" id="chevron-right" xmlns="http://www.w3.org/2000/svg"><path fill-rule="evenodd" clip-rule="evenodd" d="M9.853 18.984a.8.8 0 0 1-.037-1.131L15.304 12 9.816 6.147a.8.8 0 1 1 1.168-1.094l6 6.4a.8.8 0 0 1 0 1.094l-6 6.4a.8.8 0 0 1-1.131.037Z" fill="#3395D7"/></symbol><symbol fill="none" viewBox="0 0 16 16" id="chevron-right-gray" xmlns="http://www.w3.org/2000/svg"><path fill-rule="evenodd" clip-rule="evenodd" d="M6.568 12.656a.534.534 0 0 1-.024-.754L10.203 8l-3.66-3.902a.534.534 0 0 1 .78-.73l4 4.267a.533.533 0 0 1 0 .73l-4 4.267a.534.534 0 0 1-.755.024Z" fill="#CFD1D2"/></symbol><symbol fill="none" viewBox="0 0 32 32" id="chevron-right-green" xmlns="http://www.w3.org/2000/svg"><path d="m24 20-8-8-8 8" stroke="#48D3CD" stroke-width="2" stroke-linecap="round" stroke-linejoin="round"/></symbol><symbol fill="none" viewBox="0 0 20 20" id="circle-bg-white-plus-icon" xmlns="http://www.w3.org/2000/svg"><path d="M10 0c5.523 0 10 4.477 10 10s-4.477 10-10 10S0 15.523 0 10 4.477 0 10 0Zm0 5a.75.75 0 0 0-.743.648l-.007.102v3.5h-3.5a.75.75 0 0 0-.102 1.493l.102.007h3.5v3.5a.75.75 0 0 0 1.493.102l.007-.102v-3.5h3.5a.75.75 0 0 0 .102-1.493l-.102-.007h-3.5v-3.5A.75.75 0 0 0 10 5Z" fill="#fff"/></symbol><symbol fill="none" viewBox="0 0 43 43" id="clock-icon" xmlns="http://www.w3.org/2000/svg"><path d="M21.5 10.667V21.5l3.25 5.417M41 21.5C41 32.27 32.27 41 21.5 41S2 32.27 2 21.5 10.73 2 21.5 2 41 10.73 41 21.5Z" stroke="#0F1E8C" stroke-width="3" stroke-linecap="round" stroke-linejoin="round"/></symbol><symbol fill="none" viewBox="0 0 43 43" id="clock-icon-white" xmlns="http://www.w3.org/2000/svg"><path d="M21.5 10.667V21.5l3.25 5.417M41 21.5C41 32.27 32.27 41 21.5 41S2 32.27 2 21.5 10.73 2 21.5 2 41 10.73 41 21.5Z" stroke="#fff" stroke-width="3" stroke-linecap="round" stroke-linejoin="round"/></symbol><symbol fill="none" viewBox="0 0 40 40" id="cross-icon" xmlns="http://www.w3.org/2000/svg"><g clip-path="url(#caa)"><circle cx="20" cy="20" r="20" fill="#12264F"/><path fill-rule="evenodd" clip-rule="evenodd" d="M24.22 15.22a.75.75 0 1 1 1.06 1.06l-3.97 3.97 3.97 3.97a.75.75 0 1 1-1.06 1.06l-3.97-3.97-3.97 3.97a.75.75 0 1 1-1.06-1.06l3.97-3.97-3.97-3.97a.75.75 0 1 1 1.06-1.06l3.97 3.97 3.97-3.97Z" fill="#fff"/></g><defs><clipPath id="caa"><path fill="#fff" d="M0 0h40v40H0z"/></clipPath></defs></symbol><symbol fill="none" viewBox="0 0 42 42" id="cross-icon-blue" xmlns="http://www.w3.org/2000/svg"><circle cx="21" cy="21" r="21" fill="#266DD3"/><path d="M27.775 29.76 12.22 14.203c-.39-.39-.372-1.042.04-1.455.414-.413 1.066-.431 1.456-.04L29.27 28.263c.39.39.372 1.042-.04 1.455-.414.413-1.066.431-1.456.04Z" fill="#fff"/><path d="M29.767 14.233 14.211 29.789c-.39.39-1.042.372-1.455-.04-.413-.414-.431-1.066-.041-1.456L28.27 12.737c.39-.39 1.043-.372 1.456.04.412.414.43 1.065.04 1.456Z" fill="#fff"/></symbol><symbol fill="none" viewBox="0 0 46 46" id="cross-icon-teal" xmlns="http://www.w3.org/2000/svg"><path d="M23 46C10.318 46 0 35.683 0 23S10.318 0 23 0s23 10.317 23 23-10.318 23-23 23Z" fill="#00788A"/><path d="m24.414 23 7.293-7.293a1 1 0 1 0-1.414-1.414L23 21.586l-7.293-7.293a1 1 0 1 0-1.414 1.414L21.586 23l-7.293 7.293a1 1 0 1 0 1.414 1.414L23 24.414l7.293 7.293a.997.997 0 0 0 1.414 0 1 1 0 0 0 0-1.414L24.414 23Z" fill="#fff"/></symbol><symbol fill="none" viewBox="0 0 40 40" id="cross-icon-white" xmlns="http://www.w3.org/2000/svg"><circle cx="20" cy="20" r="20" fill="#fff"/><path d="M26.445 28.342 11.629 13.526c-.371-.372-.354-.992.04-1.386.393-.393 1.014-.41 1.385-.039L27.87 26.917c.372.371.354.992-.04 1.386-.392.393-1.013.41-1.385.039Z" fill="#3395D7"/><path d="M28.343 13.555 13.527 28.371c-.372.371-.992.354-1.386-.04-.393-.393-.41-1.014-.039-1.385L26.918 12.13c.372-.372.992-.354 1.386.04.393.393.41 1.013.039 1.385Z" fill="#3395D7"/></symbol><symbol fill="none" viewBox="0 0 17 17" id="cross-icon-white-without-background" xmlns="http://www.w3.org/2000/svg"><path d="M14.462 16.216.758 2.51C.414 2.167.43 1.593.794 1.23c.364-.363.938-.38 1.282-.036L15.78 14.898c.344.344.328.918-.036 1.282-.364.363-.938.38-1.282.036Z" fill="#fff"/><path d="M16.216 2.538 2.51 16.242c-.344.344-.918.328-1.282-.036-.363-.364-.38-.938-.036-1.282L14.898 1.22c.344-.344.918-.328 1.282.036.363.363.38.938.036 1.282Z" fill="#fff"/></symbol><symbol fill="none" viewBox="0 0 47 46" id="cta-dot" xmlns="http://www.w3.org/2000/svg"><path d="M0 23C0 10.297 10.297 0 23 0h1c12.703 0 23 10.297 23 23S36.703 46 24 46h-1C10.297 46 0 35.703 0 23Z" fill="#FFCF00"/></symbol><symbol fill="none" viewBox="0 0 25 26" id="cta-main-icon" xmlns="http://www.w3.org/2000/svg"><g fill-rule="evenodd" clip-rule="evenodd" fill="#0F1E8C"><path d="M.448 25.61a1.444 1.444 0 0 1-.447-1.008 1.47 1.47 0 0 1 .382-1.035L10.093 13 .383 2.433A1.462 1.462 0 0 1 .448.39a1.4 1.4 0 0 1 2.001.066l10.616 11.555c.246.268.383.62.383.988 0 .367-.137.72-.383.988L2.45 25.543a1.418 1.418 0 0 1-.987.456 1.39 1.39 0 0 1-1.014-.39Z"/><path d="M11.207 25.61a1.443 1.443 0 0 1-.448-1.008 1.47 1.47 0 0 1 .383-1.035L20.852 13l-9.71-10.567A1.462 1.462 0 0 1 11.207.39a1.4 1.4 0 0 1 2.001.066l10.616 11.555c.246.268.383.62.383.988 0 .367-.137.72-.383.988L13.208 25.543a1.418 1.418 0 0 1-.987.456 1.39 1.39 0 0 1-1.014-.39Z"/></g></symbol><symbol fill="none" viewBox="0 0 22 22" id="dashboard-icon" xmlns="http://www.w3.org/2000/svg"><g fill-rule="evenodd" clip-rule="evenodd" fill="#FFF"><path d="M2.6 10.16h5.6a1.964 1.964 0 0 0 1.96-1.96V2.6c0-.523-.203-1.015-.573-1.386A1.946 1.946 0 0 0 8.201.64H2.6c-.525 0-1.018.203-1.387.573-.37.37-.573.863-.573 1.387v5.6a1.962 1.962 0 0 0 1.96 1.96ZM2.6 21.32h5.6a1.964 1.964 0 0 0 1.96-1.96v-5.6c0-.523-.203-1.015-.573-1.386a1.946 1.946 0 0 0-1.386-.573H2.6c-.525 0-1.018.203-1.387.573-.37.37-.573.863-.573 1.387v5.6a1.962 1.962 0 0 0 1.96 1.96ZM13.812 10.16h5.6c.523 0 1.015-.204 1.384-.573.366-.363.576-.868.576-1.386V2.6c0-.524-.204-1.016-.574-1.387A1.946 1.946 0 0 0 19.412.64h-5.6c-.525 0-1.018.203-1.387.573-.37.37-.573.863-.573 1.387v5.6a1.962 1.962 0 0 0 1.96 1.96ZM13.812 21.32h5.6c.523 0 1.015-.204 1.384-.573.366-.363.576-.868.576-1.386v-5.6c0-.524-.204-1.016-.574-1.387a1.945 1.945 0 0 0-1.386-.573h-5.6c-.525 0-1.018.203-1.387.573-.37.37-.573.863-.573 1.387v5.6a1.962 1.962 0 0 0 1.96 1.96Z"/></g></symbol><symbol fill="none" viewBox="0 0 43 49" id="doube-arrow-yellow-icon" xmlns="http://www.w3.org/2000/svg"><path fill-rule="evenodd" clip-rule="evenodd" d="M.833 48.074A2.655 2.655 0 0 1 0 46.222a2.68 2.68 0 0 1 .71-1.903l18.052-19.433L.712 5.454a2.671 2.671 0 0 1 .12-3.756 2.618 2.618 0 0 1 3.722.122l19.734 21.25a2.67 2.67 0 0 1 0 3.633L4.554 47.953a2.63 2.63 0 0 1-1.836.839 2.611 2.611 0 0 1-1.885-.718Z" fill="#FFCF00"/><path fill-rule="evenodd" clip-rule="evenodd" d="M18.833 48.074A2.655 2.655 0 0 1 18 46.222a2.68 2.68 0 0 1 .71-1.903l18.052-19.433L18.712 5.454a2.671 2.671 0 0 1 .12-3.756 2.618 2.618 0 0 1 3.721.122l19.735 21.25a2.67 2.67 0 0 1 0 3.633l-19.734 21.25a2.63 2.63 0 0 1-1.836.839 2.611 2.611 0 0 1-1.885-.718Z" fill="#FFCF00"/></symbol><symbol fill="none" viewBox="0 0 24 24" id="double-arrow-right-yellow" xmlns="http://www.w3.org/2000/svg"><path d="m4 18.611 6.32-6.333L4 5.945l1.946-1.946 8.278 8.28-8.278 8.278L4 18.61Z" fill="#EAB13A"/><path d="m10.776 18.611 6.32-6.333-6.32-6.333 1.946-1.946L21 12.28l-8.278 8.278-1.946-1.946Z" fill="#EAB13A"/></symbol><symbol fill="none" viewBox="0 0 103 103" id="double-quotes" xmlns="http://www.w3.org/2000/svg"><circle cx="51.5" cy="51.5" r="51.5" fill="#FFCF00"/><path d="M54.48 63.08c8.48-.88 12.4-4.84 11.76-11.88H58.8V32h19.44v16.2c0 7.92-1.92 13.64-5.76 17.16-3.84 3.44-9.32 5.2-16.44 5.28l-1.56-7.56Zm-30.48 0c8.48-.88 12.4-4.84 11.76-11.88h-7.44V32h19.44v16.2c0 7.92-1.92 13.64-5.76 17.16-3.84 3.44-9.32 5.2-16.44 5.28L24 63.08Z" fill="#fff"/></symbol><symbol fill="none" viewBox="0 0 24 24" id="download-icon-blue" xmlns="http://www.w3.org/2000/svg"><path d="M5.75 20.49a.75.75 0 1 0 0 1.5l13 .004a.75.75 0 1 0 0-1.5l-13-.004Zm6.602-18.488-.102-.007a.75.75 0 0 0-.743.649l-.007.101.001 13.685-3.722-3.72a.75.75 0 0 0-.976-.073l-.085.073a.75.75 0 0 0-.072.977l.073.084 4.997 4.996a.75.75 0 0 0 .976.073l.085-.072 5.003-4.997a.75.75 0 0 0-.976-1.134l-.084.073-3.719 3.713L13 2.745a.75.75 0 0 0-.648-.743Z" fill="#2638C4"/></symbol><symbol fill="none" viewBox="0 0 41 41" id="download-teal" xmlns="http://www.w3.org/2000/svg"><ellipse cx="20.588" cy="20.5" rx="20.132" ry="19.875" fill="#00788A"/><path d="M29.918 27.773H12.24c-.26 0-.51.102-.694.283a.963.963 0 0 0 0 1.371.988.988 0 0 0 .694.285h17.677c.26 0 .51-.103.694-.285a.963.963 0 0 0 0-1.37.989.989 0 0 0-.694-.284ZM21.08 11.29c-.261 0-.51.102-.695.284a.963.963 0 0 0-.287.685v10.264l-3.229-3.199a.992.992 0 0 0-1.393 0 .967.967 0 0 0 0 1.377l4.906 4.845a.983.983 0 0 0 .697.287.992.992 0 0 0 .697-.287l4.907-4.845a.972.972 0 0 0 .288-.689.963.963 0 0 0-.288-.688.985.985 0 0 0-.697-.285.996.996 0 0 0-.697.285l-3.228 3.199V12.259a.963.963 0 0 0-.288-.685.987.987 0 0 0-.694-.284Z" fill="#fff"/></symbol><symbol fill="none" viewBox="0 0 24 24" id="download-white" xmlns="http://www.w3.org/2000/svg"><path d="M5.75 20.49a.75.75 0 1 0 0 1.5l13 .004a.75.75 0 1 0 0-1.5l-13-.004Zm6.602-18.488-.102-.007a.75.75 0 0 0-.743.649l-.007.101.001 13.685-3.722-3.72a.75.75 0 0 0-.976-.073l-.085.073a.75.75 0 0 0-.072.977l.073.084 4.997 4.996a.75.75 0 0 0 .976.073l.085-.072 5.003-4.997a.75.75 0 0 0-.976-1.134l-.084.073-3.719 3.713L13 2.745a.75.75 0 0 0-.648-.743Z" fill="#fff"/></symbol><symbol fill="none" viewBox="0 0 25 23" id="download-white-2" xmlns="http://www.w3.org/2000/svg"><path d="M24.008 17.475v2.98c0 .822-.743 1.49-1.658 1.49H2.45c-.915 0-1.659-.668-1.659-1.49v-2.98c0-.41.371-.745.83-.745.457 0 .828.334.828.745v2.98h19.9v-2.98c0-.41.372-.745.83-.745.458 0 .83.334.83.745Z" fill="#fff" stroke="#fff" stroke-width=".5"/><path d="M5.966 11.973a.69.69 0 0 1 0-1.055.906.906 0 0 1 1.18 0l4.42 3.949V1.747c0-.413.375-.747.836-.747.46 0 .835.334.835.746v13.12l4.42-3.948a.906.906 0 0 1 1.18 0 .69.69 0 0 1 0 1.055l-5.845 5.222a.908.908 0 0 1-1.182 0l-5.844-5.222Z" fill="#fff" stroke="#fff" stroke-width=".5"/></symbol><symbol fill="none" viewBox="0 0 24 24" id="dropdown-blue-arrow" xmlns="http://www.w3.org/2000/svg"><path fill-rule="evenodd" clip-rule="evenodd" d="M5.017 9.853a.8.8 0 0 1 1.131-.037l5.853 5.488 5.853-5.488a.8.8 0 0 1 1.094 1.168l-6.4 6a.8.8 0 0 1-1.094 0l-6.4-6a.8.8 0 0 1-.037-1.131Z" fill="#2638C4"/></symbol><symbol fill="none" viewBox="0 0 14 12" id="email-icon" xmlns="http://www.w3.org/2000/svg"><path d="M2.5.668h9c1.156 0 2.1.904 2.164 2.044l.003.123v6.333c0 1.155-.904 2.1-2.043 2.163l-.123.004h-9c-1.156 0-2.1-.905-2.164-2.044l-.003-.123V2.835c0-1.156.904-2.1 2.044-2.164L2.5.668ZM12.668 4.25 7.234 7.11a.5.5 0 0 1-.402.029l-.064-.029-5.434-2.86v4.918c0 .612.471 1.114 1.071 1.163l.096.004h9c.612 0 1.114-.472 1.163-1.071l.003-.096V4.25Zm-1.166-2.582h-9c-.612 0-1.114.471-1.163 1.071l-.004.096v.286l5.667 2.982 5.666-2.983v-.285c0-.612-.471-1.114-1.07-1.163l-.096-.004Z" fill="#6C6C6C"/></symbol><symbol fill="none" viewBox="0 0 16 12" id="email-white" xmlns="http://www.w3.org/2000/svg"><path d="M2.938 0h10.125c1.3 0 2.362 1.017 2.434 2.3l.004.138v7.124c0 1.3-1.018 2.362-2.3 2.434l-.138.004H2.938A2.438 2.438 0 0 1 .505 9.7L.5 9.564V2.436C.5 1.137 1.518.076 2.8.005L2.938 0Zm11.438 4.03L8.263 7.248a.563.563 0 0 1-.452.031l-.072-.031L1.626 4.03v5.532c0 .69.53 1.254 1.205 1.309l.107.004h10.125c.689 0 1.254-.53 1.308-1.205l.005-.107V4.03Zm-1.313-2.905H2.938c-.688 0-1.253.53-1.308 1.205l-.004.107v.322L8 6.114l6.375-3.355v-.321c0-.69-.53-1.254-1.205-1.309l-.108-.004Z" fill="#fff"/></symbol><symbol fill="none" viewBox="0 0 24 24" id="expand-up-icon" xmlns="http://www.w3.org/2000/svg"><path d="M6.25 4.5A1.75 1.75 0 0 0 4.5 6.25V12h4.75A2.75 2.75 0 0 1 12 14.75v4.75h5.75a1.75 1.75 0 0 0 1.75-1.75v-4a.75.75 0 0 1 1.5 0v4A3.25 3.25 0 0 1 17.75 21H6.25A3.25 3.25 0 0 1 3 17.75V6.25A3.25 3.25 0 0 1 6.25 3h4a.75.75 0 0 1 0 1.5h-4ZM13 3.75a.75.75 0 0 1 .75-.75h6.5a.75.75 0 0 1 .75.75v6.5a.75.75 0 0 1-1.5 0V5.56l-5.22 5.22a.75.75 0 0 1-1.06-1.06l5.22-5.22h-4.69a.75.75 0 0 1-.75-.75Z" fill="#fff"/></symbol><symbol fill="none" viewBox="0 0 24 24" id="expand-up-icon-blue-medium" xmlns="http://www.w3.org/2000/svg"><path d="M6.25 4.5A1.75 1.75 0 0 0 4.5 6.25V12h4.75A2.75 2.75 0 0 1 12 14.75v4.75h5.75a1.75 1.75 0 0 0 1.75-1.75v-4a.75.75 0 0 1 1.5 0v4A3.25 3.25 0 0 1 17.75 21H6.25A3.25 3.25 0 0 1 3 17.75V6.25A3.25 3.25 0 0 1 6.25 3h4a.75.75 0 0 1 0 1.5h-4ZM13 3.75a.75.75 0 0 1 .75-.75h6.5a.75.75 0 0 1 .75.75v6.5a.75.75 0 0 1-1.5 0V5.56l-5.22 5.22a.75.75 0 0 1-1.06-1.06l5.22-5.22h-4.69a.75.75 0 0 1-.75-.75Z" fill="#0F1E8C"/></symbol><symbol fill="none" viewBox="0 0 25 28" id="fa6-brands_flickr" xmlns="http://www.w3.org/2000/svg"><g clip-path="url(#cqa)"><path d="M21.664 1.714H2.807A2.572 2.572 0 0 0 .235 4.286v18.857a2.572 2.572 0 0 0 2.572 2.571h18.857a2.572 2.572 0 0 0 2.571-2.571V4.286a2.572 2.572 0 0 0-2.571-2.572ZM7.976 17.09a3.4 3.4 0 0 1-3.401-3.401 3.4 3.4 0 0 1 3.401-3.402 3.4 3.4 0 0 1 3.402 3.402 3.4 3.4 0 0 1-3.402 3.401Zm8.518 0a3.4 3.4 0 0 1-3.402-3.401 3.4 3.4 0 0 1 3.402-3.402 3.4 3.4 0 0 1 3.402 3.402 3.4 3.4 0 0 1-3.402 3.401Z" fill="#0F1E8C"/></g><defs><clipPath id="cqa"><path fill="#fff" transform="translate(.235)" d="M0 0h24v27.429H0z"/></clipPath></defs></symbol><symbol fill="none" viewBox="0 0 40 40" id="gcrpc-close-button" xmlns="http://www.w3.org/2000/svg"><g clip-path="url(#cra)"><circle cx="20" cy="20" r="20" fill="#12264F"/><path fill-rule="evenodd" clip-rule="evenodd" d="M24.22 15.22a.75.75 0 1 1 1.06 1.06l-3.97 3.97 3.97 3.97a.75.75 0 1 1-1.06 1.06l-3.97-3.97-3.97 3.97a.75.75 0 1 1-1.06-1.06l3.97-3.97-3.97-3.97a.75.75 0 1 1 1.06-1.06l3.97 3.97 3.97-3.97Z" fill="#fff"/></g><defs><clipPath id="cra"><path fill="#fff" d="M0 0h40v40H0z"/></clipPath></defs></symbol><symbol fill="none" viewBox="0 0 46 46" id="gcrpc-play-button" xmlns="http://www.w3.org/2000/svg"><path d="M23 46C10.318 46 0 35.683 0 23S10.318 0 23 0s23 10.317 23 23-10.318 23-23 23Z" fill="#12264F"/><path d="M16.487 32.886a.973.973 0 0 0 .958-.024l15.111-9.091a.902.902 0 0 0 .444-.77.902.902 0 0 0-.444-.772l-15.111-9.09a.976.976 0 0 0-.958-.025.904.904 0 0 0-.487.795v18.182c0 .33.186.635.487.795Z" fill="#fff"/></symbol><symbol fill="none" viewBox="0 0 28 28" id="gold-download-icon" xmlns="http://www.w3.org/2000/svg"><circle cx="14" cy="14" r="14" fill="#C90"/><path d="M20.487 19.121H8.195a.683.683 0 1 0 0 1.366h12.292a.683.683 0 1 0 0-1.366ZM14.34 7.512a.682.682 0 0 0-.682.682v7.23l-2.245-2.253a.685.685 0 1 0-.97.97l3.413 3.413a.68.68 0 0 0 .97 0l3.412-3.414a.685.685 0 0 0-.97-.969l-2.245 2.253v-7.23a.683.683 0 0 0-.682-.682Z" fill="#fff"/></symbol><symbol fill="none" viewBox="0 0 16 16" id="gray-chevron" xmlns="http://www.w3.org/2000/svg"><path fill-rule="evenodd" clip-rule="evenodd" d="M10.208 8.447 9.745 8l.463-.447a.616.616 0 0 1 0 .894ZM8.82 8 5.792 5.078a.616.616 0 0 1 0-.893.671.671 0 0 1 .925 0l3.491 3.368L9.745 8l.463.447-3.49 3.368a.671.671 0 0 1-.926 0 .616.616 0 0 1 0-.893L8.82 8Z" fill="#676879"/></symbol><symbol fill="none" viewBox="0 0 39 39" id="green-fill-right-arrow" xmlns="http://www.w3.org/2000/svg"><circle cx="19.5" cy="19.5" r="19.5" fill="#8DC641"/><path d="m15.849 11 8.302 8-8.302 8" stroke="#fff" stroke-linecap="round"/></symbol><symbol fill="none" viewBox="0 0 7 12" id="green-right" xmlns="http://www.w3.org/2000/svg"><path d="M.228 11.78a.731.731 0 0 1 0-1.06L5.122 6 .228 1.28a.731.731 0 0 1 0-1.06.798.798 0 0 1 1.1 0l5.444 5.25a.731.731 0 0 1 0 1.06l-5.444 5.25a.798.798 0 0 1-1.1 0Z" fill="#BDD358"/></symbol><symbol fill="none" viewBox="0 0 40 41" id="hamburger" xmlns="http://www.w3.org/2000/svg"><path d="M4 9.818a1 1 0 0 1 1-1h30a1 1 0 0 1 0 2H5a1 1 0 0 1-1-1Zm0 10a1 1 0 0 1 1-1h30a1 1 0 0 1 0 2H5a1 1 0 0 1-1-1Zm1 9a1 1 0 0 0 0 2h30a1 1 0 0 0 0-2H5Z" fill="#ED0F64"/></symbol><symbol fill="none" viewBox="0 0 58 58" id="hero-slider-icon" xmlns="http://www.w3.org/2000/svg"><rect x="58" y="58" width="58" height="58" rx="29" transform="rotate(-180 58 58)" fill="#fff" fill-opacity=".5"/><path d="M20.471 47.802a1.812 1.812 0 0 1 0-2.563l16.24-16.24L20.47 12.76a1.812 1.812 0 1 1 2.563-2.563l17.521 17.521a1.812 1.812 0 0 1 0 2.563l-17.52 17.521a1.812 1.812 0 0 1-2.564 0Z" fill="#2638C4"/></symbol><symbol fill="none" viewBox="0 0 29 25" id="ic_round-mail" xmlns="http://www.w3.org/2000/svg"><g clip-path="url(#dea)"><path d="M25.412 1.723H2.824A2.832 2.832 0 0 0 0 4.546v16.941a2.832 2.832 0 0 0 2.824 2.824h22.588a2.832 2.832 0 0 0 2.823-2.824V4.547a2.832 2.832 0 0 0-2.823-2.824Zm-.565 6-9.233 5.774a2.796 2.796 0 0 1-2.993 0L3.388 7.723a1.2 1.2 0 1 1 1.27-2.033l9.46 5.915 9.458-5.915a1.2 1.2 0 1 1 1.271 2.033Z" fill="#0F1E8C"/></g><defs><clipPath id="dea"><path fill="#fff" transform="translate(0 .714)" d="M0 0h28.235v24H0z"/></clipPath></defs></symbol><symbol fill="none" viewBox="0 0 48 48" id="info-note-icon" xmlns="http://www.w3.org/2000/svg"><path fill="#fff" d="M19 7h11v34H19z"/><path d="M24 47.438A23.438 23.438 0 1 0 24 .562a23.438 23.438 0 0 0 0 46.876Zm0-38.094a3.125 3.125 0 1 1 0 6.25 3.125 3.125 0 0 1 0-6.25ZM20.875 24a3.125 3.125 0 1 1 6.25 0v12.5a3.125 3.125 0 1 1-6.25 0V24Z" fill="#C90"/></symbol><symbol fill="none" viewBox="0 0 14 14" id="insta-white" xmlns="http://www.w3.org/2000/svg"><g clip-path="url(#dga)"><path d="M12.964 0H1.034A1.02 1.02 0 0 0 0 1.009v11.98C0 13.545.462 14 1.034 14h11.93c.571 0 1.036-.454 1.036-1.009V1.009C14 .451 13.535 0 12.964 0Zm-8.81 11.93H2.075V5.247h2.079v6.683Zm-1.04-7.593a1.204 1.204 0 1 1-.004-2.408 1.204 1.204 0 0 1 .004 2.408Zm8.816 7.593H9.855V8.682c0-.774-.014-1.772-1.08-1.772-1.08 0-1.245.845-1.245 1.717v3.303H5.458V5.247h1.99v.914h.028c.276-.525.954-1.08 1.963-1.08 2.103 0 2.491 1.383 2.491 3.182v3.667Z" fill="#fff"/></g><defs><clipPath id="dga"><path fill="#fff" d="M0 0h14v14H0z"/></clipPath></defs></symbol><symbol fill="none" viewBox="0 0 118 78" id="isolation-mode" xmlns="http://www.w3.org/2000/svg"><g clip-path="url(#dha)"><path d="M.832 94.653c9.236 8.664 21.697 13.927 35.367 13.773 28.087-.323 50.593-23.346 50.27-51.417C86.146 28.938 63.124 6.43 35.037 6.753 21.367 6.907 9.03 12.455-.007 21.328L.832 94.66v-.007ZM35.314 30.6c14.886-.17 27.132 11.796 27.302 26.678.169 14.882-11.8 27.125-26.686 27.294-14.886.17-27.132-11.796-27.301-26.678-.17-14.882 11.8-27.125 26.685-27.294Z" fill="#A4659B"/><path d="m51.705 15.353 14.305 8.256 8.26-14.3-14.306-8.257-8.259 14.3Z" stroke="#FBD914" stroke-width="2" stroke-miterlimit="10"/><path d="m100.654 47.141 16.841-5.87-2.363 17.682-14.478-11.812Z" fill="#57C4E5"/></g><defs><clipPath id="dha"><path fill="#fff" transform="rotate(-180 58.748 54.215)" d="M0 0h117.495v108.429H0z"/></clipPath></defs></symbol><symbol fill="none" viewBox="0 0 24 24" id="loader-blue-light" xmlns="http://www.w3.org/2000/svg"><path d="M12 2v3M12 19v3M22 12h-3M5 12H2M19.071 4.929 16.95 7.05M7.05 16.95 4.93 19.071M4.929 4.929 7.05 7.05M16.95 16.95l2.121 2.121" stroke="#2638C4" stroke-width="1.5" stroke-linecap="round" stroke-linejoin="round"/></symbol><symbol fill="none" viewBox="0 0 24 24" id="loader-gray-800" xmlns="http://www.w3.org/2000/svg"><path d="M12 2v3M12 19v3M22 12h-3M5 12H2M19.071 4.929 16.95 7.05M7.05 16.95 4.93 19.071M4.929 4.929 7.05 7.05M16.95 16.95l2.121 2.121" stroke="#292929" stroke-width="1.5" stroke-linecap="round" stroke-linejoin="round"/></symbol><symbol fill="none" viewBox="0 0 20 20" id="loading-icon" xmlns="http://www.w3.org/2000/svg"><circle cx="10" cy="10" r="8" stroke="url(#dka)" stroke-width="2"/><defs><radialGradient id="dka" cx="0" cy="0" r="1" gradientUnits="userSpaceOnUse" gradientTransform="matrix(0 8 -8 0 10 10)"><stop stop-color="#3566D5"/><stop offset="1" stop-color="#3566D5" stop-opacity="0"/></radialGradient></defs></symbol><symbol fill="none" viewBox="0 0 24 24" id="mail-icon" xmlns="http://www.w3.org/2000/svg"><path d="M5.25 4h13.5a3.25 3.25 0 0 1 3.245 3.066L22 7.25v9.5a3.25 3.25 0 0 1-3.066 3.245L18.75 20H5.25a3.25 3.25 0 0 1-3.245-3.066L2 16.75v-9.5a3.25 3.25 0 0 1 3.066-3.245L5.25 4ZM20.5 9.373l-8.15 4.29a.75.75 0 0 1-.603.043l-.096-.042L3.5 9.374v7.376a1.75 1.75 0 0 0 1.606 1.744l.144.006h13.5a1.75 1.75 0 0 0 1.744-1.607l.006-.143V9.373ZM18.75 5.5H5.25a1.75 1.75 0 0 0-1.744 1.606L3.5 7.25v.429l8.5 4.473 8.5-4.474V7.25a1.75 1.75 0 0 0-1.607-1.744L18.75 5.5Z" fill="#9D9D9D"/></symbol><symbol fill="none" viewBox="0 0 75 75" id="marco-play-icon" xmlns="http://www.w3.org/2000/svg"><path d="M60.982 14.015C54.713 7.747 46.366 4.29 37.5 4.29c-8.866 0-17.213 3.458-23.482 9.726-6.268 6.27-9.726 14.616-9.726 23.482 0 8.865 3.458 17.212 9.726 23.48v.001c6.269 6.268 14.616 9.726 23.482 9.726 8.865 0 17.212-3.457 23.48-9.726 6.27-6.269 9.727-14.616 9.727-23.481 0-8.866-3.458-17.213-9.726-23.482Z" fill="#EAB13A" stroke="#fff" stroke-width="5"/><path d="M29.723 49.411 50.347 37.5 29.723 25.586V49.41Z" fill="#fff"/></symbol><symbol fill="none" viewBox="0 0 22 22" id="medium-blue-loader" xmlns="http://www.w3.org/2000/svg"><path d="M11 1v3M11 18v3M21 11h-3M4 11H1M18.072 3.929 15.95 6.05M6.05 15.95l-2.121 2.121M3.928 3.929 6.05 6.05M15.95 15.95l2.121 2.121" stroke="#0F1E8C" stroke-width="1.5" stroke-linecap="round" stroke-linejoin="round"/></symbol><symbol fill="none" viewBox="0 0 22 22" id="members-forum-icon" xmlns="http://www.w3.org/2000/svg"><path d="M20.067 3.266h-1.934V2.62A1.936 1.936 0 0 0 16.199.688H1.934A1.936 1.936 0 0 0 0 2.62v10.313c0 1.066.867 1.933 1.934 1.933h1.933v3.223c0 .575.697.859 1.1.456l1.1-1.1h7.287l3.679 3.678a.645.645 0 0 0 1.1-.456v-3.223h1.933A1.936 1.936 0 0 0 22 15.512V5.199a1.936 1.936 0 0 0-1.933-1.933ZM5.157 16.534v-2.311a.644.644 0 0 0-.645-.645H1.934a.645.645 0 0 1-.645-.644V2.62c0-.355.29-.644.645-.644h14.265c.356 0 .645.289.645.644v10.313c0 .355-.29.644-.645.644H8.38a.644.644 0 0 0-.456.189l-2.767 2.767Zm15.554-1.022c0 .355-.29.644-.644.644h-2.579a.645.645 0 0 0-.644.645v2.311l-2.767-2.767a.644.644 0 0 0-.456-.189H7.357l1.289-1.289h7.553a1.936 1.936 0 0 0 1.934-1.933v-8.38h1.934c.355 0 .644.29.644.645v10.313Z" fill="#fff"/><path d="M12.332 4.555h-9.11a.645.645 0 0 0 0 1.289h9.11a.645.645 0 0 0 0-1.29ZM14.91 7.133H3.223a.645.645 0 0 0 0 1.289H14.91a.645.645 0 0 0 0-1.29ZM9.754 9.71H3.223a.645.645 0 0 0 0 1.29h6.53a.645.645 0 0 0 0-1.29Z" fill="#fff"/></symbol><symbol fill="none" viewBox="0 0 25 25" id="menu" xmlns="http://www.w3.org/2000/svg"><path d="M3.758 12.861h18M3.758 6.861h18M3.758 18.861h18" stroke="#3395D7" stroke-width="2" stroke-linecap="round" stroke-linejoin="round"/></symbol><symbol fill="none" viewBox="0 0 25 25" id="menu-close" xmlns="http://www.w3.org/2000/svg"><path d="m18.852 6.574-12 12M6.852 6.574l12 12" stroke="#2638C4" stroke-width="2" stroke-linecap="round" stroke-linejoin="round"/></symbol><symbol fill="none" viewBox="0 0 38 38" id="menu-icon" xmlns="http://www.w3.org/2000/svg"><rect width="38" height="38" rx="10" fill="#00788A"/><path d="M9.913 11.563h19M9.913 18.586h19M9.913 26.016h19" stroke="#fff" stroke-width="2" stroke-linecap="round"/></symbol><symbol fill="none" viewBox="0 0 49 48" id="menu-white" xmlns="http://www.w3.org/2000/svg"><g filter="url(#dsa)"><path d="M5.3 11.402a1.8 1.8 0 0 1 1.8-1.8h34.8a1.8 1.8 0 0 1 0 3.6H7.1a1.8 1.8 0 0 1-1.8-1.8Zm0 12a1.8 1.8 0 0 1 1.8-1.8h34.8a1.8 1.8 0 0 1 0 3.6H7.1a1.8 1.8 0 0 1-1.8-1.8Zm1.8 10.2a1.8 1.8 0 0 0 0 3.6h34.8a1.8 1.8 0 0 0 0-3.6H7.1Z" fill="#fff"/></g><defs><filter id="dsa" x="-3.5" y="0" width="56" height="56" filterUnits="userSpaceOnUse" color-interpolation-filters="sRGB"><feFlood flood-opacity="0" result="BackgroundImageFix"/><feColorMatrix in="SourceAlpha" values="0 0 0 0 0 0 0 0 0 0 0 0 0 0 0 0 0 0 127 0" result="hardAlpha"/><feOffset dy="4"/><feGaussianBlur stdDeviation="2"/><feComposite in2="hardAlpha" operator="out"/><feColorMatrix values="0 0 0 0 0 0 0 0 0 0 0 0 0 0 0 0 0 0 0.25 0"/><feBlend in2="BackgroundImageFix" result="effect1_dropShadow_8035_7214"/><feBlend in="SourceGraphic" in2="effect1_dropShadow_8035_7214" result="shape"/></filter></defs></symbol><symbol fill="none" viewBox="0 0 49 49" id="minus-circle" xmlns="http://www.w3.org/2000/svg"><path d="M24.937.25C11.67.25.875 11.044.875 24.312s10.794 24.063 24.062 24.063S49 37.58 49 24.312C49 11.044 38.205.25 24.937.25Zm0 45.117c-11.61 0-21.054-9.445-21.054-21.055S13.328 3.258 24.937 3.258c11.61 0 21.055 9.445 21.055 21.054 0 11.61-9.445 21.055-21.055 21.055Z" fill="#9CD5F4"/><rect x="11.5" y="22.75" width="26.875" height="3.125" rx="1.563" fill="#9CD5F4"/></symbol><symbol fill="none" viewBox="0 0 32 32" id="minus-icon" xmlns="http://www.w3.org/2000/svg"><path d="M15.777.219C7.077.219 0 7.296 0 15.995c0 8.7 7.077 15.777 15.777 15.777 8.699 0 15.776-7.077 15.776-15.777C31.553 7.296 24.476.22 15.776.22Zm0 29.58c-7.612 0-13.805-6.192-13.805-13.804 0-7.611 6.193-13.804 13.805-13.804 7.611 0 13.804 6.192 13.804 13.804S23.388 29.8 15.777 29.8Z" fill="#EAB13A"/><rect x="6.967" y="14.969" width="17.621" height="2.049" rx="1.024" fill="#EAB13A"/></symbol><symbol fill="none" viewBox="0 0 20 20" id="news-icon" xmlns="http://www.w3.org/2000/svg"><g fill="#fff"><path d="M19.444 0H3.89a.556.556 0 0 0-.556.556v2.777H.556A.556.556 0 0 0 0 3.89v13.889A2.225 2.225 0 0 0 2.222 20h15A2.78 2.78 0 0 0 20 17.222V.556A.556.556 0 0 0 19.444 0ZM1.111 17.778V4.444h2.222v13.334a1.111 1.111 0 1 1-2.222 0Zm17.778-.556a1.669 1.669 0 0 1-1.667 1.667H4.135c.2-.336.307-.72.31-1.111V1.11h14.444v16.111Z"/><path d="M7.224 4.447h8.888a.556.556 0 1 0 0-1.111H7.224a.556.556 0 0 0 0 1.111ZM7.224 7.775h8.888a.556.556 0 1 0 0-1.11H7.224a.556.556 0 0 0 0 1.11ZM7.224 11.111h8.888a.556.556 0 1 0 0-1.111H7.224a.556.556 0 0 0 0 1.111ZM7.224 14.447h8.888a.556.556 0 1 0 0-1.111H7.224a.556.556 0 0 0 0 1.111Z"/></g></symbol><symbol fill="none" viewBox="0 0 24 24" id="phone-icon" xmlns="http://www.w3.org/2000/svg"><path d="m7.057 2.418 1.167-.351a2.75 2.75 0 0 1 3.302 1.505l.902 2.006a2.75 2.75 0 0 1-.633 3.139L10.3 10.11a.25.25 0 0 0-.078.155c-.044.397.225 1.17.846 2.245.45.781.859 1.33 1.206 1.637.243.215.376.261.433.245l2.01-.615a2.75 2.75 0 0 1 3.034 1.02l1.28 1.776a2.75 2.75 0 0 1-.338 3.605l-.887.84a3.75 3.75 0 0 1-3.587.889c-2.754-.769-5.223-3.093-7.435-6.924C4.57 11.147 3.792 7.843 4.51 5.07a3.75 3.75 0 0 1 2.548-2.652Zm.433 1.437a2.25 2.25 0 0 0-1.53 1.59c-.602 2.332.087 5.261 2.123 8.788 2.034 3.522 4.223 5.582 6.54 6.23a2.25 2.25 0 0 0 2.152-.534l.886-.84a1.25 1.25 0 0 0 .154-1.639l-1.28-1.775a1.25 1.25 0 0 0-1.38-.464l-2.015.617c-1.17.348-2.231-.593-3.371-2.568C9 11.93 8.642 10.9 8.732 10.099c.046-.416.24-.8.545-1.086l1.495-1.393a1.25 1.25 0 0 0 .287-1.427l-.901-2.006a1.25 1.25 0 0 0-1.501-.684l-1.167.352Z" fill="#9D9D9D"/></symbol><symbol fill="none" viewBox="0 0 92 92" id="play-icon" xmlns="http://www.w3.org/2000/svg"><path d="M46 84.333c21.17 0 38.333-17.162 38.333-38.333S67.17 7.666 45.999 7.666C24.83 7.666 7.666 24.83 7.666 46c0 21.17 17.162 38.333 38.333 38.333Z" fill="#FFCF00" stroke="#fff" stroke-width="4" stroke-linecap="round" stroke-linejoin="round"/><path d="m38.334 30.666 23 15.334-23 15.333V30.667Z" fill="#fff"/></symbol><symbol fill="none" viewBox="0 0 56 56" id="play-icon-blue" xmlns="http://www.w3.org/2000/svg"><path fill-rule="evenodd" clip-rule="evenodd" d="M28 5.6a22.4 22.4 0 1 0 0 44.8 22.4 22.4 0 0 0 0-44.8Zm-12.87 9.53A18.2 18.2 0 1 1 40.87 40.87 18.2 18.2 0 0 1 15.13 15.13Zm9.48 21.057 11.053-6.822c.982-.607.982-2.123 0-2.73L24.61 19.814c-.982-.606-2.21.152-2.21 1.365v13.644c0 1.213 1.228 1.971 2.21 1.365Z" fill="#2638C4"/></symbol><symbol fill="none" viewBox="0 0 75 75" id="play-icon-gray" xmlns="http://www.w3.org/2000/svg"><circle cx="37.5" cy="37.5" r="37.5" fill="#fff" fill-opacity=".5"/><g clip-path="url(#dza)" fill="#fff"><path d="M59.214 15.786c-5.8-5.8-13.512-8.994-21.714-8.994-8.202 0-15.914 3.195-21.714 8.994-5.8 5.8-8.994 13.512-8.994 21.714 0 8.202 3.195 15.914 8.994 21.714 5.8 5.8 13.512 8.994 21.714 8.994 8.202 0 15.914-3.195 21.714-8.994 5.8-5.8 8.994-13.512 8.994-21.714 0-8.202-3.195-15.914-8.994-21.714ZM37.5 64.41c-14.837 0-26.909-12.072-26.909-26.909S22.663 10.591 37.5 10.591 64.409 22.663 64.409 37.5 52.337 64.409 37.5 64.409Z"/><path d="M29.72 49.413 50.345 37.5 29.72 25.588v23.825Z"/></g><defs><clipPath id="dza"><path fill="#fff" transform="translate(6.792 6.792)" d="M0 0h61.415v61.415H0z"/></clipPath></defs></symbol><symbol fill="none" viewBox="0 0 56 56" id="play-icon-white" xmlns="http://www.w3.org/2000/svg"><path fill-rule="evenodd" clip-rule="evenodd" d="M28 5.6a22.4 22.4 0 1 0 0 44.8 22.4 22.4 0 0 0 0-44.8Zm-12.87 9.53A18.2 18.2 0 1 1 40.87 40.868 18.2 18.2 0 0 1 15.13 15.13Zm9.48 21.056 11.053-6.822c.982-.606.982-2.122 0-2.729L24.61 19.813c-.982-.606-2.21.152-2.21 1.364v13.645c0 1.213 1.228 1.97 2.21 1.364Z" fill="#fff"/></symbol><symbol fill="none" viewBox="0 0 50 50" id="plus-circle" xmlns="http://www.w3.org/2000/svg"><path d="M25.317.275C11.855.275.902 11.285.902 24.82c0 13.533 10.953 24.544 24.415 24.544s24.414-11.01 24.414-24.544C49.731 11.286 38.78.275 25.317.275Zm0 46.02c-11.78 0-21.363-9.634-21.363-21.476 0-11.842 9.584-21.476 21.363-21.476 11.78 0 21.363 9.634 21.363 21.476 0 11.842-9.584 21.476-21.363 21.476Zm13.542-21.476a1.53 1.53 0 0 1-1.526 1.534h-10.49v10.546a1.53 1.53 0 0 1-1.526 1.534 1.53 1.53 0 0 1-1.526-1.534V26.353h-10.49a1.53 1.53 0 0 1-1.527-1.534 1.53 1.53 0 0 1 1.526-1.534h10.491V12.74a1.53 1.53 0 0 1 1.526-1.534 1.53 1.53 0 0 1 1.526 1.534v10.546h10.49a1.53 1.53 0 0 1 1.526 1.534Z" fill="#48A1D6"/></symbol><symbol fill="none" viewBox="0 0 32 32" id="plus-icon" xmlns="http://www.w3.org/2000/svg"><g clip-path="url(#eda)"><g clip-path="url(#edb)"><path d="M16.195.797c-8.284 0-15.024 6.908-15.024 15.4 0 8.491 6.74 15.4 15.024 15.4 8.285 0 15.025-6.909 15.025-15.4 0-8.492-6.74-15.4-15.025-15.4Zm0 28.875c-7.249 0-13.146-6.045-13.146-13.475S8.946 2.722 16.195 2.722c7.25 0 13.146 6.045 13.146 13.475s-5.897 13.475-13.146 13.475Zm8.334-13.475c0 .531-.42.962-.939.962h-6.456v6.617c0 .532-.42.963-.939.963a.951.951 0 0 1-.939-.963V17.16H8.8a.951.951 0 0 1-.939-.962c0-.532.42-.963.94-.963h6.455V8.617c0-.531.42-.962.94-.962.518 0 .938.43.938.962v6.617h6.456c.519 0 .94.431.94.963Z" fill="#B1B3B5"/></g></g><defs><clipPath id="eda"><path fill="#fff" d="M0 0h32v32H0z"/></clipPath><clipPath id="edb"><path fill="#fff" transform="translate(.39)" d="M0 0h31.22v32H0z"/></clipPath></defs></symbol><symbol fill="none" viewBox="0 0 46 46" id="popup-close" xmlns="http://www.w3.org/2000/svg"><path d="M23.002 46c-12.682 0-23-10.317-23-23s10.318-23 23-23 23 10.317 23 23-10.318 23-23 23Z" fill="#2638C4"/><path d="m24.416 23 7.293-7.293a1 1 0 1 0-1.414-1.414l-7.293 7.293-7.293-7.293a1 1 0 1 0-1.414 1.414L21.588 23l-7.293 7.293a1 1 0 1 0 1.414 1.414l7.293-7.293 7.293 7.293a.997.997 0 0 0 1.414 0 1 1 0 0 0 0-1.414L24.416 23Z" fill="#fff"/></symbol><symbol fill="none" viewBox="0 0 51 51" id="popup-close-icon" xmlns="http://www.w3.org/2000/svg"><circle cx="25.5" cy="25.5" r="25.5" fill="#fff"/><path d="m33.718 36.136-18.89-18.89c-.474-.474-.452-1.266.05-1.767.5-.502 1.293-.524 1.767-.05l18.89 18.89c.473.474.451 1.265-.05 1.767-.502.501-1.294.524-1.767.05Z" fill="#2638C4"/><path d="m36.137 17.283-18.89 18.89c-.474.474-1.265.452-1.767-.05-.501-.501-.524-1.293-.05-1.767l18.89-18.89c.474-.474 1.266-.451 1.767.05.502.502.524 1.293.05 1.767Z" fill="#2638C4"/></symbol><symbol fill="none" viewBox="0 0 42 42" id="portal-icon" xmlns="http://www.w3.org/2000/svg"><circle cx="21" cy="21" r="21" fill="#F5F6F6"/><path d="M23.944 26.307c-.898 2.114-1.83 4.285-2.86 6.693-.964-2.318-1.846-4.449-2.753-6.636-2.612-.955-4.632-2.604-5.687-5.24-.758-1.894-.848-3.837-.263-5.788 1.129-3.812 4.788-6.522 9.214-6.326 3.832.171 7.377 3.061 8.2 6.97.775 3.707-.543 8.066-5.843 10.327h-.008Zm3.618-8.498c0-3.502-2.901-6.44-6.42-6.416-3.52.025-6.569 2.645-6.536 6.408.033 3.943 3.206 6.343 6.478 6.359 3.536.024 6.478-2.873 6.478-6.35Z" fill="#15A766"/></symbol><symbol fill="none" viewBox="0 0 21 24" id="resources-icon" xmlns="http://www.w3.org/2000/svg"><g fill="#fff" stroke-width=".1"><path d="M5.61 4.363v-.938a2.413 2.413 0 0 1 2.413-2.412h6.719v.05a.467.467 0 0 1 .34.141L5.611 4.363Zm0 0H2.52A2.413 2.413 0 0 0 .106 6.775V20.7a2.413 2.413 0 0 0 2.413 2.413h9.615a2.413 2.413 0 0 0 2.412-2.412v-.938h3.093a2.413 2.413 0 0 0 2.412-2.413V6.312a.538.538 0 0 0-.151-.37l-4.778-4.768-.004-.004L5.61 4.362Zm8.936 14.354V9.662a.537.537 0 0 0-.15-.37h-.001L9.623 4.523l-.005-.004a.517.517 0 0 0-.376-.157m5.304 14.354L6.656 3.425v.938m7.89 14.354h3.092a1.372 1.372 0 0 0 1.368-1.368V6.844h-2.37a2.413 2.413 0 0 1-2.411-2.413V2.058m.321 16.659-.321-16.66M9.242 4.364v.05-.05Zm0 0H6.656m0 0h-.05l.05.05v-.05Zm7.569-2.305H8.023h6.202Zm1.04.736v1.637A1.372 1.372 0 0 0 16.632 5.8m-1.367-3.005 1.367 3.055v-.05m-1.367-3.005L18.274 5.8m-1.642 0h1.642m-1.642 0h1.642M8.72 5.408V7.78a2.413 2.413 0 0 0 2.412 2.413h2.374v10.505a1.376 1.376 0 0 1-1.372 1.368H2.519A1.372 1.372 0 0 1 1.15 20.7V6.774A1.372 1.372 0 0 1 2.52 5.408h6.2Z" stroke="#90C6E9"/><path d="M3.02 13.061h4.786a.523.523 0 0 0 0-1.045H3.019a.523.523 0 0 0 0 1.045ZM11.633 15.368H3.019a.523.523 0 0 0 0 1.045h8.614a.523.523 0 0 0 0-1.045ZM11.633 18.716H3.019a.523.523 0 0 0 0 1.045h8.614a.523.523 0 0 0 0-1.045Z" stroke="#90C6E9"/><path d="M17.136 12.016h-1.441a.522.522 0 1 0 0 1.045h1.441a.523.523 0 0 0 0-1.045ZM17.136 15.368h-1.441a.522.522 0 1 0 0 1.045h1.441a.523.523 0 0 0 0-1.045Z" stroke="#fff"/></g></symbol><symbol fill="none" viewBox="0 0 64 64" id="resume-icon" xmlns="http://www.w3.org/2000/svg"><path d="M32.003 58.666c14.727 0 26.666-11.939 26.666-26.666 0-14.728-11.939-26.667-26.666-26.667C17.275 5.333 5.336 17.273 5.336 32c0 14.727 11.939 26.666 26.667 26.666Z" fill="#FFCF00" stroke="#fff" stroke-width="4" stroke-linecap="round" stroke-linejoin="round"/><path stroke="#fff" stroke-width="3" d="M35.5 19v26.25M28.5 19v26.25"/></symbol><symbol fill="none" viewBox="0 0 16 16" id="right-chevron-blue-dark" xmlns="http://www.w3.org/2000/svg"><path fill-rule="evenodd" clip-rule="evenodd" d="M6.568 12.656a.534.534 0 0 1-.024-.754L10.203 8l-3.66-3.902a.534.534 0 0 1 .78-.73l4 4.267a.533.533 0 0 1 0 .73l-4 4.267a.535.535 0 0 1-.755.024Z" fill="#0A145A"/></symbol><symbol fill="none" viewBox="0 0 38 38" id="rounded-md-cross-teal" xmlns="http://www.w3.org/2000/svg"><rect width="38" height="38" rx="10" fill="#00788A"/><path d="M26.263 27.76 10.707 12.203c-.39-.39-.372-1.042.041-1.455.413-.413 1.065-.431 1.455-.04L27.76 26.263c.39.39.372 1.042-.04 1.455-.413.413-1.065.431-1.456.04Z" fill="#fff"/><path d="M28.256 12.233 12.699 27.789c-.39.39-1.042.372-1.455-.04-.413-.414-.431-1.066-.04-1.456l15.555-15.556c.39-.39 1.043-.372 1.456.04.413.414.431 1.065.04 1.456Z" fill="#fff"/></symbol><symbol fill="none" viewBox="0 0 40 40" id="saffron-button-close-icon" xmlns="http://www.w3.org/2000/svg"><g clip-path="url(#ela)"><circle cx="20" cy="20" r="20" fill="#ECC046"/><path d="M27.263 28.76 11.707 13.203c-.39-.39-.372-1.042.041-1.455.413-.413 1.065-.431 1.455-.04L28.76 27.263c.39.39.372 1.042-.04 1.455-.413.413-1.065.431-1.456.04Z" fill="#fff"/><path d="M29.256 13.233 13.699 28.789c-.39.39-1.042.372-1.455-.04-.413-.414-.431-1.066-.04-1.456l15.555-15.556c.39-.39 1.043-.372 1.456.04.413.414.431 1.065.04 1.456Z" fill="#fff"/></g><defs><clipPath id="ela"><path fill="#fff" d="M0 0h40v40H0z"/></clipPath></defs></symbol><symbol fill="none" viewBox="0 0 48 48" id="scroll-to-top" xmlns="http://www.w3.org/2000/svg"><path d="M24 48c13.255 0 24-10.745 24-24S37.255 0 24 0 0 10.745 0 24s10.745 24 24 24Z" fill="#48D3CD"/><path d="m15.248 28.493-1.226-1.23 9.984-9.984 9.983 9.984-1.226 1.227-8.757-8.758-8.758 8.761Z" fill="#fff"/></symbol><symbol fill="none" viewBox="0 0 26 26" id="search-icon-blue-sky" xmlns="http://www.w3.org/2000/svg"><path d="M2.375 10.167a7.792 7.792 0 1 1 15.583 0 7.792 7.792 0 0 1-15.583 0ZM10.167.25C4.69.25.25 4.69.25 10.167c0 5.476 4.44 9.916 9.917 9.916 2.355 0 4.52-.821 6.22-2.193l7.55 7.549a1.063 1.063 0 0 0 1.502-1.503l-7.549-7.549a9.876 9.876 0 0 0 2.193-6.22c0-5.477-4.44-9.917-9.916-9.917Z" fill="#3395D7"/></symbol><symbol fill="none" viewBox="0 0 26 26" id="search-icon-brand-sky-blue" xmlns="http://www.w3.org/2000/svg"><g stroke="#57C4E5" stroke-width="2.25" stroke-miterlimit="10"><path d="m24 24-6.7-6.7" stroke-linecap="round"/><path d="M10.963 19.922a8.963 8.963 0 1 0 0-17.926 8.963 8.963 0 0 0 0 17.926Z" stroke-linecap="square"/></g></symbol><symbol fill="none" viewBox="0 0 26 26" id="search-icon-gold" xmlns="http://www.w3.org/2000/svg"><path fill-rule="evenodd" clip-rule="evenodd" d="M21.022 11.51a9.51 9.51 0 0 1-9.51 9.51 9.51 9.51 0 1 1 0-19.02 9.51 9.51 0 0 1 9.51 9.51ZM18.58 19.29a10.472 10.472 0 0 1-7.068 2.731c-5.805 0-10.51-4.705-10.51-10.51C1.002 5.706 5.707 1 11.512 1s10.51 4.706 10.51 10.51c0 2.723-1.036 5.205-2.735 7.072L25 24.295l-.707.707-5.713-5.713Z" fill="#FEB303"/><path d="m18.58 19.289.354-.354-.338-.337-.352.32.336.37Zm.707-.707-.37-.337-.32.353.337.338.353-.354ZM25 24.295l.354.353.353-.353-.354-.354-.353.354Zm-.707.707-.354.353.354.354.353-.354-.353-.353ZM11.512 21.52c5.529 0 10.01-4.481 10.01-10.01h-1a9.01 9.01 0 0 1-9.01 9.01v1ZM1.502 11.51c0 5.529 4.482 10.01 10.01 10.01v-1a9.01 9.01 0 0 1-9.01-9.01h-1ZM11.512 1.5c-5.528 0-10.01 4.482-10.01 10.01h1a9.01 9.01 0 0 1 9.01-9.01v-1Zm10.01 10.01c0-5.528-4.481-10.01-10.01-10.01v1a9.01 9.01 0 0 1 9.01 9.01h1Zm-10.01 11.01c2.85 0 5.45-1.084 7.404-2.861l-.672-.74a9.972 9.972 0 0 1-6.732 2.601v1ZM.502 11.51c0 6.08 4.93 11.01 11.01 11.01v-1c-5.528 0-10.01-4.481-10.01-10.01h-1ZM11.512.5C5.432.5.502 5.43.502 11.51h1c0-5.528 4.482-10.01 10.01-10.01v-1Zm11.01 11.01c0-6.08-4.93-11.01-11.01-11.01v1c5.529 0 10.01 4.482 10.01 10.01h1Zm-2.865 7.409a10.972 10.972 0 0 0 2.865-7.409h-1a9.972 9.972 0 0 1-2.604 6.735l.739.674Zm-.723.017 5.712 5.712.707-.707-5.712-5.713-.707.707Zm5.712 5.005-.707.707.707.707.707-.707-.707-.707Zm0 .707-5.713-5.713-.707.707 5.713 5.713.707-.707Z" fill="#C90"/></symbol><symbol fill="none" viewBox="0 0 27 27" id="search-icon-teal" xmlns="http://www.w3.org/2000/svg"><path d="M25.437 25.434 18.3 18.297" stroke="#00788A" stroke-width="2.25" stroke-miterlimit="10" stroke-linecap="round"/><path d="M11.549 21.097a9.549 9.549 0 0 0 9.548-9.548 9.549 9.549 0 1 0-9.549 9.549Z" stroke="#00788A" stroke-width="2.25" stroke-miterlimit="10" stroke-linecap="square"/></symbol><symbol fill="none" viewBox="0 0 24 24" id="search-icon-white" xmlns="http://www.w3.org/2000/svg"><path d="M10 2.5a7.5 7.5 0 0 1 5.964 12.048l4.743 4.745a1 1 0 0 1-1.32 1.497l-.094-.083-4.745-4.743A7.5 7.5 0 1 1 10 2.5Zm0 2a5.5 5.5 0 1 0 0 11 5.5 5.5 0 0 0 0-11Z" fill="#fff"/></symbol><symbol fill="none" viewBox="0 0 24 25" id="site-icon" xmlns="http://www.w3.org/2000/svg"><circle cx="12" cy="12.249" r="12" fill="#00788A"/><path d="M8.877 18.989A2.886 2.886 0 0 1 6 16.112V9.13a2.886 2.886 0 0 1 2.877-2.877h2.452a.482.482 0 1 1 0 .965H8.877A1.919 1.919 0 0 0 6.962 9.13v6.98a1.92 1.92 0 0 0 1.915 1.914h6.98c1.053 0 1.914-.86 1.914-1.914v-2.453a.482.482 0 1 1 .965 0v2.453a2.884 2.884 0 0 1-2.877 2.876H8.877v.003Z" fill="#fff" stroke="#fff" stroke-width=".5"/><path d="M12.362 13.104a.481.481 0 0 1-.34-.823l4.854-4.851a.127.127 0 0 0-.091-.218h-2.318a.514.514 0 0 1-.358-.15.47.47 0 0 1-.137-.34.485.485 0 0 1 .482-.473h3.788c.275 0 .498.223.498.498v3.783a.482.482 0 1 1-.965 0V8.202a.13.13 0 0 0-.127-.13.129.129 0 0 0-.091.038l-4.855 4.855a.47.47 0 0 1-.34.14Z" fill="#fff" stroke="#fff" stroke-width=".5"/></symbol><symbol fill="none" viewBox="0 0 10 16" id="sky-blue-right-arrow" xmlns="http://www.w3.org/2000/svg"><path d="M.793 15.707a1 1 0 0 1 0-1.414L7.086 8 .793 1.707A1 1 0 1 1 2.207.293l7 7a1 1 0 0 1 0 1.414l-7 7a1 1 0 0 1-1.414 0Z" fill="#3395D7"/></symbol><symbol fill="none" viewBox="0 0 40 40" id="slider-blue-icon-next" xmlns="http://www.w3.org/2000/svg"><rect width="40" height="40" rx="20" fill="#266DD3"/><path d="M28 20a.866.866 0 0 0-.293-.643l-10-9.09a1.071 1.071 0 0 0-1.414 0 .852.852 0 0 0 0 1.285L25.586 20l-9.293 8.448a.851.851 0 0 0 0 1.286c.39.355 1.024.355 1.414 0l10-9.091A.866.866 0 0 0 28 20Z" fill="#fff" stroke="#fff"/></symbol><symbol fill="none" viewBox="0 0 40 40" id="slider-blue-icon-prev" xmlns="http://www.w3.org/2000/svg"><rect width="40" height="40" rx="20" fill="#266DD3"/><path d="M12 20c0-.233.098-.465.293-.643l10-9.09a1.071 1.071 0 0 1 1.414 0c.39.355.39.93 0 1.285L14.414 20l9.293 8.448c.39.355.39.93 0 1.286a1.072 1.072 0 0 1-1.414 0l-10-9.091A.866.866 0 0 1 12 20Z" fill="#fff" stroke="#fff"/></symbol><symbol fill="none" viewBox="0 0 48 48" id="slider-icon-blue" xmlns="http://www.w3.org/2000/svg"><rect width="48" height="48" rx="24" fill="#2638C4"/><path d="M31.059 8.44a1.5 1.5 0 0 1 0 2.12L17.619 24l13.44 13.44a1.5 1.5 0 1 1-2.122 2.12l-14.5-14.5a1.5 1.5 0 0 1 0-2.12l14.5-14.5a1.5 1.5 0 0 1 2.122 0Z" fill="#fff"/></symbol><symbol fill="none" viewBox="0 0 40 40" id="slider-icon-next" xmlns="http://www.w3.org/2000/svg"><rect width="40" height="40" rx="20" fill="#fff"/><path d="M26.667 20c0 .31-.109.62-.326.857L15.23 32.977a1.046 1.046 0 0 1-1.571 0 1.29 1.29 0 0 1 0-1.713L23.984 20 13.66 8.735a1.29 1.29 0 0 1 0-1.714 1.046 1.046 0 0 1 1.571 0l11.111 12.122c.217.236.326.547.326.857Z" fill="#266DD3"/></symbol><symbol fill="none" viewBox="0 0 40 40" id="slider-icon-previous" xmlns="http://www.w3.org/2000/svg"><rect width="40" height="40" rx="20" fill="#fff"/><path d="M13.333 20c0-.31.109-.62.326-.857L24.77 7.023a1.046 1.046 0 0 1 1.571 0 1.29 1.29 0 0 1 0 1.713L16.016 20 26.34 31.265a1.29 1.29 0 0 1 0 1.713 1.046 1.046 0 0 1-1.571 0l-11.111-12.12a1.267 1.267 0 0 1-.326-.858Z" fill="#266DD3"/></symbol><symbol fill="none" viewBox="0 0 34 34" id="tilted-arrow" xmlns="http://www.w3.org/2000/svg"><circle cx="17" cy="17" r="16.5" fill="#F9BD19"/><path d="M10.487 23.469 22.89 11.066M23.376 15.336l.088-4.845-4.845.088" stroke="#fff" stroke-width="1.238" stroke-linecap="round"/></symbol><symbol fill="none" viewBox="0 0 12 12" id="timeline-playbutton" xmlns="http://www.w3.org/2000/svg"><g clip-path="url(#fea)"><path d="M6 11A5 5 0 1 0 6 1a5 5 0 0 0 0 10Z" fill="#C3C3C3" stroke="#fff" stroke-linecap="round" stroke-linejoin="round"/><path d="m5 4 3 2-3 2V4Z" fill="#fff"/></g><defs><clipPath id="fea"><path fill="#fff" d="M0 0h12v12H0z"/></clipPath></defs></symbol><symbol fill="none" viewBox="0 0 32 32" id="tool-tip" xmlns="http://www.w3.org/2000/svg"><circle cx="16" cy="16" r="16" fill="#2638C4"/><path d="M13.997 18.421v-.253c.005-.87.082-1.564.231-2.081.155-.517.378-.935.671-1.253a5.137 5.137 0 0 1 1.06-.865c.308-.199.584-.405.827-.619a2.68 2.68 0 0 0 .582-.708c.144-.264.216-.557.216-.88 0-.343-.082-.644-.246-.903a1.639 1.639 0 0 0-.664-.596 1.976 1.976 0 0 0-.91-.209c-.323 0-.628.072-.917.216-.288.14-.524.348-.708.627-.184.273-.284.614-.298 1.021h-3.043c.025-.994.263-1.814.716-2.46a4.1 4.1 0 0 1 1.797-1.455c.746-.323 1.569-.485 2.469-.485.989 0 1.864.165 2.624.493.761.323 1.358.793 1.79 1.41.433.616.649 1.359.649 2.229 0 .582-.097 1.099-.29 1.551a3.78 3.78 0 0 1-.799 1.193 6.185 6.185 0 0 1-1.215.932 4.933 4.933 0 0 0-.97.731 2.484 2.484 0 0 0-.56.88c-.118.333-.18.743-.186 1.23v.254h-2.826Zm1.477 4.773a1.75 1.75 0 0 1-1.276-.522 1.716 1.716 0 0 1-.514-1.268 1.683 1.683 0 0 1 .514-1.253 1.75 1.75 0 0 1 1.276-.522c.472 0 .887.174 1.245.522.358.348.54.766.544 1.253a1.735 1.735 0 0 1-.26.902 1.93 1.93 0 0 1-.65.65 1.696 1.696 0 0 1-.88.238Z" fill="#fff"/></symbol><symbol fill="none" viewBox="0 0 14 14" id="twitter-white" xmlns="http://www.w3.org/2000/svg"><path d="M10.69 1.111h1.968l-4.3 4.914 5.059 6.686h-3.96L6.354 8.656l-3.55 4.055H.838l4.598-5.255L.583 1.11h4.06l2.805 3.707 3.242-3.707ZM10 11.534h1.09L4.051 2.227h-1.17L10 11.534Z" fill="#fff"/></symbol><symbol fill="none" viewBox="0 0 24 24" id="typcn_phone" xmlns="http://www.w3.org/2000/svg"><path d="m10.626 7.083-3.711-3.71.438-.434c.566-.566 1.555-.566 2.121 0l1.586 1.586c.284.284.44.661.44 1.061 0 .4-.156.777-.438 1.06l-.436.437Zm6.728 5.856c.566-.566 1.555-.566 2.121 0l1.586 1.586c.283.284.439.661.439 1.061 0 .4-.156.777-.441 1.062l-.437.432-3.703-3.703.435-.438ZM5.563 4.729l.354-.354 3.708 3.708-.65.649a.5.5 0 0 0 0 .708l5.586 5.586a.513.513 0 0 0 .707 0l.65-.65 3.702 3.71-.354.354c-.26.26-1.246 1.105-3.056 1.105-1.616 0-4.256-.712-7.65-4.105C1.787 8.665 5.402 4.89 5.563 4.729Z" fill="#2638C4"/></symbol><symbol fill="none" viewBox="0 0 28 28" id="user-icon" xmlns="http://www.w3.org/2000/svg"><path d="M14.005 14.885a5.333 5.333 0 1 1 0-10.666 5.333 5.333 0 0 1 0 10.666Zm0-8.888a3.555 3.555 0 1 0 0 7.11 3.555 3.555 0 0 0 0-7.11ZM14.007 27.332a13.333 13.333 0 0 1-10.303-4.88l-.462-.57.462-.56c4.675-5.69 13.077-6.512 18.767-1.837a13.341 13.341 0 0 1 1.838 1.838l.462.56-.462.569a13.333 13.333 0 0 1-10.302 4.88Zm-8.436-5.44c4.357 4.664 11.669 4.913 16.333.556.192-.179.377-.365.556-.556-4.357-4.664-11.669-4.913-16.333-.556-.191.179-.377.364-.556.556Z" fill="#3395D7"/><path d="M14.006 27.33C6.642 27.337.67 21.37.664 14.007.66 6.642 6.624.67 13.99.664 21.352.66 27.325 6.624 27.33 13.99A13.332 13.332 0 0 1 14.006 27.33Zm0-24.888c-6.382 0-11.555 5.173-11.555 11.555 0 6.383 5.173 11.556 11.555 11.556 6.383 0 11.556-5.173 11.556-11.556 0-6.382-5.174-11.555-11.556-11.555Z" fill="#3395D7"/><path d="M4.388 21.889s8.951 10 18.062.995l1.174-.995s-7.61-7.894-15.334-3.156l-3.902 3.156ZM14.008 13.998a4.444 4.444 0 1 0 0-8.889 4.444 4.444 0 0 0 0 8.89Z" fill="#3395D7"/></symbol><symbol fill="none" viewBox="0 0 15 27" id="white-chevron" xmlns="http://www.w3.org/2000/svg"><path d="M15 13.804c0 .471-.18.943-.54 1.303L3.146 26.42A1.843 1.843 0 1 1 .54 23.815L10.55 13.804.54 3.792a1.843 1.843 0 0 1 2.606-2.605L14.461 12.5c.36.36.539.831.539 1.303Z" fill="#fff"/></symbol><symbol fill="none" viewBox="0 0 43 48" id="white-double-arrow" xmlns="http://www.w3.org/2000/svg"><path fill-rule="evenodd" clip-rule="evenodd" d="M.833 46.653a2.632 2.632 0 0 1-.121-3.72l18.05-19.25L.712 4.431a2.632 2.632 0 1 1 3.842-3.6l19.734 21.05a2.632 2.632 0 0 1 0 3.6L4.554 46.532a2.631 2.631 0 0 1-3.721.121Z" fill="#fff"/><path fill-rule="evenodd" clip-rule="evenodd" d="M18.833 46.653a2.632 2.632 0 0 1-.121-3.72l18.05-19.25-18.05-19.251a2.632 2.632 0 1 1 3.841-3.6l19.735 21.05a2.632 2.632 0 0 1 0 3.6l-19.734 21.05a2.631 2.631 0 0 1-3.721.121Z" fill="#fff"/></symbol><symbol fill="none" viewBox="0 0 24 24" id="white-loader" xmlns="http://www.w3.org/2000/svg"><path d="M12 2v3M12 19v3M22 12h-3M5 12H2M19.07 4.929 16.95 7.05M7.051 16.95 4.93 19.071M4.93 4.929 7.05 7.05M16.949 16.95l2.121 2.121" stroke="#fff" stroke-width="1.5" stroke-linecap="round" stroke-linejoin="round"/></symbol><symbol fill="none" viewBox="0 0 24 24" id="yellow-circle-right" xmlns="http://www.w3.org/2000/svg"><path d="M12 0C5.383 0 0 5.383 0 12s5.383 12 12 12 12-5.383 12-12S18.617 0 12 0Zm3.707 12.707-5 5a.997.997 0 0 1-1.414 0 .999.999 0 0 1 0-1.414L13.586 12 9.293 7.707a.999.999 0 1 1 1.414-1.414l5 5a.999.999 0 0 1 0 1.414Z" fill="#EAB13A"/></symbol><symbol fill="none" viewBox="0 0 43 48" id="yellow-double-arrow" xmlns="http://www.w3.org/2000/svg"><path fill-rule="evenodd" clip-rule="evenodd" d="M.833 46.653a2.632 2.632 0 0 1-.121-3.72l18.05-19.25L.712 4.431a2.632 2.632 0 1 1 3.842-3.6l19.734 21.05a2.632 2.632 0 0 1 0 3.6L4.554 46.532a2.631 2.631 0 0 1-3.721.121Z" fill="#FFB238"/><path fill-rule="evenodd" clip-rule="evenodd" d="M18.833 46.653a2.632 2.632 0 0 1-.121-3.72l18.05-19.25-18.05-19.251a2.632 2.632 0 1 1 3.841-3.6l19.735 21.05a2.632 2.632 0 0 1 0 3.6l-19.734 21.05a2.631 2.631 0 0 1-3.721.121Z" fill="#FFB238"/></symbol><symbol fill="none" viewBox="0 0 32 24" id="youtube-sky-blue" xmlns="http://www.w3.org/2000/svg"><path d="M31.681 5.766s-.312-2.206-1.275-3.175c-1.218-1.275-2.581-1.28-3.206-1.356C22.725.91 16.006.91 16.006.91h-.012S9.275.91 4.8 1.235c-.625.075-1.987.081-3.206 1.356C.63 3.561.325 5.766.325 5.766S0 8.36 0 10.948v2.425c0 2.587.319 5.18.319 5.18S.63 20.76 1.587 21.73c1.22 1.275 2.82 1.231 3.532 1.369C7.68 23.34 16 23.416 16 23.416s6.725-.012 11.2-.33c.625-.076 1.988-.082 3.206-1.357.963-.969 1.275-3.175 1.275-3.175S32 15.966 32 13.373v-2.425c0-2.588-.319-5.182-.319-5.182Zm-18.987 10.55V7.323l8.643 4.512-8.643 4.481Z" fill="#54A4DB"/></symbol><symbol fill="none" viewBox="0 0 49 34" id="youtube-white" xmlns="http://www.w3.org/2000/svg"><path d="M48.022 7.405s-.469-3.31-1.913-4.763C44.281.73 42.237.72 41.3.608 34.588.12 24.51.12 24.51.12h-.02S14.414.12 7.7.608C6.762.72 4.719.73 2.89 2.642 1.448 4.095.988 7.405.988 7.405S.5 11.295.5 15.177v3.637c0 3.881.478 7.772.478 7.772s.469 3.31 1.903 4.762c1.828 1.913 4.228 1.847 5.297 2.054 3.844.365 16.322.478 16.322.478s10.087-.02 16.8-.497c.938-.113 2.981-.122 4.81-2.035 1.443-1.453 1.912-4.762 1.912-4.762s.478-3.881.478-7.772v-3.637c0-3.882-.478-7.772-.478-7.772ZM19.54 23.23V9.74l12.965 6.768-12.965 6.722Z" fill="#fff"/></symbol></svg>